<svg width="168" height="36" viewBox="0 0 168 36" fill="none" xmlns="http://www.w3.org/2000/svg">
<path d="M41.2216 27H52.071V24.3494H44.3835V9.54545H41.2216V27ZM58.446 27.2642C60.5 27.2642 61.7273 26.3011 62.2898 25.2017H62.392V27H65.358V18.2386C65.358 14.7784 62.5369 13.7386 60.0398 13.7386C57.2869 13.7386 55.1733 14.9659 54.4915 17.3523L57.3722 17.7614C57.679 16.8665 58.5483 16.0994 60.0568 16.0994C61.4886 16.0994 62.2727 16.8324 62.2727 18.1193V18.1705C62.2727 19.0568 61.3438 19.0994 59.0341 19.3466C56.4943 19.6193 54.0653 20.3778 54.0653 23.3267C54.0653 25.9006 55.9489 27.2642 58.446 27.2642ZM59.2472 24.9972C57.9602 24.9972 57.0398 24.4091 57.0398 23.2756C57.0398 22.0909 58.071 21.5966 59.4517 21.4006C60.2614 21.2898 61.8807 21.0852 62.2812 20.7614V22.304C62.2812 23.7614 61.1051 24.9972 59.2472 24.9972ZM71.5455 19.3295C71.5455 17.4375 72.6875 16.3466 74.3153 16.3466C75.9091 16.3466 76.8636 17.3949 76.8636 19.142V27H79.9489V18.6648C79.9574 15.5284 78.1676 13.7386 75.4659 13.7386C73.5057 13.7386 72.1591 14.6761 71.5625 16.1335H71.4091V13.9091H68.4602V27H71.5455V19.3295ZM87.9432 27.2301C90.1932 27.2301 91.2074 25.892 91.6932 24.9375H91.8807V27H94.9148V9.54545H91.821V16.0739H91.6932C91.2244 15.1278 90.2614 13.7386 87.9517 13.7386C84.9261 13.7386 82.5483 16.108 82.5483 20.4716C82.5483 24.7841 84.858 27.2301 87.9432 27.2301ZM88.804 24.6989C86.767 24.6989 85.6932 22.9091 85.6932 20.4545C85.6932 18.017 86.75 16.2699 88.804 16.2699C90.7898 16.2699 91.8807 17.9148 91.8807 20.4545C91.8807 22.9943 90.7727 24.6989 88.804 24.6989ZM103.913 27.2557C107.202 27.2557 109.299 25.304 109.521 22.5256H106.572C106.308 23.9318 105.293 24.7415 103.938 24.7415C102.012 24.7415 100.768 23.1307 100.768 20.4545C100.768 17.8125 102.038 16.2273 103.938 16.2273C105.421 16.2273 106.333 17.1818 106.572 18.4432H109.521C109.308 15.6051 107.092 13.7386 103.896 13.7386C100.06 13.7386 97.6399 16.5085 97.6399 20.5057C97.6399 24.4688 100.001 27.2557 103.913 27.2557ZM115.139 19.3295C115.139 17.4375 116.315 16.3466 117.969 16.3466C119.588 16.3466 120.543 17.3778 120.543 19.142V27H123.628V18.6648C123.628 15.5028 121.838 13.7386 119.119 13.7386C117.108 13.7386 115.83 14.6506 115.224 16.1335H115.071V9.54545H112.054V27H115.139V19.3295ZM132.568 27.2557C135.619 27.2557 137.716 25.7642 138.261 23.4886L135.381 23.1648C134.963 24.2727 133.94 24.8523 132.611 24.8523C130.616 24.8523 129.295 23.5398 129.27 21.2983H138.389V20.3523C138.389 15.7585 135.628 13.7386 132.406 13.7386C128.656 13.7386 126.21 16.4915 126.21 20.5312C126.21 24.6392 128.622 27.2557 132.568 27.2557ZM129.278 19.2188C129.372 17.5483 130.608 16.142 132.449 16.142C134.222 16.142 135.415 17.4375 135.432 19.2188H129.278ZM146.71 27.2557C149.999 27.2557 152.096 25.304 152.317 22.5256H149.369C149.104 23.9318 148.09 24.7415 146.735 24.7415C144.809 24.7415 143.565 23.1307 143.565 20.4545C143.565 17.8125 144.835 16.2273 146.735 16.2273C148.218 16.2273 149.13 17.1818 149.369 18.4432H152.317C152.104 15.6051 149.888 13.7386 146.692 13.7386C142.857 13.7386 140.437 16.5085 140.437 20.5057C140.437 24.4688 142.798 27.2557 146.71 27.2557ZM154.851 27H157.936V22.6023L159.061 21.4006L163.067 27H166.757L161.388 19.5597L166.459 13.9091H162.854L158.149 19.1676H157.936V9.54545H154.851V27Z" fill="white"/>
<path d="M5.29218 11.3878L11.8765 6.97959L22 13.5918V20M5.29218 11.3878L2 13.5918V30H12M5.29218 11.3878V6" stroke="white" stroke-width="2.93878"/>
<path d="M12 20H23.5L17.75 25.75L12 31.5V20Z" fill="#6B6BFF"/>
</svg>
