<svg width="53" height="51" viewBox="0 0 53 51" fill="none" xmlns="http://www.w3.org/2000/svg">
<path opacity="0.2" fill-rule="evenodd" clip-rule="evenodd" d="M0.614416 43.1715L21.4551 2.99086C22.4262 1.1123 24.2941 0 26.4693 0C28.648 0 30.516 1.1123 31.487 2.99086L52.3277 43.1715C53.2246 44.8982 53.1363 46.7944 52.0841 48.4329C51.0318 50.0748 49.3121 51 47.31 51H5.62861C3.62999 51 1.91034 50.0748 0.858063 48.4329C-0.194211 46.7944 -0.282489 44.8982 0.614416 43.1715Z" fill="#5C5CE5"/>
<path d="M27.8355 42.3484H26.6561C25.7451 42.3484 25 41.575 25 40.6322V39.7777C25 38.8314 25.7451 38.0616 26.6561 38.0616H27.8355C28.7501 38.0616 29.4951 38.8314 29.4951 39.7777V40.6322C29.4951 41.575 28.7501 42.3484 27.8355 42.3484Z" fill="#5C5CE5"/>
<path d="M27.5 17C25.5 16.998 25 18.5804 25 19.2901V33.7395C25 34.4457 25.5579 35.0283 26.243 35.0283H28.2522C28.9372 35.0283 29.4951 34.4457 29.4951 33.7395V19.2901C29.4951 18.5804 29 17 27.5 17Z" fill="#5C5CE5"/>
</svg>
