<svg width="16" height="30" viewBox="0 0 16 30" fill="none" xmlns="http://www.w3.org/2000/svg">
<path d="M4.79096 11.7273C5.42373 12.5455 6.68926 12.9091 7.77401 12.9091C10.2147 12.9091 12.3842 13.6364 14.0113 15.2727C15.096 16.4545 15.7288 17.9091 15.7288 19.4545C15.7288 22.3636 13.3785 24.9091 9.9435 25.4545V28C9.9435 29.2727 8.94915 30 7.77401 30C6.59887 30 5.69491 29 5.69491 28V25.4545C4.24859 25.0909 2.80226 24.4545 1.8983 23.4545C0.723162 22.2727 0 20.8182 0 19.2727C0 18.0909 0.994348 17.2727 2.16949 17.2727C3.34463 17.2727 4.42938 18.2727 4.42938 19.4545C4.42938 19.9091 4.61017 20.3636 4.97175 20.6364C5.69491 21.2727 6.68927 21.5455 7.86441 21.5455C10.0339 21.5455 11.4802 20.4545 11.4802 19.4545C11.4802 18.8182 11.2994 18.5455 11.0282 18.3636C10.3051 17.6364 9.31073 17.1818 7.9548 17.1818C5.60452 17.1818 3.43503 16.3636 1.9887 14.7273C0.903955 13.5455 0.180792 12.0909 0.180792 10.6364C0.180792 7.72727 2.62147 5.18182 5.9661 4.54545V2C5.9661 1 6.96045 0 8.13559 0C9.49152 0 10.3955 0.999999 10.3955 2.09091V4.45455C11.8418 4.81818 13.2881 5.63636 14.2825 6.54545C15.4576 7.72727 16 9.09091 16 10.6364C16 11.9091 15.0056 12.8182 13.8305 12.8182C12.7458 12.8182 11.8418 11.9091 11.8418 10.6364C11.8418 10.0909 11.4802 9.81818 11.2994 9.54545C10.6667 8.90909 9.58192 8.45454 8.22599 8.45454C6.14689 8.45454 4.79096 9.54545 4.70057 10.4545C4.33898 11.0909 4.61017 11.5455 4.79096 11.7273Z" fill="#5C5CE5"/>
</svg>
