<svg width="336" height="182" viewBox="0 0 336 182" fill="none" xmlns="http://www.w3.org/2000/svg">
<path d="M10.0611 86.0895H12.4773C12.0746 83.5199 9.85014 81.7301 6.95455 81.7301C3.52841 81.7301 0.958807 84.2486 0.958807 88.4673C0.958807 92.6094 3.41335 95.179 7.02486 95.179C10.2656 95.179 12.5859 93.0952 12.5859 89.7202V88.1477H7.27415V90.0014H10.2912C10.2528 91.8679 9.00639 93.0504 7.03764 93.0504C4.84517 93.0504 3.34304 91.4077 3.34304 88.4418C3.34304 85.495 4.87074 83.8587 6.98651 83.8587C8.56534 83.8587 9.6392 84.7024 10.0611 86.0895ZM19.1234 95.1918C21.4118 95.1918 22.9842 94.0732 23.3933 92.3665L21.2328 92.1236C20.9196 92.9545 20.1525 93.3892 19.1554 93.3892C17.6596 93.3892 16.6689 92.4048 16.6497 90.7237H23.4892V90.0142C23.4892 86.5689 21.4181 85.054 19.002 85.054C16.1895 85.054 14.3549 87.1186 14.3549 90.1484C14.3549 93.2294 16.1639 95.1918 19.1234 95.1918ZM16.6561 89.1641C16.7264 87.9112 17.6532 86.8565 19.0339 86.8565C20.3635 86.8565 21.2583 87.8281 21.2711 89.1641H16.6561ZM30.3494 85.1818H28.4126V82.8295H26.0987V85.1818H24.7053V86.9716H26.0987V92.4304C26.0859 94.2777 27.4283 95.1854 29.1669 95.1342C29.8253 95.1151 30.2791 94.9872 30.5284 94.9041L30.1385 93.0952C30.0107 93.1271 29.7486 93.1847 29.4609 93.1847C28.8793 93.1847 28.4126 92.9801 28.4126 92.0469V86.9716H30.3494V85.1818ZM41.0321 95.1918C43.4995 95.1918 45.0719 93.728 45.2381 91.6442H43.0265C42.8283 92.6989 42.0676 93.3061 41.0513 93.3061C39.6067 93.3061 38.6735 92.098 38.6735 90.0909C38.6735 88.1094 39.6259 86.9205 41.0513 86.9205C42.1635 86.9205 42.8475 87.6364 43.0265 88.5824H45.2381C45.0783 86.4538 43.4164 85.054 41.0194 85.054C38.1429 85.054 36.3276 87.1314 36.3276 90.1293C36.3276 93.1016 38.0982 95.1918 41.0321 95.1918ZM49.4521 81.9091H47.1381V95H49.4521V81.9091ZM54.6568 95.1982C56.1973 95.1982 57.1177 94.4759 57.5396 93.6513H57.6163V95H59.8407V88.429C59.8407 85.8338 57.725 85.054 55.8521 85.054C53.7875 85.054 52.2022 85.9744 51.6909 87.7642L53.8514 88.071C54.0815 87.3999 54.7335 86.8246 55.8649 86.8246C56.9387 86.8246 57.5268 87.3743 57.5268 88.3395V88.3778C57.5268 89.0426 56.8301 89.0746 55.0978 89.2599C53.193 89.4645 51.3713 90.0334 51.3713 92.245C51.3713 94.1754 52.7839 95.1982 54.6568 95.1982ZM55.2576 93.4979C54.2924 93.4979 53.6021 93.0568 53.6021 92.2067C53.6021 91.3182 54.3755 90.9474 55.411 90.8004C56.0183 90.7173 57.2328 90.5639 57.5332 90.321V91.478C57.5332 92.571 56.6511 93.4979 55.2576 93.4979ZM62.1674 95H64.4814V89.228C64.4814 87.9815 65.421 87.0994 66.693 87.0994C67.0829 87.0994 67.5687 87.1697 67.7669 87.2337V85.1051C67.5559 85.0668 67.1916 85.0412 66.9359 85.0412C65.8109 85.0412 64.8713 85.6804 64.5133 86.8182H64.411V85.1818H62.1674V95ZM69.3042 95H71.6181V85.1818H69.3042V95ZM70.4675 83.7884C71.2026 83.7884 71.8034 83.2259 71.8034 82.5355C71.8034 81.8388 71.2026 81.2763 70.4675 81.2763C69.726 81.2763 69.1252 81.8388 69.1252 82.5355C69.1252 83.2259 69.726 83.7884 70.4675 83.7884ZM78.9002 85.1818H76.9634V82.8295H74.6495V85.1818H73.256V86.9716H74.6495V92.4304C74.6367 94.2777 75.979 95.1854 77.7177 95.1342C78.3761 95.1151 78.8299 94.9872 79.0792 94.9041L78.6893 93.0952C78.5614 93.1271 78.2994 93.1847 78.0117 93.1847C77.43 93.1847 76.9634 92.9801 76.9634 92.0469V86.9716H78.9002V85.1818ZM82.2736 98.6818C84.0762 98.6818 85.1181 97.755 85.6742 96.1889L89.6181 85.1946L87.1444 85.1818L84.8752 92.5966H84.7729L82.5101 85.1818H80.0556L83.6159 95.2045L83.4178 95.7351C82.9895 96.8537 82.312 96.9304 81.302 96.6364L80.7651 98.4389C81.0783 98.5668 81.6408 98.6818 82.2736 98.6818ZM99.9716 95.1918C102.848 95.1918 104.676 93.1655 104.676 90.1293C104.676 87.0866 102.848 85.054 99.9716 85.054C97.0952 85.054 95.267 87.0866 95.267 90.1293C95.267 93.1655 97.0952 95.1918 99.9716 95.1918ZM99.9844 93.3381C98.3928 93.3381 97.6129 91.919 97.6129 90.1229C97.6129 88.3267 98.3928 86.8885 99.9844 86.8885C101.55 86.8885 102.33 88.3267 102.33 90.1229C102.33 91.919 101.55 93.3381 99.9844 93.3381ZM108.954 89.2472C108.954 87.8281 109.811 87.0099 111.031 87.0099C112.227 87.0099 112.943 87.7962 112.943 89.1065V95H115.257V88.7486C115.263 86.3963 113.921 85.054 111.894 85.054C110.424 85.054 109.414 85.7571 108.967 86.8501H108.852V85.1818H106.64V95H108.954V89.2472ZM123.512 98.6818C125.314 98.6818 126.356 97.755 126.912 96.1889L130.856 85.1946L128.383 85.1818L126.113 92.5966H126.011L123.748 85.1818H121.294L124.854 95.2045L124.656 95.7351C124.228 96.8537 123.55 96.9304 122.54 96.6364L122.003 98.4389C122.317 98.5668 122.879 98.6818 123.512 98.6818ZM136.411 95.1918C139.287 95.1918 141.116 93.1655 141.116 90.1293C141.116 87.0866 139.287 85.054 136.411 85.054C133.535 85.054 131.706 87.0866 131.706 90.1293C131.706 93.1655 133.535 95.1918 136.411 95.1918ZM136.424 93.3381C134.832 93.3381 134.052 91.919 134.052 90.1229C134.052 88.3267 134.832 86.8885 136.424 86.8885C137.99 86.8885 138.77 88.3267 138.77 90.1229C138.77 91.919 137.99 93.3381 136.424 93.3381ZM149.337 90.8707C149.337 92.3665 148.27 93.108 147.247 93.108C146.135 93.108 145.393 92.3217 145.393 91.0753V85.1818H143.08V91.4332C143.08 93.7919 144.422 95.1278 146.352 95.1278C147.822 95.1278 148.858 94.3544 149.305 93.255H149.408V95H151.651V85.1818H149.337V90.8707ZM154.031 95H156.345V89.228C156.345 87.9815 157.284 87.0994 158.556 87.0994C158.946 87.0994 159.432 87.1697 159.63 87.2337V85.1051C159.419 85.0668 159.055 85.0412 158.799 85.0412C157.674 85.0412 156.735 85.6804 156.377 86.8182H156.274V85.1818H154.031V95ZM165.632 95H167.946V89.228C167.946 87.9815 168.886 87.0994 170.158 87.0994C170.548 87.0994 171.034 87.1697 171.232 87.2337V85.1051C171.021 85.0668 170.656 85.0412 170.401 85.0412C169.276 85.0412 168.336 85.6804 167.978 86.8182H167.876V85.1818H165.632V95ZM172.769 95H175.083V85.1818H172.769V95ZM173.932 83.7884C174.667 83.7884 175.268 83.2259 175.268 82.5355C175.268 81.8388 174.667 81.2763 173.932 81.2763C173.191 81.2763 172.59 81.8388 172.59 82.5355C172.59 83.2259 173.191 83.7884 173.932 83.7884ZM185.222 87.777C184.903 86.1151 183.573 85.054 181.272 85.054C178.907 85.054 177.296 86.2173 177.303 88.0327C177.296 89.4645 178.178 90.4105 180.064 90.8004L181.739 91.152C182.64 91.3501 183.062 91.7145 183.062 92.2706C183.062 92.9418 182.333 93.4467 181.234 93.4467C180.173 93.4467 179.482 92.9865 179.284 92.1044L177.028 92.3217C177.315 94.1243 178.83 95.1918 181.24 95.1918C183.695 95.1918 185.427 93.9197 185.433 92.0597C185.427 90.6598 184.526 89.8033 182.672 89.4006L180.997 89.0426C180 88.8189 179.604 88.4737 179.61 87.9048C179.604 87.2401 180.339 86.7798 181.304 86.7798C182.371 86.7798 182.934 87.3615 183.113 88.0071L185.222 87.777ZM187.341 95H189.655V91.7017L190.499 90.8004L193.503 95H196.271L192.244 89.4197L196.047 85.1818H193.343L189.815 89.1257H189.655V81.9091H187.341V95ZM205.349 87.777C205.03 86.1151 203.7 85.054 201.399 85.054C199.034 85.054 197.423 86.2173 197.43 88.0327C197.423 89.4645 198.305 90.4105 200.191 90.8004L201.866 91.152C202.767 91.3501 203.189 91.7145 203.189 92.2706C203.189 92.9418 202.46 93.4467 201.361 93.4467C200.3 93.4467 199.609 92.9865 199.411 92.1044L197.155 92.3217C197.442 94.1243 198.957 95.1918 201.367 95.1918C203.822 95.1918 205.554 93.9197 205.56 92.0597C205.554 90.6598 204.653 89.8033 202.799 89.4006L201.124 89.0426C200.127 88.8189 199.731 88.4737 199.737 87.9048C199.731 87.2401 200.466 86.7798 201.431 86.7798C202.498 86.7798 203.061 87.3615 203.24 88.0071L205.349 87.777Z" fill="#151147"/>
<path d="M1.88636 128L3.05682 124.705H7.76136L8.93182 128H10.4091L6.13636 116.364H4.68182L0.409091 128H1.88636ZM3.5 123.455L5.36364 118.205H5.45455L7.31818 123.455H3.5ZM13.3807 122.75C13.3807 121.227 14.3239 120.364 15.608 120.364C16.8523 120.364 17.608 121.176 17.608 122.545V128H18.9489V122.455C18.9489 120.227 17.7614 119.159 15.9943 119.159C14.6761 119.159 13.858 119.75 13.4489 120.636H13.3352V119.273H12.0398V128H13.3807V122.75ZM29.5582 128.182C31.331 128.182 32.6264 127.295 33.0355 125.977L31.7401 125.614C31.3991 126.523 30.6094 126.977 29.5582 126.977C27.9844 126.977 26.8991 125.96 26.8366 124.091H33.1719V123.523C33.1719 120.273 31.2401 119.159 29.4219 119.159C27.0582 119.159 25.4901 121.023 25.4901 123.705C25.4901 126.386 27.0355 128.182 29.5582 128.182ZM26.8366 122.932C26.9276 121.574 27.8878 120.364 29.4219 120.364C30.8764 120.364 31.8082 121.455 31.8082 122.932H26.8366ZM37.7798 128.205C39.3026 128.205 40.098 127.386 40.3707 126.818H40.4389V128H41.7798V122.25C41.7798 119.477 39.6662 119.159 38.5526 119.159C37.2344 119.159 35.7344 119.614 35.0526 121.205L36.3253 121.659C36.6207 121.023 37.3196 120.341 38.598 120.341C39.831 120.341 40.4389 120.994 40.4389 122.114V122.159C40.4389 122.807 39.7798 122.75 38.1889 122.955C36.5696 123.165 34.8026 123.523 34.8026 125.523C34.8026 127.227 36.1207 128.205 37.7798 128.205ZM37.9844 127C36.9162 127 36.1435 126.523 36.1435 125.591C36.1435 124.568 37.0753 124.25 38.1207 124.114C38.6889 124.045 40.2116 123.886 40.4389 123.614V124.841C40.4389 125.932 39.5753 127 37.9844 127ZM50.4091 121.227C49.9886 119.989 49.0455 119.159 47.3182 119.159C45.4773 119.159 44.1136 120.205 44.1136 121.682C44.1136 122.886 44.8295 123.693 46.4318 124.068L47.8864 124.409C48.767 124.614 49.1818 125.034 49.1818 125.636C49.1818 126.386 48.3864 127 47.1364 127C46.0398 127 45.3523 126.528 45.1136 125.591L43.8409 125.909C44.1534 127.392 45.375 128.182 47.1591 128.182C49.1875 128.182 50.5682 127.074 50.5682 125.568C50.5682 124.352 49.8068 123.585 48.25 123.205L46.9545 122.886C45.9205 122.631 45.4545 122.284 45.4545 121.614C45.4545 120.864 46.25 120.318 47.3182 120.318C48.4886 120.318 48.9716 120.966 49.2045 121.568L50.4091 121.227ZM53.4503 131.273C54.6605 131.273 55.5128 130.631 56.0185 129.273L59.7344 119.295L58.2685 119.273L55.8594 126.227H55.7685L53.3594 119.273H51.9048L55.1321 128.045L54.8821 128.727C54.3935 130.057 53.7912 130.182 52.8139 129.932L52.473 131.114C52.6094 131.182 52.9957 131.273 53.4503 131.273ZM69.804 119.273H67.9403V117.182H66.5994V119.273H65.2812V120.409H66.5994V125.864C66.5994 127.386 67.8267 128.114 68.9631 128.114C69.4631 128.114 69.7812 128.023 69.9631 127.955L69.6903 126.75C69.5767 126.773 69.3949 126.818 69.0994 126.818C68.5085 126.818 67.9403 126.636 67.9403 125.5V120.409H69.804V119.273ZM75.2727 128.182C77.6364 128.182 79.2273 126.386 79.2273 123.682C79.2273 120.955 77.6364 119.159 75.2727 119.159C72.9091 119.159 71.3182 120.955 71.3182 123.682C71.3182 126.386 72.9091 128.182 75.2727 128.182ZM75.2727 126.977C73.4773 126.977 72.6591 125.432 72.6591 123.682C72.6591 121.932 73.4773 120.364 75.2727 120.364C77.0682 120.364 77.8864 121.932 77.8864 123.682C77.8864 125.432 77.0682 126.977 75.2727 126.977ZM91.2741 124.432C91.2741 126.068 90.0241 126.818 89.0241 126.818C87.9105 126.818 87.1151 126 87.1151 124.727V119.273H85.7741V124.818C85.7741 127.045 86.956 128.114 88.5923 128.114C89.9105 128.114 90.7741 127.409 91.1832 126.523H91.2741V128H92.6151V119.273H91.2741V124.432ZM96.4119 122.75C96.4119 121.227 97.3551 120.364 98.6392 120.364C99.8835 120.364 100.639 121.176 100.639 122.545V128H101.98V122.455C101.98 120.227 100.793 119.159 99.0256 119.159C97.7074 119.159 96.8892 119.75 96.4801 120.636H96.3665V119.273H95.071V128H96.4119V122.75ZM107.726 128.182C109.408 128.182 109.976 127.136 110.271 126.659H110.43V128H111.726V116.364H110.385V120.659H110.271C109.976 120.205 109.453 119.159 107.749 119.159C105.544 119.159 104.021 120.909 104.021 123.659C104.021 126.432 105.544 128.182 107.726 128.182ZM107.908 126.977C106.226 126.977 105.362 125.5 105.362 123.636C105.362 121.795 106.203 120.364 107.908 120.364C109.544 120.364 110.408 121.682 110.408 123.636C110.408 125.614 109.521 126.977 107.908 126.977ZM118.027 128.182C119.8 128.182 121.095 127.295 121.504 125.977L120.209 125.614C119.868 126.523 119.078 126.977 118.027 126.977C116.453 126.977 115.368 125.96 115.305 124.091H121.641V123.523C121.641 120.273 119.709 119.159 117.891 119.159C115.527 119.159 113.959 121.023 113.959 123.705C113.959 126.386 115.504 128.182 118.027 128.182ZM115.305 122.932C115.396 121.574 116.357 120.364 117.891 120.364C119.345 120.364 120.277 121.455 120.277 122.932H115.305ZM123.68 128H125.021V122.477C125.021 121.295 125.953 120.432 127.226 120.432C127.584 120.432 127.953 120.5 128.044 120.523V119.159C127.891 119.148 127.538 119.136 127.339 119.136C126.294 119.136 125.385 119.727 125.067 120.591H124.976V119.273H123.68V128ZM135.815 121.227C135.395 119.989 134.452 119.159 132.724 119.159C130.884 119.159 129.52 120.205 129.52 121.682C129.52 122.886 130.236 123.693 131.838 124.068L133.293 124.409C134.173 124.614 134.588 125.034 134.588 125.636C134.588 126.386 133.793 127 132.543 127C131.446 127 130.759 126.528 130.52 125.591L129.247 125.909C129.56 127.392 130.781 128.182 132.565 128.182C134.594 128.182 135.974 127.074 135.974 125.568C135.974 124.352 135.213 123.585 133.656 123.205L132.361 122.886C131.327 122.631 130.861 122.284 130.861 121.614C130.861 120.864 131.656 120.318 132.724 120.318C133.895 120.318 134.378 120.966 134.611 121.568L135.815 121.227ZM141.788 119.273H139.925V117.182H138.584V119.273H137.266V120.409H138.584V125.864C138.584 127.386 139.811 128.114 140.947 128.114C141.447 128.114 141.766 128.023 141.947 127.955L141.675 126.75C141.561 126.773 141.379 126.818 141.084 126.818C140.493 126.818 139.925 126.636 139.925 125.5V120.409H141.788V119.273ZM146.374 128.205C147.896 128.205 148.692 127.386 148.964 126.818H149.033V128H150.374V122.25C150.374 119.477 148.26 119.159 147.146 119.159C145.828 119.159 144.328 119.614 143.646 121.205L144.919 121.659C145.214 121.023 145.913 120.341 147.192 120.341C148.425 120.341 149.033 120.994 149.033 122.114V122.159C149.033 122.807 148.374 122.75 146.783 122.955C145.163 123.165 143.396 123.523 143.396 125.523C143.396 127.227 144.714 128.205 146.374 128.205ZM146.578 127C145.51 127 144.737 126.523 144.737 125.591C144.737 124.568 145.669 124.25 146.714 124.114C147.283 124.045 148.805 123.886 149.033 123.614V124.841C149.033 125.932 148.169 127 146.578 127ZM154.162 122.75C154.162 121.227 155.105 120.364 156.389 120.364C157.634 120.364 158.389 121.176 158.389 122.545V128H159.73V122.455C159.73 120.227 158.543 119.159 156.776 119.159C155.457 119.159 154.639 119.75 154.23 120.636H154.116V119.273H152.821V128H154.162V122.75ZM165.476 128.182C167.158 128.182 167.726 127.136 168.021 126.659H168.18V128H169.476V116.364H168.135V120.659H168.021C167.726 120.205 167.203 119.159 165.499 119.159C163.294 119.159 161.771 120.909 161.771 123.659C161.771 126.432 163.294 128.182 165.476 128.182ZM165.658 126.977C163.976 126.977 163.112 125.5 163.112 123.636C163.112 121.795 163.953 120.364 165.658 120.364C167.294 120.364 168.158 121.682 168.158 123.636C168.158 125.614 167.271 126.977 165.658 126.977ZM176.618 128H177.959V122.477C177.959 121.295 178.891 120.432 180.163 120.432C180.521 120.432 180.891 120.5 180.982 120.523V119.159C180.828 119.148 180.476 119.136 180.277 119.136C179.232 119.136 178.322 119.727 178.004 120.591H177.913V119.273H176.618V128ZM185.964 128.182C187.737 128.182 189.033 127.295 189.442 125.977L188.146 125.614C187.805 126.523 187.016 126.977 185.964 126.977C184.391 126.977 183.305 125.96 183.243 124.091H189.578V123.523C189.578 120.273 187.646 119.159 185.828 119.159C183.464 119.159 181.896 121.023 181.896 123.705C181.896 126.386 183.442 128.182 185.964 128.182ZM183.243 122.932C183.334 121.574 184.294 120.364 185.828 120.364C187.283 120.364 188.214 121.455 188.214 122.932H183.243ZM191.618 131.273H192.959V126.659H193.072C193.368 127.136 193.936 128.182 195.618 128.182C197.8 128.182 199.322 126.432 199.322 123.659C199.322 120.909 197.8 119.159 195.595 119.159C193.891 119.159 193.368 120.205 193.072 120.659H192.913V119.273H191.618V131.273ZM192.936 123.636C192.936 121.682 193.8 120.364 195.436 120.364C197.141 120.364 197.982 121.795 197.982 123.636C197.982 125.5 197.118 126.977 195.436 126.977C193.822 126.977 192.936 125.614 192.936 123.636ZM204.913 128.182C207.277 128.182 208.868 126.386 208.868 123.682C208.868 120.955 207.277 119.159 204.913 119.159C202.55 119.159 200.959 120.955 200.959 123.682C200.959 126.386 202.55 128.182 204.913 128.182ZM204.913 126.977C203.118 126.977 202.3 125.432 202.3 123.682C202.3 121.932 203.118 120.364 204.913 120.364C206.709 120.364 207.527 121.932 207.527 123.682C207.527 125.432 206.709 126.977 204.913 126.977ZM210.915 128H212.256V122.477C212.256 121.295 213.188 120.432 214.46 120.432C214.818 120.432 215.188 120.5 215.278 120.523V119.159C215.125 119.148 214.773 119.136 214.574 119.136C213.528 119.136 212.619 119.727 212.301 120.591H212.21V119.273H210.915V128ZM221.21 119.273H219.347V117.182H218.006V119.273H216.688V120.409H218.006V125.864C218.006 127.386 219.233 128.114 220.369 128.114C220.869 128.114 221.188 128.023 221.369 127.955L221.097 126.75C220.983 126.773 220.801 126.818 220.506 126.818C219.915 126.818 219.347 126.636 219.347 125.5V120.409H221.21V119.273ZM231.523 119.273H229.659V117.182H228.318V119.273H227V120.409H228.318V125.864C228.318 127.386 229.545 128.114 230.682 128.114C231.182 128.114 231.5 128.023 231.682 127.955L231.409 126.75C231.295 126.773 231.114 126.818 230.818 126.818C230.227 126.818 229.659 126.636 229.659 125.5V120.409H231.523V119.273ZM235.068 122.75C235.068 121.227 236.04 120.364 237.364 120.364C238.625 120.364 239.386 121.159 239.386 122.545V128H240.727V122.455C240.727 120.21 239.534 119.159 237.75 119.159C236.375 119.159 235.591 119.733 235.182 120.636H235.068V116.364H233.727V128H235.068V122.75ZM245.749 128.205C247.271 128.205 248.067 127.386 248.339 126.818H248.408V128H249.749V122.25C249.749 119.477 247.635 119.159 246.521 119.159C245.203 119.159 243.703 119.614 243.021 121.205L244.294 121.659C244.589 121.023 245.288 120.341 246.567 120.341C247.8 120.341 248.408 120.994 248.408 122.114V122.159C248.408 122.807 247.749 122.75 246.158 122.955C244.538 123.165 242.771 123.523 242.771 125.523C242.771 127.227 244.089 128.205 245.749 128.205ZM245.953 127C244.885 127 244.112 126.523 244.112 125.591C244.112 124.568 245.044 124.25 246.089 124.114C246.658 124.045 248.18 123.886 248.408 123.614V124.841C248.408 125.932 247.544 127 245.953 127ZM255.991 119.273H254.128V117.182H252.787V119.273H251.469V120.409H252.787V125.864C252.787 127.386 254.014 128.114 255.151 128.114C255.651 128.114 255.969 128.023 256.151 127.955L255.878 126.75C255.764 126.773 255.582 126.818 255.287 126.818C254.696 126.818 254.128 126.636 254.128 125.5V120.409H255.991V119.273ZM264.486 128H265.804L267.713 121.295H267.849L269.759 128H271.077L273.736 119.273H272.327L270.44 125.932H270.349L268.509 119.273H267.077L265.213 125.955H265.122L263.236 119.273H261.827L264.486 128ZM275.509 128H276.849V119.273H275.509V128ZM276.19 117.818C276.713 117.818 277.145 117.409 277.145 116.909C277.145 116.409 276.713 116 276.19 116C275.668 116 275.236 116.409 275.236 116.909C275.236 117.409 275.668 117.818 276.19 117.818ZM280.646 116.364H279.305V128H280.646V116.364ZM284.443 116.364H283.102V128H284.443V116.364ZM1.22727 152H2.56818V143.273H1.22727V152ZM1.90909 141.818C2.43182 141.818 2.86364 141.409 2.86364 140.909C2.86364 140.409 2.43182 140 1.90909 140C1.38636 140 0.954545 140.409 0.954545 140.909C0.954545 141.409 1.38636 141.818 1.90909 141.818ZM6.36506 146.75C6.36506 145.227 7.30824 144.364 8.59233 144.364C9.83665 144.364 10.5923 145.176 10.5923 146.545V152H11.9332V146.455C11.9332 144.227 10.7457 143.159 8.97869 143.159C7.66051 143.159 6.84233 143.75 6.43324 144.636H6.3196V143.273H5.02415V152H6.36506V146.75ZM18.2699 143.273H16.3153V142.386C16.3153 141.523 16.679 141.068 17.5653 141.068C17.9517 141.068 18.179 141.159 18.3153 141.205L18.7017 140.045C18.4972 139.955 18.0881 139.818 17.429 139.818C16.179 139.818 14.9744 140.568 14.9744 142.068V143.273H13.5653V144.409H14.9744V152H16.3153V144.409H18.2699V143.273ZM23.3352 152.182C25.6989 152.182 27.2898 150.386 27.2898 147.682C27.2898 144.955 25.6989 143.159 23.3352 143.159C20.9716 143.159 19.3807 144.955 19.3807 147.682C19.3807 150.386 20.9716 152.182 23.3352 152.182ZM23.3352 150.977C21.5398 150.977 20.7216 149.432 20.7216 147.682C20.7216 145.932 21.5398 144.364 23.3352 144.364C25.1307 144.364 25.9489 145.932 25.9489 147.682C25.9489 149.432 25.1307 150.977 23.3352 150.977ZM29.3366 152H30.6776V146.477C30.6776 145.295 31.6094 144.432 32.8821 144.432C33.2401 144.432 33.6094 144.5 33.7003 144.523V143.159C33.5469 143.148 33.1946 143.136 32.9957 143.136C31.9503 143.136 31.0412 143.727 30.723 144.591H30.6321V143.273H29.3366V152ZM35.2898 152H36.6307V146.545C36.6307 145.267 37.5625 144.364 38.608 144.364C39.625 144.364 40.3352 145.028 40.3352 146.023V152H41.6989V146.318C41.6989 145.193 42.4034 144.364 43.6307 144.364C44.5852 144.364 45.4034 144.869 45.4034 146.159V152H46.7443V146.159C46.7443 144.108 45.642 143.159 44.0852 143.159C42.8352 143.159 41.9205 143.733 41.4716 144.636H41.3807C40.9489 143.705 40.1875 143.159 39.0398 143.159C37.9034 143.159 37.0625 143.705 36.6989 144.636H36.5852V143.273H35.2898V152ZM54.5597 155.273C55.7699 155.273 56.6222 154.631 57.1278 153.273L60.8438 143.295L59.3778 143.273L56.9688 150.227H56.8778L54.4688 143.273H53.0142L56.2415 152.045L55.9915 152.727C55.5028 154.057 54.9006 154.182 53.9233 153.932L53.5824 155.114C53.7188 155.182 54.1051 155.273 54.5597 155.273ZM65.8509 152.182C68.2145 152.182 69.8054 150.386 69.8054 147.682C69.8054 144.955 68.2145 143.159 65.8509 143.159C63.4872 143.159 61.8963 144.955 61.8963 147.682C61.8963 150.386 63.4872 152.182 65.8509 152.182ZM65.8509 150.977C64.0554 150.977 63.2372 149.432 63.2372 147.682C63.2372 145.932 64.0554 144.364 65.8509 144.364C67.6463 144.364 68.4645 145.932 68.4645 147.682C68.4645 149.432 67.6463 150.977 65.8509 150.977ZM77.3523 148.432C77.3523 150.068 76.1023 150.818 75.1023 150.818C73.9886 150.818 73.1932 150 73.1932 148.727V143.273H71.8523V148.818C71.8523 151.045 73.0341 152.114 74.6705 152.114C75.9886 152.114 76.8523 151.409 77.2614 150.523H77.3523V152H78.6932V143.273H77.3523V148.432ZM89.1946 152.182C91.5582 152.182 93.1491 150.386 93.1491 147.682C93.1491 144.955 91.5582 143.159 89.1946 143.159C86.831 143.159 85.2401 144.955 85.2401 147.682C85.2401 150.386 86.831 152.182 89.1946 152.182ZM89.1946 150.977C87.3991 150.977 86.581 149.432 86.581 147.682C86.581 145.932 87.3991 144.364 89.1946 144.364C90.9901 144.364 91.8082 145.932 91.8082 147.682C91.8082 149.432 90.9901 150.977 89.1946 150.977ZM99.0824 143.273H97.1278V142.386C97.1278 141.523 97.4915 141.068 98.3778 141.068C98.7642 141.068 98.9915 141.159 99.1278 141.205L99.5142 140.045C99.3097 139.955 98.9006 139.818 98.2415 139.818C96.9915 139.818 95.7869 140.568 95.7869 142.068V143.273H94.3778V144.409H95.7869V152H97.1278V144.409H99.0824V143.273ZM109.121 152.182C110.893 152.182 112.189 151.295 112.598 149.977L111.303 149.614C110.962 150.523 110.172 150.977 109.121 150.977C107.547 150.977 106.462 149.96 106.399 148.091H112.734V147.523C112.734 144.273 110.803 143.159 108.984 143.159C106.621 143.159 105.053 145.023 105.053 147.705C105.053 150.386 106.598 152.182 109.121 152.182ZM106.399 146.932C106.49 145.574 107.45 144.364 108.984 144.364C110.439 144.364 111.371 145.455 111.371 146.932H106.399ZM115.54 143.273H113.994L116.767 147.636L113.994 152H115.54L117.631 148.614L119.722 152H121.267L118.449 147.636L121.267 143.273H119.722L117.631 146.841L115.54 143.273ZM125.749 152.205C127.271 152.205 128.067 151.386 128.339 150.818H128.408V152H129.749V146.25C129.749 143.477 127.635 143.159 126.521 143.159C125.203 143.159 123.703 143.614 123.021 145.205L124.294 145.659C124.589 145.023 125.288 144.341 126.567 144.341C127.8 144.341 128.408 144.994 128.408 146.114V146.159C128.408 146.807 127.749 146.75 126.158 146.955C124.538 147.165 122.771 147.523 122.771 149.523C122.771 151.227 124.089 152.205 125.749 152.205ZM125.953 151C124.885 151 124.112 150.523 124.112 149.591C124.112 148.568 125.044 148.25 126.089 148.114C126.658 148.045 128.18 147.886 128.408 147.614V148.841C128.408 149.932 127.544 151 125.953 151ZM135.741 152.182C137.673 152.182 138.946 151 139.173 149.455H137.832C137.582 150.409 136.787 150.977 135.741 150.977C134.151 150.977 133.128 149.659 133.128 147.636C133.128 145.659 134.173 144.364 135.741 144.364C136.923 144.364 137.628 145.091 137.832 145.886H139.173C138.946 144.25 137.56 143.159 135.719 143.159C133.355 143.159 131.787 145.023 131.787 147.682C131.787 150.295 133.287 152.182 135.741 152.182ZM144.929 143.273H143.065V141.182H141.724V143.273H140.406V144.409H141.724V149.864C141.724 151.386 142.952 152.114 144.088 152.114C144.588 152.114 144.906 152.023 145.088 151.955L144.815 150.75C144.702 150.773 144.52 150.818 144.224 150.818C143.634 150.818 143.065 150.636 143.065 149.5V144.409H144.929V143.273ZM148.474 140.364H147.134V152H148.474V140.364ZM151.794 155.273C153.004 155.273 153.857 154.631 154.362 153.273L158.078 143.295L156.612 143.273L154.203 150.227H154.112L151.703 143.273H150.249L153.476 152.045L153.226 152.727C152.737 154.057 152.135 154.182 151.158 153.932L150.817 155.114C150.953 155.182 151.339 155.273 151.794 155.273ZM166.33 152H167.648L169.557 145.295H169.693L171.602 152H172.92L175.58 143.273H174.17L172.284 149.932H172.193L170.352 143.273H168.92L167.057 149.955H166.966L165.08 143.273H163.67L166.33 152ZM178.693 146.75C178.693 145.227 179.665 144.364 180.989 144.364C182.25 144.364 183.011 145.159 183.011 146.545V152H184.352V146.455C184.352 144.21 183.159 143.159 181.375 143.159C180 143.159 179.216 143.733 178.807 144.636H178.693V140.364H177.352V152H178.693V146.75ZM189.374 152.205C190.896 152.205 191.692 151.386 191.964 150.818H192.033V152H193.374V146.25C193.374 143.477 191.26 143.159 190.146 143.159C188.828 143.159 187.328 143.614 186.646 145.205L187.919 145.659C188.214 145.023 188.913 144.341 190.192 144.341C191.425 144.341 192.033 144.994 192.033 146.114V146.159C192.033 146.807 191.374 146.75 189.783 146.955C188.163 147.165 186.396 147.523 186.396 149.523C186.396 151.227 187.714 152.205 189.374 152.205ZM189.578 151C188.51 151 187.737 150.523 187.737 149.591C187.737 148.568 188.669 148.25 189.714 148.114C190.283 148.045 191.805 147.886 192.033 147.614V148.841C192.033 149.932 191.169 151 189.578 151ZM199.616 143.273H197.753V141.182H196.412V143.273H195.094V144.409H196.412V149.864C196.412 151.386 197.639 152.114 198.776 152.114C199.276 152.114 199.594 152.023 199.776 151.955L199.503 150.75C199.389 150.773 199.207 150.818 198.912 150.818C198.321 150.818 197.753 150.636 197.753 149.5V144.409H199.616V143.273ZM206.134 152H207.474V146.477C207.474 145.295 208.406 144.432 209.679 144.432C210.037 144.432 210.406 144.5 210.497 144.523V143.159C210.344 143.148 209.991 143.136 209.793 143.136C208.747 143.136 207.838 143.727 207.52 144.591H207.429V143.273H206.134V152ZM212.087 152H213.428V143.273H212.087V152ZM212.768 141.818C213.291 141.818 213.723 141.409 213.723 140.909C213.723 140.409 213.291 140 212.768 140C212.246 140 211.814 140.409 211.814 140.909C211.814 141.409 212.246 141.818 212.768 141.818ZM222.065 145.227C221.645 143.989 220.702 143.159 218.974 143.159C217.134 143.159 215.77 144.205 215.77 145.682C215.77 146.886 216.486 147.693 218.088 148.068L219.543 148.409C220.423 148.614 220.838 149.034 220.838 149.636C220.838 150.386 220.043 151 218.793 151C217.696 151 217.009 150.528 216.77 149.591L215.497 149.909C215.81 151.392 217.031 152.182 218.815 152.182C220.844 152.182 222.224 151.074 222.224 149.568C222.224 148.352 221.463 147.585 219.906 147.205L218.611 146.886C217.577 146.631 217.111 146.284 217.111 145.614C217.111 144.864 217.906 144.318 218.974 144.318C220.145 144.318 220.628 144.966 220.861 145.568L222.065 145.227ZM224.243 152H225.584V148.733L226.521 147.864L229.788 152H231.493L227.533 147L231.22 143.273H229.561L225.743 147.159H225.584V140.364H224.243V152ZM239.128 145.227C238.707 143.989 237.764 143.159 236.037 143.159C234.196 143.159 232.832 144.205 232.832 145.682C232.832 146.886 233.548 147.693 235.151 148.068L236.605 148.409C237.486 148.614 237.901 149.034 237.901 149.636C237.901 150.386 237.105 151 235.855 151C234.759 151 234.071 150.528 233.832 149.591L232.56 149.909C232.872 151.392 234.094 152.182 235.878 152.182C237.906 152.182 239.287 151.074 239.287 149.568C239.287 148.352 238.526 147.585 236.969 147.205L235.673 146.886C234.639 146.631 234.173 146.284 234.173 145.614C234.173 144.864 234.969 144.318 236.037 144.318C237.207 144.318 237.69 144.966 237.923 145.568L239.128 145.227ZM246.669 155.273C247.879 155.273 248.732 154.631 249.237 153.273L252.953 143.295L251.487 143.273L249.078 150.227H248.987L246.578 143.273H245.124L248.351 152.045L248.101 152.727C247.612 154.057 247.01 154.182 246.033 153.932L245.692 155.114C245.828 155.182 246.214 155.273 246.669 155.273ZM257.96 152.182C260.324 152.182 261.915 150.386 261.915 147.682C261.915 144.955 260.324 143.159 257.96 143.159C255.597 143.159 254.006 144.955 254.006 147.682C254.006 150.386 255.597 152.182 257.96 152.182ZM257.96 150.977C256.165 150.977 255.347 149.432 255.347 147.682C255.347 145.932 256.165 144.364 257.96 144.364C259.756 144.364 260.574 145.932 260.574 147.682C260.574 149.432 259.756 150.977 257.96 150.977ZM269.462 148.432C269.462 150.068 268.212 150.818 267.212 150.818C266.098 150.818 265.303 150 265.303 148.727V143.273H263.962V148.818C263.962 151.045 265.143 152.114 266.78 152.114C268.098 152.114 268.962 151.409 269.371 150.523H269.462V152H270.803V143.273H269.462V148.432ZM273.259 152H274.599V146.477C274.599 145.295 275.531 144.432 276.804 144.432C277.162 144.432 277.531 144.5 277.622 144.523V143.159C277.469 143.148 277.116 143.136 276.918 143.136C275.872 143.136 274.963 143.727 274.645 144.591H274.554V143.273H273.259V152ZM1.22727 179.273H2.56818V174.659H2.68182C2.97727 175.136 3.54545 176.182 5.22727 176.182C7.40909 176.182 8.93182 174.432 8.93182 171.659C8.93182 168.909 7.40909 167.159 5.20455 167.159C3.5 167.159 2.97727 168.205 2.68182 168.659H2.52273V167.273H1.22727V179.273ZM2.54545 171.636C2.54545 169.682 3.40909 168.364 5.04545 168.364C6.75 168.364 7.59091 169.795 7.59091 171.636C7.59091 173.5 6.72727 174.977 5.04545 174.977C3.43182 174.977 2.54545 173.614 2.54545 171.636ZM10.9773 176H12.3182V170.477C12.3182 169.295 13.25 168.432 14.5227 168.432C14.8807 168.432 15.25 168.5 15.3409 168.523V167.159C15.1875 167.148 14.8352 167.136 14.6364 167.136C13.5909 167.136 12.6818 167.727 12.3636 168.591H12.2727V167.273H10.9773V176ZM20.2102 176.182C22.5739 176.182 24.1648 174.386 24.1648 171.682C24.1648 168.955 22.5739 167.159 20.2102 167.159C17.8466 167.159 16.2557 168.955 16.2557 171.682C16.2557 174.386 17.8466 176.182 20.2102 176.182ZM20.2102 174.977C18.4148 174.977 17.5966 173.432 17.5966 171.682C17.5966 169.932 18.4148 168.364 20.2102 168.364C22.0057 168.364 22.8239 169.932 22.8239 171.682C22.8239 173.432 22.0057 174.977 20.2102 174.977ZM26.2116 179.273H27.5526V174.659H27.6662C27.9616 175.136 28.5298 176.182 30.2116 176.182C32.3935 176.182 33.9162 174.432 33.9162 171.659C33.9162 168.909 32.3935 167.159 30.1889 167.159C28.4844 167.159 27.9616 168.205 27.6662 168.659H27.5071V167.273H26.2116V179.273ZM27.5298 171.636C27.5298 169.682 28.3935 168.364 30.0298 168.364C31.7344 168.364 32.5753 169.795 32.5753 171.636C32.5753 173.5 31.7116 174.977 30.0298 174.977C28.4162 174.977 27.5298 173.614 27.5298 171.636ZM39.6207 176.182C41.3935 176.182 42.6889 175.295 43.098 173.977L41.8026 173.614C41.4616 174.523 40.6719 174.977 39.6207 174.977C38.0469 174.977 36.9616 173.96 36.8991 172.091H43.2344V171.523C43.2344 168.273 41.3026 167.159 39.4844 167.159C37.1207 167.159 35.5526 169.023 35.5526 171.705C35.5526 174.386 37.098 176.182 39.6207 176.182ZM36.8991 170.932C36.9901 169.574 37.9503 168.364 39.4844 168.364C40.9389 168.364 41.8707 169.455 41.8707 170.932H36.8991ZM45.2741 176H46.6151V170.477C46.6151 169.295 47.5469 168.432 48.8196 168.432C49.1776 168.432 49.5469 168.5 49.6378 168.523V167.159C49.4844 167.148 49.1321 167.136 48.9332 167.136C47.8878 167.136 46.9787 167.727 46.6605 168.591H46.5696V167.273H45.2741V176ZM55.5696 167.273H53.706V165.182H52.3651V167.273H51.0469V168.409H52.3651V173.864C52.3651 175.386 53.5923 176.114 54.7287 176.114C55.2287 176.114 55.5469 176.023 55.7287 175.955L55.456 174.75C55.3423 174.773 55.1605 174.818 54.8651 174.818C54.2741 174.818 53.706 174.636 53.706 173.5V168.409H55.5696V167.273ZM58.4503 179.273C59.6605 179.273 60.5128 178.631 61.0185 177.273L64.7344 167.295L63.2685 167.273L60.8594 174.227H60.7685L58.3594 167.273H56.9048L60.1321 176.045L59.8821 176.727C59.3935 178.057 58.7912 178.182 57.8139 177.932L57.473 179.114C57.6094 179.182 57.9957 179.273 58.4503 179.273ZM71.0085 176H72.3494V167.273H71.0085V176ZM71.6903 165.818C72.2131 165.818 72.6449 165.409 72.6449 164.909C72.6449 164.409 72.2131 164 71.6903 164C71.1676 164 70.7358 164.409 70.7358 164.909C70.7358 165.409 71.1676 165.818 71.6903 165.818ZM80.9872 169.227C80.5668 167.989 79.6236 167.159 77.8963 167.159C76.0554 167.159 74.6918 168.205 74.6918 169.682C74.6918 170.886 75.4077 171.693 77.0099 172.068L78.4645 172.409C79.3452 172.614 79.7599 173.034 79.7599 173.636C79.7599 174.386 78.9645 175 77.7145 175C76.6179 175 75.9304 174.528 75.6918 173.591L74.419 173.909C74.7315 175.392 75.9531 176.182 77.7372 176.182C79.7656 176.182 81.1463 175.074 81.1463 173.568C81.1463 172.352 80.3849 171.585 78.8281 171.205L77.5327 170.886C76.4986 170.631 76.0327 170.284 76.0327 169.614C76.0327 168.864 76.8281 168.318 77.8963 168.318C79.0668 168.318 79.5497 168.966 79.7827 169.568L80.9872 169.227ZM91.3239 176.182C93.0966 176.182 94.392 175.295 94.8011 173.977L93.5057 173.614C93.1648 174.523 92.375 174.977 91.3239 174.977C89.75 174.977 88.6648 173.96 88.6023 172.091H94.9375V171.523C94.9375 168.273 93.0057 167.159 91.1875 167.159C88.8239 167.159 87.2557 169.023 87.2557 171.705C87.2557 174.386 88.8011 176.182 91.3239 176.182ZM88.6023 170.932C88.6932 169.574 89.6534 168.364 91.1875 168.364C92.642 168.364 93.5739 169.455 93.5739 170.932H88.6023ZM97.7429 167.273H96.1974L98.9702 171.636L96.1974 176H97.7429L99.8338 172.614L101.925 176H103.47L100.652 171.636L103.47 167.273H101.925L99.8338 170.841L97.7429 167.273ZM105.384 179.273H106.724V174.659H106.838C107.134 175.136 107.702 176.182 109.384 176.182C111.565 176.182 113.088 174.432 113.088 171.659C113.088 168.909 111.565 167.159 109.361 167.159C107.656 167.159 107.134 168.205 106.838 168.659H106.679V167.273H105.384V179.273ZM106.702 171.636C106.702 169.682 107.565 168.364 109.202 168.364C110.906 168.364 111.747 169.795 111.747 171.636C111.747 173.5 110.884 174.977 109.202 174.977C107.588 174.977 106.702 173.614 106.702 171.636ZM118.679 176.182C121.043 176.182 122.634 174.386 122.634 171.682C122.634 168.955 121.043 167.159 118.679 167.159C116.315 167.159 114.724 168.955 114.724 171.682C114.724 174.386 116.315 176.182 118.679 176.182ZM118.679 174.977C116.884 174.977 116.065 173.432 116.065 171.682C116.065 169.932 116.884 168.364 118.679 168.364C120.474 168.364 121.293 169.932 121.293 171.682C121.293 173.432 120.474 174.977 118.679 174.977ZM130.862 169.227C130.442 167.989 129.499 167.159 127.771 167.159C125.93 167.159 124.567 168.205 124.567 169.682C124.567 170.886 125.283 171.693 126.885 172.068L128.339 172.409C129.22 172.614 129.635 173.034 129.635 173.636C129.635 174.386 128.839 175 127.589 175C126.493 175 125.805 174.528 125.567 173.591L124.294 173.909C124.607 175.392 125.828 176.182 127.612 176.182C129.641 176.182 131.021 175.074 131.021 173.568C131.021 172.352 130.26 171.585 128.703 171.205L127.408 170.886C126.374 170.631 125.908 170.284 125.908 169.614C125.908 168.864 126.703 168.318 127.771 168.318C128.942 168.318 129.425 168.966 129.658 169.568L130.862 169.227ZM136.699 176.182C138.472 176.182 139.767 175.295 140.176 173.977L138.881 173.614C138.54 174.523 137.75 174.977 136.699 174.977C135.125 174.977 134.04 173.96 133.977 172.091H140.312V171.523C140.312 168.273 138.381 167.159 136.562 167.159C134.199 167.159 132.631 169.023 132.631 171.705C132.631 174.386 134.176 176.182 136.699 176.182ZM133.977 170.932C134.068 169.574 135.028 168.364 136.562 168.364C138.017 168.364 138.949 169.455 138.949 170.932H133.977ZM145.648 176.182C147.33 176.182 147.898 175.136 148.193 174.659H148.352V176H149.648V164.364H148.307V168.659H148.193C147.898 168.205 147.375 167.159 145.67 167.159C143.466 167.159 141.943 168.909 141.943 171.659C141.943 174.432 143.466 176.182 145.648 176.182ZM145.83 174.977C144.148 174.977 143.284 173.5 143.284 171.636C143.284 169.795 144.125 168.364 145.83 168.364C147.466 168.364 148.33 169.682 148.33 171.636C148.33 173.614 147.443 174.977 145.83 174.977ZM160.585 167.273H158.722V165.182H157.381V167.273H156.062V168.409H157.381V173.864C157.381 175.386 158.608 176.114 159.744 176.114C160.244 176.114 160.562 176.023 160.744 175.955L160.472 174.75C160.358 174.773 160.176 174.818 159.881 174.818C159.29 174.818 158.722 174.636 158.722 173.5V168.409H160.585V167.273ZM166.054 176.182C168.418 176.182 170.009 174.386 170.009 171.682C170.009 168.955 168.418 167.159 166.054 167.159C163.69 167.159 162.099 168.955 162.099 171.682C162.099 174.386 163.69 176.182 166.054 176.182ZM166.054 174.977C164.259 174.977 163.44 173.432 163.44 171.682C163.44 169.932 164.259 168.364 166.054 168.364C167.849 168.364 168.668 169.932 168.668 171.682C168.668 173.432 167.849 174.977 166.054 174.977ZM173.033 176.091C173.595 176.091 174.055 175.631 174.055 175.068C174.055 174.506 173.595 174.045 173.033 174.045C172.47 174.045 172.01 174.506 172.01 175.068C172.01 175.631 172.47 176.091 173.033 176.091Z" fill="#4F4F4F"/>
<path opacity="0.2" fill-rule="evenodd" clip-rule="evenodd" d="M0.614416 43.1715L21.4551 2.99086C22.4262 1.1123 24.2941 0 26.4693 0C28.648 0 30.516 1.1123 31.487 2.99086L52.3277 43.1715C53.2246 44.8982 53.1363 46.7944 52.0841 48.4329C51.0318 50.0748 49.3121 51 47.31 51H5.62861C3.62999 51 1.91034 50.0748 0.858063 48.4329C-0.194211 46.7944 -0.282489 44.8982 0.614416 43.1715Z" fill="#5C5CE5"/>
<path d="M27.8355 42.3484H26.6561C25.7451 42.3484 25 41.575 25 40.6322V39.7777C25 38.8314 25.7451 38.0616 26.6561 38.0616H27.8355C28.7501 38.0616 29.4951 38.8314 29.4951 39.7777V40.6322C29.4951 41.575 28.7501 42.3484 27.8355 42.3484Z" fill="#5C5CE5"/>
<path d="M27.5 17C25.5 16.998 25 18.5804 25 19.2901V33.7395C25 34.4457 25.5579 35.0283 26.243 35.0283H28.2522C28.9372 35.0283 29.4951 34.4457 29.4951 33.7395V19.2901C29.4951 18.5804 29 17 27.5 17Z" fill="#5C5CE5"/>
</svg>
