<svg width="341" height="206" viewBox="0 0 341 206" fill="none" xmlns="http://www.w3.org/2000/svg">
<path d="M1.29119 95H3.66264V91.1009L5.11364 89.3878L9.01918 95H11.87L6.76278 87.7834L11.8253 81.9091H8.92969L3.82244 87.924H3.66264V81.9091H1.29119V95ZM15.6845 89.2472C15.6845 87.8281 16.541 87.0099 17.7619 87.0099C18.9572 87.0099 19.6731 87.7962 19.6731 89.1065V95H21.987V88.7486C21.9934 86.3963 20.6511 85.054 18.6248 85.054C17.1547 85.054 16.1447 85.7571 15.6973 86.8501H15.5822V85.1818H13.3706V95H15.6845V89.2472ZM28.622 95.1918C31.4984 95.1918 33.3265 93.1655 33.3265 90.1293C33.3265 87.0866 31.4984 85.054 28.622 85.054C25.7456 85.054 23.9174 87.0866 23.9174 90.1293C23.9174 93.1655 25.7456 95.1918 28.622 95.1918ZM28.6348 93.3381C27.0431 93.3381 26.2633 91.919 26.2633 90.1229C26.2633 88.3267 27.0431 86.8885 28.6348 86.8885C30.2008 86.8885 30.9806 88.3267 30.9806 90.1229C30.9806 91.919 30.2008 93.3381 28.6348 93.3381ZM37.0531 95H39.4693L41.3102 88.3651H41.4444L43.2853 95H45.6951L48.4757 85.1818H46.1106L44.4103 92.0469H44.3145L42.5502 85.1818H40.2172L38.4529 92.0852H38.3635L36.6376 85.1818H34.2789L37.0531 95ZM56.5824 95H58.9986L60.8395 88.3651H60.9737L62.8146 95H65.2244L68.005 85.1818H65.6399L63.9396 92.0469H63.8438L62.0795 85.1818H59.7464L57.9822 92.0852H57.8928L56.1669 85.1818H53.8082L56.5824 95ZM71.9345 89.2472C71.9345 87.8281 72.8166 87.0099 74.0566 87.0099C75.2711 87.0099 75.987 87.7834 75.987 89.1065V95H78.301V88.7486C78.301 86.3771 76.9586 85.054 74.9196 85.054C73.411 85.054 72.4522 85.7379 71.9984 86.8501H71.8833V81.9091H69.6206V95H71.9345V89.2472ZM83.4849 95.1982C85.0254 95.1982 85.9458 94.4759 86.3677 93.6513H86.4444V95H88.6689V88.429C88.6689 85.8338 86.5531 85.054 84.6802 85.054C82.6156 85.054 81.0304 85.9744 80.519 87.7642L82.6795 88.071C82.9096 87.3999 83.5616 86.8246 84.693 86.8246C85.7669 86.8246 86.3549 87.3743 86.3549 88.3395V88.3778C86.3549 89.0426 85.6582 89.0746 83.926 89.2599C82.0211 89.4645 80.1994 90.0334 80.1994 92.245C80.1994 94.1754 81.612 95.1982 83.4849 95.1982ZM84.0858 93.4979C83.1206 93.4979 82.4302 93.0568 82.4302 92.2067C82.4302 91.3182 83.2037 90.9474 84.2392 90.8004C84.8464 90.7173 86.0609 90.5639 86.3613 90.321V91.478C86.3613 92.571 85.4792 93.4979 84.0858 93.4979ZM95.8983 85.1818H93.9615V82.8295H91.6475V85.1818H90.2541V86.9716H91.6475V92.4304C91.6348 94.2777 92.9771 95.1854 94.7157 95.1342C95.3741 95.1151 95.8279 94.9872 96.0772 94.9041L95.6873 93.0952C95.5595 93.1271 95.2974 93.1847 95.0098 93.1847C94.4281 93.1847 93.9615 92.9801 93.9615 92.0469V86.9716H95.8983V85.1818ZM107.201 85.1818H105.264V82.8295H102.95V85.1818H101.557V86.9716H102.95V92.4304C102.938 94.2777 104.28 95.1854 106.018 95.1342C106.677 95.1151 107.131 94.9872 107.38 94.9041L106.99 93.0952C106.862 93.1271 106.6 93.1847 106.312 93.1847C105.731 93.1847 105.264 92.9801 105.264 92.0469V86.9716H107.201V85.1818ZM111.661 89.2472C111.661 87.8281 112.543 87.0099 113.783 87.0099C114.998 87.0099 115.714 87.7834 115.714 89.1065V95H118.028V88.7486C118.028 86.3771 116.685 85.054 114.646 85.054C113.138 85.054 112.179 85.7379 111.725 86.8501H111.61V81.9091H109.347V95H111.661V89.2472ZM124.733 95.1918C127.021 95.1918 128.594 94.0732 129.003 92.3665L126.842 92.1236C126.529 92.9545 125.762 93.3892 124.765 93.3892C123.269 93.3892 122.278 92.4048 122.259 90.7237H129.099V90.0142C129.099 86.5689 127.028 85.054 124.611 85.054C121.799 85.054 119.964 87.1186 119.964 90.1484C119.964 93.2294 121.773 95.1918 124.733 95.1918ZM122.265 89.1641C122.336 87.9112 123.263 86.8565 124.643 86.8565C125.973 86.8565 126.868 87.8281 126.881 89.1641H122.265ZM135.521 95H137.835V89.228C137.835 87.9815 138.775 87.0994 140.047 87.0994C140.436 87.0994 140.922 87.1697 141.12 87.2337V85.1051C140.909 85.0668 140.545 85.0412 140.289 85.0412C139.164 85.0412 138.225 85.6804 137.867 86.8182H137.765V85.1818H135.521V95ZM142.658 95H144.972V85.1818H142.658V95ZM143.821 83.7884C144.556 83.7884 145.157 83.2259 145.157 82.5355C145.157 81.8388 144.556 81.2763 143.821 81.2763C143.08 81.2763 142.479 81.8388 142.479 82.5355C142.479 83.2259 143.08 83.7884 143.821 83.7884ZM155.111 87.777C154.791 86.1151 153.462 85.054 151.161 85.054C148.796 85.054 147.185 86.2173 147.191 88.0327C147.185 89.4645 148.067 90.4105 149.953 90.8004L151.627 91.152C152.529 91.3501 152.95 91.7145 152.95 92.2706C152.95 92.9418 152.222 93.4467 151.122 93.4467C150.061 93.4467 149.371 92.9865 149.173 92.1044L146.916 92.3217C147.204 94.1243 148.719 95.1918 151.129 95.1918C153.583 95.1918 155.316 93.9197 155.322 92.0597C155.316 90.6598 154.414 89.8033 152.561 89.4006L150.886 89.0426C149.889 88.8189 149.492 88.4737 149.499 87.9048C149.492 87.2401 150.227 86.7798 151.193 86.7798C152.26 86.7798 152.823 87.3615 153.002 88.0071L155.111 87.777ZM157.23 95H159.544V91.7017L160.388 90.8004L163.392 95H166.16L162.133 89.4197L165.936 85.1818H163.232L159.704 89.1257H159.544V81.9091H157.23V95ZM175.238 87.777C174.918 86.1151 173.589 85.054 171.288 85.054C168.923 85.054 167.312 86.2173 167.318 88.0327C167.312 89.4645 168.194 90.4105 170.08 90.8004L171.754 91.152C172.656 91.3501 173.077 91.7145 173.077 92.2706C173.077 92.9418 172.349 93.4467 171.249 93.4467C170.188 93.4467 169.498 92.9865 169.3 92.1044L167.043 92.3217C167.331 94.1243 168.846 95.1918 171.256 95.1918C173.71 95.1918 175.442 93.9197 175.449 92.0597C175.442 90.6598 174.541 89.8033 172.688 89.4006L171.013 89.0426C170.016 88.8189 169.619 88.4737 169.626 87.9048C169.619 87.2401 170.354 86.7798 171.32 86.7798C172.387 86.7798 172.95 87.3615 173.129 88.0071L175.238 87.777ZM181.822 95H184.136V89.0298C184.136 87.8217 184.941 87.0036 185.938 87.0036C186.916 87.0036 187.587 87.6619 187.587 88.6719V95H189.857V88.8764C189.857 87.7706 190.515 87.0036 191.634 87.0036C192.567 87.0036 193.308 87.5533 193.308 88.7678V95H195.629V88.4098C195.629 86.2173 194.363 85.054 192.56 85.054C191.135 85.054 190.048 85.7571 189.614 86.8501H189.511C189.134 85.7379 188.182 85.054 186.859 85.054C185.542 85.054 184.558 85.7315 184.148 86.8501H184.033V85.1818H181.822V95ZM202.323 95.1918C204.611 95.1918 206.183 94.0732 206.593 92.3665L204.432 92.1236C204.119 92.9545 203.352 93.3892 202.355 93.3892C200.859 93.3892 199.868 92.4048 199.849 90.7237H206.688V90.0142C206.688 86.5689 204.617 85.054 202.201 85.054C199.389 85.054 197.554 87.1186 197.554 90.1484C197.554 93.2294 199.363 95.1918 202.323 95.1918ZM199.855 89.1641C199.926 87.9112 200.852 86.8565 202.233 86.8565C203.563 86.8565 204.458 87.8281 204.47 89.1641H199.855ZM211.471 95.1982C213.012 95.1982 213.932 94.4759 214.354 93.6513H214.431V95H216.655V88.429C216.655 85.8338 214.539 85.054 212.667 85.054C210.602 85.054 209.017 85.9744 208.505 87.7642L210.666 88.071C210.896 87.3999 211.548 86.8246 212.679 86.8246C213.753 86.8246 214.341 87.3743 214.341 88.3395V88.3778C214.341 89.0426 213.645 89.0746 211.912 89.2599C210.007 89.4645 208.186 90.0334 208.186 92.245C208.186 94.1754 209.598 95.1982 211.471 95.1982ZM212.072 93.4979C211.107 93.4979 210.417 93.0568 210.417 92.2067C210.417 91.3182 211.19 90.9474 212.225 90.8004C212.833 90.7173 214.047 90.5639 214.348 90.321V91.478C214.348 92.571 213.466 93.4979 212.072 93.4979ZM221.296 89.2472C221.296 87.8281 222.152 87.0099 223.373 87.0099C224.569 87.0099 225.284 87.7962 225.284 89.1065V95H227.598V88.7486C227.605 86.3963 226.262 85.054 224.236 85.054C222.766 85.054 221.756 85.7571 221.309 86.8501H221.194V85.1818H218.982V95H221.296V89.2472Z" fill="#151147"/>
<path d="M10.6364 116.364H9.25V125.523H9.13636L2.77273 116.364H1.40909V128H2.81818V118.864H2.93182L9.27273 128H10.6364V116.364ZM16.8196 128.182C19.1832 128.182 20.7741 126.386 20.7741 123.682C20.7741 120.955 19.1832 119.159 16.8196 119.159C14.456 119.159 12.8651 120.955 12.8651 123.682C12.8651 126.386 14.456 128.182 16.8196 128.182ZM16.8196 126.977C15.0241 126.977 14.206 125.432 14.206 123.682C14.206 121.932 15.0241 120.364 16.8196 120.364C18.6151 120.364 19.4332 121.932 19.4332 123.682C19.4332 125.432 18.6151 126.977 16.8196 126.977ZM26.6165 119.273H24.7528V117.182H23.4119V119.273H22.0938V120.409H23.4119V125.864C23.4119 127.386 24.6392 128.114 25.7756 128.114C26.2756 128.114 26.5938 128.023 26.7756 127.955L26.5028 126.75C26.3892 126.773 26.2074 126.818 25.9119 126.818C25.321 126.818 24.7528 126.636 24.7528 125.5V120.409H26.6165V119.273ZM35.7017 128.205C37.2244 128.205 38.0199 127.386 38.2926 126.818H38.3608V128H39.7017V122.25C39.7017 119.477 37.5881 119.159 36.4744 119.159C35.1562 119.159 33.6562 119.614 32.9744 121.205L34.2472 121.659C34.5426 121.023 35.2415 120.341 36.5199 120.341C37.7528 120.341 38.3608 120.994 38.3608 122.114V122.159C38.3608 122.807 37.7017 122.75 36.1108 122.955C34.4915 123.165 32.7244 123.523 32.7244 125.523C32.7244 127.227 34.0426 128.205 35.7017 128.205ZM35.9062 127C34.8381 127 34.0653 126.523 34.0653 125.591C34.0653 124.568 34.9972 124.25 36.0426 124.114C36.6108 124.045 38.1335 123.886 38.3608 123.614V124.841C38.3608 125.932 37.4972 127 35.9062 127ZM43.4901 116.364H42.1491V128H43.4901V116.364ZM47.2869 116.364H45.946V128H47.2869V116.364ZM54.2429 128H55.5838V122.477C55.5838 121.295 56.5156 120.432 57.7884 120.432C58.1463 120.432 58.5156 120.5 58.6065 120.523V119.159C58.4531 119.148 58.1009 119.136 57.902 119.136C56.8565 119.136 55.9474 119.727 55.6293 120.591H55.5384V119.273H54.2429V128ZM60.196 128H61.5369V119.273H60.196V128ZM60.8778 117.818C61.4006 117.818 61.8324 117.409 61.8324 116.909C61.8324 116.409 61.4006 116 60.8778 116C60.3551 116 59.9233 116.409 59.9233 116.909C59.9233 117.409 60.3551 117.818 60.8778 117.818ZM70.1747 121.227C69.7543 119.989 68.8111 119.159 67.0838 119.159C65.2429 119.159 63.8793 120.205 63.8793 121.682C63.8793 122.886 64.5952 123.693 66.1974 124.068L67.652 124.409C68.5327 124.614 68.9474 125.034 68.9474 125.636C68.9474 126.386 68.152 127 66.902 127C65.8054 127 65.1179 126.528 64.8793 125.591L63.6065 125.909C63.919 127.392 65.1406 128.182 66.9247 128.182C68.9531 128.182 70.3338 127.074 70.3338 125.568C70.3338 124.352 69.5724 123.585 68.0156 123.205L66.7202 122.886C65.6861 122.631 65.2202 122.284 65.2202 121.614C65.2202 120.864 66.0156 120.318 67.0838 120.318C68.2543 120.318 68.7372 120.966 68.9702 121.568L70.1747 121.227ZM72.3523 128H73.6932V124.733L74.6307 123.864L77.8977 128H79.6023L75.642 123L79.3295 119.273H77.6705L73.8523 123.159H73.6932V116.364H72.3523V128ZM87.2372 121.227C86.8168 119.989 85.8736 119.159 84.1463 119.159C82.3054 119.159 80.9418 120.205 80.9418 121.682C80.9418 122.886 81.6577 123.693 83.2599 124.068L84.7145 124.409C85.5952 124.614 86.0099 125.034 86.0099 125.636C86.0099 126.386 85.2145 127 83.9645 127C82.8679 127 82.1804 126.528 81.9418 125.591L80.669 125.909C80.9815 127.392 82.2031 128.182 83.9872 128.182C86.0156 128.182 87.3963 127.074 87.3963 125.568C87.3963 124.352 86.6349 123.585 85.0781 123.205L83.7827 122.886C82.7486 122.631 82.2827 122.284 82.2827 121.614C82.2827 120.864 83.0781 120.318 84.1463 120.318C85.3168 120.318 85.7997 120.966 86.0327 121.568L87.2372 121.227ZM96.483 128.205C98.0057 128.205 98.8011 127.386 99.0739 126.818H99.142V128H100.483V122.25C100.483 119.477 98.3693 119.159 97.2557 119.159C95.9375 119.159 94.4375 119.614 93.7557 121.205L95.0284 121.659C95.3239 121.023 96.0227 120.341 97.3011 120.341C98.5341 120.341 99.142 120.994 99.142 122.114V122.159C99.142 122.807 98.483 122.75 96.892 122.955C95.2727 123.165 93.5057 123.523 93.5057 125.523C93.5057 127.227 94.8239 128.205 96.483 128.205ZM96.6875 127C95.6193 127 94.8466 126.523 94.8466 125.591C94.8466 124.568 95.7784 124.25 96.8239 124.114C97.392 124.045 98.9148 123.886 99.142 123.614V124.841C99.142 125.932 98.2784 127 96.6875 127ZM102.93 128H104.271V122.477C104.271 121.295 105.203 120.432 106.476 120.432C106.834 120.432 107.203 120.5 107.294 120.523V119.159C107.141 119.148 106.788 119.136 106.589 119.136C105.544 119.136 104.635 119.727 104.317 120.591H104.226V119.273H102.93V128ZM112.277 128.182C114.05 128.182 115.345 127.295 115.754 125.977L114.459 125.614C114.118 126.523 113.328 126.977 112.277 126.977C110.703 126.977 109.618 125.96 109.555 124.091H115.891V123.523C115.891 120.273 113.959 119.159 112.141 119.159C109.777 119.159 108.209 121.023 108.209 123.705C108.209 126.386 109.754 128.182 112.277 128.182ZM109.555 122.932C109.646 121.574 110.607 120.364 112.141 120.364C113.595 120.364 114.527 121.455 114.527 122.932H109.555ZM122.43 128H123.771V122.545C123.771 121.267 124.703 120.364 125.749 120.364C126.766 120.364 127.476 121.028 127.476 122.023V128H128.839V122.318C128.839 121.193 129.544 120.364 130.771 120.364C131.726 120.364 132.544 120.869 132.544 122.159V128H133.885V122.159C133.885 120.108 132.783 119.159 131.226 119.159C129.976 119.159 129.061 119.733 128.612 120.636H128.521C128.089 119.705 127.328 119.159 126.18 119.159C125.044 119.159 124.203 119.705 123.839 120.636H123.726V119.273H122.43V128ZM138.905 128.205C140.428 128.205 141.223 127.386 141.496 126.818H141.564V128H142.905V122.25C142.905 119.477 140.791 119.159 139.678 119.159C138.359 119.159 136.859 119.614 136.178 121.205L137.45 121.659C137.746 121.023 138.445 120.341 139.723 120.341C140.956 120.341 141.564 120.994 141.564 122.114V122.159C141.564 122.807 140.905 122.75 139.314 122.955C137.695 123.165 135.928 123.523 135.928 125.523C135.928 127.227 137.246 128.205 138.905 128.205ZM139.109 127C138.041 127 137.268 126.523 137.268 125.591C137.268 124.568 138.2 124.25 139.246 124.114C139.814 124.045 141.337 123.886 141.564 123.614V124.841C141.564 125.932 140.7 127 139.109 127ZM148.648 128.182C150.33 128.182 150.898 127.136 151.193 126.659H151.352V128H152.648V116.364H151.307V120.659H151.193C150.898 120.205 150.375 119.159 148.67 119.159C146.466 119.159 144.943 120.909 144.943 123.659C144.943 126.432 146.466 128.182 148.648 128.182ZM148.83 126.977C147.148 126.977 146.284 125.5 146.284 123.636C146.284 121.795 147.125 120.364 148.83 120.364C150.466 120.364 151.33 121.682 151.33 123.636C151.33 125.614 150.443 126.977 148.83 126.977ZM158.949 128.182C160.722 128.182 162.017 127.295 162.426 125.977L161.131 125.614C160.79 126.523 160 126.977 158.949 126.977C157.375 126.977 156.29 125.96 156.227 124.091H162.562V123.523C162.562 120.273 160.631 119.159 158.812 119.159C156.449 119.159 154.881 121.023 154.881 123.705C154.881 126.386 156.426 128.182 158.949 128.182ZM156.227 122.932C156.318 121.574 157.278 120.364 158.812 120.364C160.267 120.364 161.199 121.455 161.199 122.932H156.227ZM172.761 128.182C174.534 128.182 175.83 127.295 176.239 125.977L174.943 125.614C174.602 126.523 173.812 126.977 172.761 126.977C171.188 126.977 170.102 125.96 170.04 124.091H176.375V123.523C176.375 120.273 174.443 119.159 172.625 119.159C170.261 119.159 168.693 121.023 168.693 123.705C168.693 126.386 170.239 128.182 172.761 128.182ZM170.04 122.932C170.131 121.574 171.091 120.364 172.625 120.364C174.08 120.364 175.011 121.455 175.011 122.932H170.04ZM185.71 131.273V119.273H184.415V120.659H184.256C183.96 120.205 183.438 119.159 181.733 119.159C179.528 119.159 178.006 120.909 178.006 123.659C178.006 126.432 179.528 128.182 181.71 128.182C183.392 128.182 183.96 127.136 184.256 126.659H184.369V131.273H185.71ZM184.392 123.636C184.392 125.614 183.506 126.977 181.892 126.977C180.21 126.977 179.347 125.5 179.347 123.636C179.347 121.795 180.188 120.364 181.892 120.364C183.528 120.364 184.392 121.682 184.392 123.636ZM193.665 124.432C193.665 126.068 192.415 126.818 191.415 126.818C190.301 126.818 189.506 126 189.506 124.727V119.273H188.165V124.818C188.165 127.045 189.347 128.114 190.983 128.114C192.301 128.114 193.165 127.409 193.574 126.523H193.665V128H195.006V119.273H193.665V124.432ZM200.03 128.205C201.553 128.205 202.348 127.386 202.621 126.818H202.689V128H204.03V122.25C204.03 119.477 201.916 119.159 200.803 119.159C199.484 119.159 197.984 119.614 197.303 121.205L198.575 121.659C198.871 121.023 199.57 120.341 200.848 120.341C202.081 120.341 202.689 120.994 202.689 122.114V122.159C202.689 122.807 202.03 122.75 200.439 122.955C198.82 123.165 197.053 123.523 197.053 125.523C197.053 127.227 198.371 128.205 200.03 128.205ZM200.234 127C199.166 127 198.393 126.523 198.393 125.591C198.393 124.568 199.325 124.25 200.371 124.114C200.939 124.045 202.462 123.886 202.689 123.614V124.841C202.689 125.932 201.825 127 200.234 127ZM207.818 116.364H206.477V128H207.818V116.364ZM211.251 128.091C211.814 128.091 212.274 127.631 212.274 127.068C212.274 126.506 211.814 126.045 211.251 126.045C210.689 126.045 210.229 126.506 210.229 127.068C210.229 127.631 210.689 128.091 211.251 128.091ZM226.999 116.364V123.955C226.999 125.659 225.828 126.886 223.885 126.886C221.942 126.886 220.771 125.659 220.771 123.955V116.364H219.362V124.068C219.362 126.455 221.146 128.205 223.885 128.205C226.624 128.205 228.408 126.455 228.408 124.068V116.364H226.999ZM232.381 122.75C232.381 121.227 233.324 120.364 234.608 120.364C235.852 120.364 236.608 121.176 236.608 122.545V128H237.949V122.455C237.949 120.227 236.761 119.159 234.994 119.159C233.676 119.159 232.858 119.75 232.449 120.636H232.335V119.273H231.04V128H232.381V122.75ZM243.695 128.182C245.376 128.182 245.945 127.136 246.24 126.659H246.399V128H247.695V116.364H246.354V120.659H246.24C245.945 120.205 245.422 119.159 243.717 119.159C241.513 119.159 239.99 120.909 239.99 123.659C239.99 126.432 241.513 128.182 243.695 128.182ZM243.876 126.977C242.195 126.977 241.331 125.5 241.331 123.636C241.331 121.795 242.172 120.364 243.876 120.364C245.513 120.364 246.376 121.682 246.376 123.636C246.376 125.614 245.49 126.977 243.876 126.977ZM253.996 128.182C255.768 128.182 257.064 127.295 257.473 125.977L256.178 125.614C255.837 126.523 255.047 126.977 253.996 126.977C252.422 126.977 251.337 125.96 251.274 124.091H257.609V123.523C257.609 120.273 255.678 119.159 253.859 119.159C251.496 119.159 249.928 121.023 249.928 123.705C249.928 126.386 251.473 128.182 253.996 128.182ZM251.274 122.932C251.365 121.574 252.325 120.364 253.859 120.364C255.314 120.364 256.246 121.455 256.246 122.932H251.274ZM259.649 128H260.99V122.477C260.99 121.295 261.922 120.432 263.195 120.432C263.553 120.432 263.922 120.5 264.013 120.523V119.159C263.859 119.148 263.507 119.136 263.308 119.136C262.263 119.136 261.354 119.727 261.036 120.591H260.945V119.273H259.649V128ZM271.784 121.227C271.364 119.989 270.42 119.159 268.693 119.159C266.852 119.159 265.489 120.205 265.489 121.682C265.489 122.886 266.205 123.693 267.807 124.068L269.261 124.409C270.142 124.614 270.557 125.034 270.557 125.636C270.557 126.386 269.761 127 268.511 127C267.415 127 266.727 126.528 266.489 125.591L265.216 125.909C265.528 127.392 266.75 128.182 268.534 128.182C270.562 128.182 271.943 127.074 271.943 125.568C271.943 124.352 271.182 123.585 269.625 123.205L268.33 122.886C267.295 122.631 266.83 122.284 266.83 121.614C266.83 120.864 267.625 120.318 268.693 120.318C269.864 120.318 270.347 120.966 270.58 121.568L271.784 121.227ZM277.757 119.273H275.893V117.182H274.553V119.273H273.234V120.409H274.553V125.864C274.553 127.386 275.78 128.114 276.916 128.114C277.416 128.114 277.734 128.023 277.916 127.955L277.643 126.75C277.53 126.773 277.348 126.818 277.053 126.818C276.462 126.818 275.893 126.636 275.893 125.5V120.409H277.757V119.273ZM282.342 128.205C283.865 128.205 284.661 127.386 284.933 126.818H285.001V128H286.342V122.25C286.342 119.477 284.229 119.159 283.115 119.159C281.797 119.159 280.297 119.614 279.615 121.205L280.888 121.659C281.183 121.023 281.882 120.341 283.161 120.341C284.393 120.341 285.001 120.994 285.001 122.114V122.159C285.001 122.807 284.342 122.75 282.751 122.955C281.132 123.165 279.365 123.523 279.365 125.523C279.365 127.227 280.683 128.205 282.342 128.205ZM282.547 127C281.479 127 280.706 126.523 280.706 125.591C280.706 124.568 281.638 124.25 282.683 124.114C283.251 124.045 284.774 123.886 285.001 123.614V124.841C285.001 125.932 284.138 127 282.547 127ZM290.131 122.75C290.131 121.227 291.074 120.364 292.358 120.364C293.602 120.364 294.358 121.176 294.358 122.545V128H295.699V122.455C295.699 120.227 294.511 119.159 292.744 119.159C291.426 119.159 290.608 119.75 290.199 120.636H290.085V119.273H288.79V128H290.131V122.75ZM301.445 128.182C303.126 128.182 303.695 127.136 303.99 126.659H304.149V128H305.445V116.364H304.104V120.659H303.99C303.695 120.205 303.172 119.159 301.467 119.159C299.263 119.159 297.74 120.909 297.74 123.659C297.74 126.432 299.263 128.182 301.445 128.182ZM301.626 126.977C299.945 126.977 299.081 125.5 299.081 123.636C299.081 121.795 299.922 120.364 301.626 120.364C303.263 120.364 304.126 121.682 304.126 123.636C304.126 125.614 303.24 126.977 301.626 126.977ZM2.09091 155.273C3.30114 155.273 4.15341 154.631 4.65909 153.273L8.375 143.295L6.90909 143.273L4.5 150.227H4.40909L2 143.273H0.545455L3.77273 152.045L3.52273 152.727C3.03409 154.057 2.43182 154.182 1.45455 153.932L1.11364 155.114C1.25 155.182 1.63636 155.273 2.09091 155.273ZM13.3821 152.182C15.7457 152.182 17.3366 150.386 17.3366 147.682C17.3366 144.955 15.7457 143.159 13.3821 143.159C11.0185 143.159 9.42756 144.955 9.42756 147.682C9.42756 150.386 11.0185 152.182 13.3821 152.182ZM13.3821 150.977C11.5866 150.977 10.7685 149.432 10.7685 147.682C10.7685 145.932 11.5866 144.364 13.3821 144.364C15.1776 144.364 15.9957 145.932 15.9957 147.682C15.9957 149.432 15.1776 150.977 13.3821 150.977ZM24.8835 148.432C24.8835 150.068 23.6335 150.818 22.6335 150.818C21.5199 150.818 20.7244 150 20.7244 148.727V143.273H19.3835V148.818C19.3835 151.045 20.5653 152.114 22.2017 152.114C23.5199 152.114 24.3835 151.409 24.7926 150.523H24.8835V152H26.2244V143.273H24.8835V148.432ZM28.6804 152H30.0213V146.477C30.0213 145.295 30.9531 144.432 32.2259 144.432C32.5838 144.432 32.9531 144.5 33.044 144.523V143.159C32.8906 143.148 32.5384 143.136 32.3395 143.136C31.294 143.136 30.3849 143.727 30.0668 144.591H29.9759V143.273H28.6804V152ZM39.1335 155.273H40.4744V150.659H40.5881C40.8835 151.136 41.4517 152.182 43.1335 152.182C45.3153 152.182 46.8381 150.432 46.8381 147.659C46.8381 144.909 45.3153 143.159 43.1108 143.159C41.4062 143.159 40.8835 144.205 40.5881 144.659H40.429V143.273H39.1335V155.273ZM40.4517 147.636C40.4517 145.682 41.3153 144.364 42.9517 144.364C44.6562 144.364 45.4972 145.795 45.4972 147.636C45.4972 149.5 44.6335 150.977 42.9517 150.977C41.3381 150.977 40.4517 149.614 40.4517 147.636ZM48.8835 152H50.2244V146.477C50.2244 145.295 51.1562 144.432 52.429 144.432C52.7869 144.432 53.1562 144.5 53.2472 144.523V143.159C53.0938 143.148 52.7415 143.136 52.5426 143.136C51.4972 143.136 50.5881 143.727 50.2699 144.591H50.179V143.273H48.8835V152ZM58.1165 152.182C60.4801 152.182 62.071 150.386 62.071 147.682C62.071 144.955 60.4801 143.159 58.1165 143.159C55.7528 143.159 54.1619 144.955 54.1619 147.682C54.1619 150.386 55.7528 152.182 58.1165 152.182ZM58.1165 150.977C56.321 150.977 55.5028 149.432 55.5028 147.682C55.5028 145.932 56.321 144.364 58.1165 144.364C59.9119 144.364 60.7301 145.932 60.7301 147.682C60.7301 149.432 59.9119 150.977 58.1165 150.977ZM64.1179 155.273H65.4588V150.659H65.5724C65.8679 151.136 66.4361 152.182 68.1179 152.182C70.2997 152.182 71.8224 150.432 71.8224 147.659C71.8224 144.909 70.2997 143.159 68.0952 143.159C66.3906 143.159 65.8679 144.205 65.5724 144.659H65.4134V143.273H64.1179V155.273ZM65.4361 147.636C65.4361 145.682 66.2997 144.364 67.9361 144.364C69.6406 144.364 70.4815 145.795 70.4815 147.636C70.4815 149.5 69.6179 150.977 67.9361 150.977C66.3224 150.977 65.4361 149.614 65.4361 147.636ZM77.527 152.182C79.2997 152.182 80.5952 151.295 81.0043 149.977L79.7088 149.614C79.3679 150.523 78.5781 150.977 77.527 150.977C75.9531 150.977 74.8679 149.96 74.8054 148.091H81.1406V147.523C81.1406 144.273 79.2088 143.159 77.3906 143.159C75.027 143.159 73.4588 145.023 73.4588 147.705C73.4588 150.386 75.0043 152.182 77.527 152.182ZM74.8054 146.932C74.8963 145.574 75.8565 144.364 77.3906 144.364C78.8452 144.364 79.777 145.455 79.777 146.932H74.8054ZM83.1804 152H84.5213V146.477C84.5213 145.295 85.4531 144.432 86.7259 144.432C87.0838 144.432 87.4531 144.5 87.544 144.523V143.159C87.3906 143.148 87.0384 143.136 86.8395 143.136C85.794 143.136 84.8849 143.727 84.5668 144.591H84.4759V143.273H83.1804V152ZM93.4759 143.273H91.6122V141.182H90.2713V143.273H88.9531V144.409H90.2713V149.864C90.2713 151.386 91.4986 152.114 92.6349 152.114C93.1349 152.114 93.4531 152.023 93.6349 151.955L93.3622 150.75C93.2486 150.773 93.0668 150.818 92.7713 150.818C92.1804 150.818 91.6122 150.636 91.6122 149.5V144.409H93.4759V143.273ZM96.3565 155.273C97.5668 155.273 98.419 154.631 98.9247 153.273L102.641 143.295L101.175 143.273L98.7656 150.227H98.6747L96.2656 143.273H94.8111L98.0384 152.045L97.7884 152.727C97.2997 154.057 96.6974 154.182 95.7202 153.932L95.3793 155.114C95.5156 155.182 95.902 155.273 96.3565 155.273ZM108.915 152H110.256V146.477C110.256 145.295 111.188 144.432 112.46 144.432C112.818 144.432 113.188 144.5 113.278 144.523V143.159C113.125 143.148 112.773 143.136 112.574 143.136C111.528 143.136 110.619 143.727 110.301 144.591H110.21V143.273H108.915V152ZM114.868 152H116.209V143.273H114.868V152ZM115.55 141.818C116.072 141.818 116.504 141.409 116.504 140.909C116.504 140.409 116.072 140 115.55 140C115.027 140 114.595 140.409 114.595 140.909C114.595 141.409 115.027 141.818 115.55 141.818ZM124.847 145.227C124.426 143.989 123.483 143.159 121.756 143.159C119.915 143.159 118.551 144.205 118.551 145.682C118.551 146.886 119.267 147.693 120.869 148.068L122.324 148.409C123.205 148.614 123.619 149.034 123.619 149.636C123.619 150.386 122.824 151 121.574 151C120.477 151 119.79 150.528 119.551 149.591L118.278 149.909C118.591 151.392 119.812 152.182 121.597 152.182C123.625 152.182 125.006 151.074 125.006 149.568C125.006 148.352 124.244 147.585 122.688 147.205L121.392 146.886C120.358 146.631 119.892 146.284 119.892 145.614C119.892 144.864 120.688 144.318 121.756 144.318C122.926 144.318 123.409 144.966 123.642 145.568L124.847 145.227ZM127.024 152H128.365V148.733L129.303 147.864L132.57 152H134.274L130.314 147L134.001 143.273H132.342L128.524 147.159H128.365V140.364H127.024V152ZM140.227 155.273H141.568V150.659H141.682C141.977 151.136 142.545 152.182 144.227 152.182C146.409 152.182 147.932 150.432 147.932 147.659C147.932 144.909 146.409 143.159 144.205 143.159C142.5 143.159 141.977 144.205 141.682 144.659H141.523V143.273H140.227V155.273ZM141.545 147.636C141.545 145.682 142.409 144.364 144.045 144.364C145.75 144.364 146.591 145.795 146.591 147.636C146.591 149.5 145.727 150.977 144.045 150.977C142.432 150.977 141.545 149.614 141.545 147.636ZM149.977 152H151.318V146.477C151.318 145.295 152.25 144.432 153.523 144.432C153.881 144.432 154.25 144.5 154.341 144.523V143.159C154.188 143.148 153.835 143.136 153.636 143.136C152.591 143.136 151.682 143.727 151.364 144.591H151.273V143.273H149.977V152ZM159.21 152.182C161.574 152.182 163.165 150.386 163.165 147.682C163.165 144.955 161.574 143.159 159.21 143.159C156.847 143.159 155.256 144.955 155.256 147.682C155.256 150.386 156.847 152.182 159.21 152.182ZM159.21 150.977C157.415 150.977 156.597 149.432 156.597 147.682C156.597 145.932 157.415 144.364 159.21 144.364C161.006 144.364 161.824 145.932 161.824 147.682C161.824 149.432 161.006 150.977 159.21 150.977ZM169.098 143.273H167.143V142.386C167.143 141.523 167.507 141.068 168.393 141.068C168.78 141.068 169.007 141.159 169.143 141.205L169.53 140.045C169.325 139.955 168.916 139.818 168.257 139.818C167.007 139.818 165.803 140.568 165.803 142.068V143.273H164.393V144.409H165.803V152H167.143V144.409H169.098V143.273ZM170.977 152H172.318V143.273H170.977V152ZM171.659 141.818C172.182 141.818 172.614 141.409 172.614 140.909C172.614 140.409 172.182 140 171.659 140C171.136 140 170.705 140.409 170.705 140.909C170.705 141.409 171.136 141.818 171.659 141.818ZM176.115 140.364H174.774V152H176.115V140.364ZM182.23 152.182C184.003 152.182 185.298 151.295 185.707 149.977L184.412 149.614C184.071 150.523 183.281 150.977 182.23 150.977C180.656 150.977 179.571 149.96 179.509 148.091H185.844V147.523C185.844 144.273 183.912 143.159 182.094 143.159C179.73 143.159 178.162 145.023 178.162 147.705C178.162 150.386 179.707 152.182 182.23 152.182ZM179.509 146.932C179.599 145.574 180.56 144.364 182.094 144.364C183.548 144.364 184.48 145.455 184.48 146.932H179.509ZM194.361 152H195.679L197.588 145.295H197.724L199.634 152H200.952L203.611 143.273H202.202L200.315 149.932H200.224L198.384 143.273H196.952L195.088 149.955H194.997L193.111 143.273H191.702L194.361 152ZM205.384 152H206.724V143.273H205.384V152ZM206.065 141.818C206.588 141.818 207.02 141.409 207.02 140.909C207.02 140.409 206.588 140 206.065 140C205.543 140 205.111 140.409 205.111 140.909C205.111 141.409 205.543 141.818 206.065 141.818ZM212.976 143.273H211.112V141.182H209.771V143.273H208.453V144.409H209.771V149.864C209.771 151.386 210.999 152.114 212.135 152.114C212.635 152.114 212.953 152.023 213.135 151.955L212.862 150.75C212.749 150.773 212.567 150.818 212.271 150.818C211.68 150.818 211.112 150.636 211.112 149.5V144.409H212.976V143.273ZM216.521 146.75C216.521 145.227 217.493 144.364 218.817 144.364C220.078 144.364 220.839 145.159 220.839 146.545V152H222.18V146.455C222.18 144.21 220.987 143.159 219.203 143.159C217.828 143.159 217.044 143.733 216.635 144.636H216.521V140.364H215.18V152H216.521V146.75ZM232.679 152.182C234.611 152.182 235.884 151 236.111 149.455H234.77C234.52 150.409 233.724 150.977 232.679 150.977C231.088 150.977 230.065 149.659 230.065 147.636C230.065 145.659 231.111 144.364 232.679 144.364C233.861 144.364 234.565 145.091 234.77 145.886H236.111C235.884 144.25 234.497 143.159 232.656 143.159C230.293 143.159 228.724 145.023 228.724 147.682C228.724 150.295 230.224 152.182 232.679 152.182ZM239.412 140.364H238.071V152H239.412V140.364ZM245.527 152.182C247.3 152.182 248.595 151.295 249.004 149.977L247.709 149.614C247.368 150.523 246.578 150.977 245.527 150.977C243.953 150.977 242.868 149.96 242.805 148.091H249.141V147.523C249.141 144.273 247.209 143.159 245.391 143.159C243.027 143.159 241.459 145.023 241.459 147.705C241.459 150.386 243.004 152.182 245.527 152.182ZM242.805 146.932C242.896 145.574 243.857 144.364 245.391 144.364C246.845 144.364 247.777 145.455 247.777 146.932H242.805ZM253.749 152.205C255.271 152.205 256.067 151.386 256.339 150.818H256.408V152H257.749V146.25C257.749 143.477 255.635 143.159 254.521 143.159C253.203 143.159 251.703 143.614 251.021 145.205L252.294 145.659C252.589 145.023 253.288 144.341 254.567 144.341C255.8 144.341 256.408 144.994 256.408 146.114V146.159C256.408 146.807 255.749 146.75 254.158 146.955C252.538 147.165 250.771 147.523 250.771 149.523C250.771 151.227 252.089 152.205 253.749 152.205ZM253.953 151C252.885 151 252.112 150.523 252.112 149.591C252.112 148.568 253.044 148.25 254.089 148.114C254.658 148.045 256.18 147.886 256.408 147.614V148.841C256.408 149.932 255.544 151 253.953 151ZM260.196 152H261.537V146.477C261.537 145.295 262.469 144.432 263.741 144.432C264.099 144.432 264.469 144.5 264.56 144.523V143.159C264.406 143.148 264.054 143.136 263.855 143.136C262.81 143.136 261.901 143.727 261.582 144.591H261.491V143.273H260.196V152ZM4.52273 176.182C6.20455 176.182 6.77273 175.136 7.06818 174.659H7.22727V176H8.52273V164.364H7.18182V168.659H7.06818C6.77273 168.205 6.25 167.159 4.54545 167.159C2.34091 167.159 0.818182 168.909 0.818182 171.659C0.818182 174.432 2.34091 176.182 4.52273 176.182ZM4.70455 174.977C3.02273 174.977 2.15909 173.5 2.15909 171.636C2.15909 169.795 3 168.364 4.70455 168.364C6.34091 168.364 7.20455 169.682 7.20455 171.636C7.20455 173.614 6.31818 174.977 4.70455 174.977ZM14.8239 176.182C16.5966 176.182 17.892 175.295 18.3011 173.977L17.0057 173.614C16.6648 174.523 15.875 174.977 14.8239 174.977C13.25 174.977 12.1648 173.96 12.1023 172.091H18.4375V171.523C18.4375 168.273 16.5057 167.159 14.6875 167.159C12.3239 167.159 10.7557 169.023 10.7557 171.705C10.7557 174.386 12.3011 176.182 14.8239 176.182ZM12.1023 170.932C12.1932 169.574 13.1534 168.364 14.6875 168.364C16.142 168.364 17.0739 169.455 17.0739 170.932H12.1023ZM26.6591 169.227C26.2386 167.989 25.2955 167.159 23.5682 167.159C21.7273 167.159 20.3636 168.205 20.3636 169.682C20.3636 170.886 21.0795 171.693 22.6818 172.068L24.1364 172.409C25.017 172.614 25.4318 173.034 25.4318 173.636C25.4318 174.386 24.6364 175 23.3864 175C22.2898 175 21.6023 174.528 21.3636 173.591L20.0909 173.909C20.4034 175.392 21.625 176.182 23.4091 176.182C25.4375 176.182 26.8182 175.074 26.8182 173.568C26.8182 172.352 26.0568 171.585 24.5 171.205L23.2045 170.886C22.1705 170.631 21.7045 170.284 21.7045 169.614C21.7045 168.864 22.5 168.318 23.5682 168.318C24.7386 168.318 25.2216 168.966 25.4545 169.568L26.6591 169.227ZM32.3821 176.182C34.3139 176.182 35.5866 175 35.8139 173.455H34.473C34.223 174.409 33.4276 174.977 32.3821 174.977C30.7912 174.977 29.7685 173.659 29.7685 171.636C29.7685 169.659 30.8139 168.364 32.3821 168.364C33.5639 168.364 34.2685 169.091 34.473 169.886H35.8139C35.5866 168.25 34.2003 167.159 32.3594 167.159C29.9957 167.159 28.4276 169.023 28.4276 171.682C28.4276 174.295 29.9276 176.182 32.3821 176.182ZM37.7741 176H39.1151V170.477C39.1151 169.295 40.0469 168.432 41.3196 168.432C41.6776 168.432 42.0469 168.5 42.1378 168.523V167.159C41.9844 167.148 41.6321 167.136 41.4332 167.136C40.3878 167.136 39.4787 167.727 39.1605 168.591H39.0696V167.273H37.7741V176ZM43.7273 176H45.0682V167.273H43.7273V176ZM44.4091 165.818C44.9318 165.818 45.3636 165.409 45.3636 164.909C45.3636 164.409 44.9318 164 44.4091 164C43.8864 164 43.4545 164.409 43.4545 164.909C43.4545 165.409 43.8864 165.818 44.4091 165.818ZM47.5241 179.273H48.8651V174.659H48.9787C49.2741 175.136 49.8423 176.182 51.5241 176.182C53.706 176.182 55.2287 174.432 55.2287 171.659C55.2287 168.909 53.706 167.159 51.5014 167.159C49.7969 167.159 49.2741 168.205 48.9787 168.659H48.8196V167.273H47.5241V179.273ZM48.8423 171.636C48.8423 169.682 49.706 168.364 51.3423 168.364C53.0469 168.364 53.8878 169.795 53.8878 171.636C53.8878 173.5 53.0241 174.977 51.3423 174.977C49.7287 174.977 48.8423 173.614 48.8423 171.636ZM61.0696 167.273H59.206V165.182H57.8651V167.273H56.5469V168.409H57.8651V173.864C57.8651 175.386 59.0923 176.114 60.2287 176.114C60.7287 176.114 61.0469 176.023 61.2287 175.955L60.956 174.75C60.8423 174.773 60.6605 174.818 60.3651 174.818C59.7741 174.818 59.206 174.636 59.206 173.5V168.409H61.0696V167.273ZM63.0866 176H64.4276V167.273H63.0866V176ZM63.7685 165.818C64.2912 165.818 64.723 165.409 64.723 164.909C64.723 164.409 64.2912 164 63.7685 164C63.2457 164 62.8139 164.409 62.8139 164.909C62.8139 165.409 63.2457 165.818 63.7685 165.818ZM70.429 176.182C72.7926 176.182 74.3835 174.386 74.3835 171.682C74.3835 168.955 72.7926 167.159 70.429 167.159C68.0653 167.159 66.4744 168.955 66.4744 171.682C66.4744 174.386 68.0653 176.182 70.429 176.182ZM70.429 174.977C68.6335 174.977 67.8153 173.432 67.8153 171.682C67.8153 169.932 68.6335 168.364 70.429 168.364C72.2244 168.364 73.0426 169.932 73.0426 171.682C73.0426 173.432 72.2244 174.977 70.429 174.977ZM77.7713 170.75C77.7713 169.227 78.7145 168.364 79.9986 168.364C81.2429 168.364 81.9986 169.176 81.9986 170.545V176H83.3395V170.455C83.3395 168.227 82.152 167.159 80.3849 167.159C79.0668 167.159 78.2486 167.75 77.8395 168.636H77.7259V167.273H76.4304V176H77.7713V170.75ZM91.9716 169.227C91.5511 167.989 90.608 167.159 88.8807 167.159C87.0398 167.159 85.6761 168.205 85.6761 169.682C85.6761 170.886 86.392 171.693 87.9943 172.068L89.4489 172.409C90.3295 172.614 90.7443 173.034 90.7443 173.636C90.7443 174.386 89.9489 175 88.6989 175C87.6023 175 86.9148 174.528 86.6761 173.591L85.4034 173.909C85.7159 175.392 86.9375 176.182 88.7216 176.182C90.75 176.182 92.1307 175.074 92.1307 173.568C92.1307 172.352 91.3693 171.585 89.8125 171.205L88.517 170.886C87.483 170.631 87.017 170.284 87.017 169.614C87.017 168.864 87.8125 168.318 88.8807 168.318C90.0511 168.318 90.5341 168.966 90.767 169.568L91.9716 169.227ZM102.445 167.273H100.581V165.182H99.2401V167.273H97.9219V168.409H99.2401V173.864C99.2401 175.386 100.467 176.114 101.604 176.114C102.104 176.114 102.422 176.023 102.604 175.955L102.331 174.75C102.217 174.773 102.036 174.818 101.74 174.818C101.149 174.818 100.581 174.636 100.581 173.5V168.409H102.445V167.273ZM105.99 170.75C105.99 169.227 106.962 168.364 108.286 168.364C109.547 168.364 110.308 169.159 110.308 170.545V176H111.649V170.455C111.649 168.21 110.456 167.159 108.672 167.159C107.297 167.159 106.513 167.733 106.104 168.636H105.99V164.364H104.649V176H105.99V170.75ZM116.67 176.205C118.193 176.205 118.989 175.386 119.261 174.818H119.33V176H120.67V170.25C120.67 167.477 118.557 167.159 117.443 167.159C116.125 167.159 114.625 167.614 113.943 169.205L115.216 169.659C115.511 169.023 116.21 168.341 117.489 168.341C118.722 168.341 119.33 168.994 119.33 170.114V170.159C119.33 170.807 118.67 170.75 117.08 170.955C115.46 171.165 113.693 171.523 113.693 173.523C113.693 175.227 115.011 176.205 116.67 176.205ZM116.875 175C115.807 175 115.034 174.523 115.034 173.591C115.034 172.568 115.966 172.25 117.011 172.114C117.58 172.045 119.102 171.886 119.33 171.614V172.841C119.33 173.932 118.466 175 116.875 175ZM126.913 167.273H125.05V165.182H123.709V167.273H122.391V168.409H123.709V173.864C123.709 175.386 124.936 176.114 126.072 176.114C126.572 176.114 126.891 176.023 127.072 175.955L126.8 174.75C126.686 174.773 126.504 174.818 126.209 174.818C125.618 174.818 125.05 174.636 125.05 173.5V168.409H126.913V167.273ZM133.43 179.273H134.771V174.659H134.885C135.18 175.136 135.749 176.182 137.43 176.182C139.612 176.182 141.135 174.432 141.135 171.659C141.135 168.909 139.612 167.159 137.408 167.159C135.703 167.159 135.18 168.205 134.885 168.659H134.726V167.273H133.43V179.273ZM134.749 171.636C134.749 169.682 135.612 168.364 137.249 168.364C138.953 168.364 139.794 169.795 139.794 171.636C139.794 173.5 138.93 174.977 137.249 174.977C135.635 174.977 134.749 173.614 134.749 171.636ZM148.68 172.432C148.68 174.068 147.43 174.818 146.43 174.818C145.317 174.818 144.521 174 144.521 172.727V167.273H143.18V172.818C143.18 175.045 144.362 176.114 145.999 176.114C147.317 176.114 148.18 175.409 148.589 174.523H148.68V176H150.021V167.273H148.68V172.432ZM156.273 167.273H154.409V165.182H153.068V167.273H151.75V168.409H153.068V173.864C153.068 175.386 154.295 176.114 155.432 176.114C155.932 176.114 156.25 176.023 156.432 175.955L156.159 174.75C156.045 174.773 155.864 174.818 155.568 174.818C154.977 174.818 154.409 174.636 154.409 173.5V168.409H156.273V167.273ZM166.585 167.273H164.722V165.182H163.381V167.273H162.062V168.409H163.381V173.864C163.381 175.386 164.608 176.114 165.744 176.114C166.244 176.114 166.562 176.023 166.744 175.955L166.472 174.75C166.358 174.773 166.176 174.818 165.881 174.818C165.29 174.818 164.722 174.636 164.722 173.5V168.409H166.585V167.273ZM170.131 170.75C170.131 169.227 171.102 168.364 172.426 168.364C173.688 168.364 174.449 169.159 174.449 170.545V176H175.79V170.455C175.79 168.21 174.597 167.159 172.812 167.159C171.438 167.159 170.653 167.733 170.244 168.636H170.131V164.364H168.79V176H170.131V170.75ZM178.243 176H179.584V167.273H178.243V176ZM178.925 165.818C179.447 165.818 179.879 165.409 179.879 164.909C179.879 164.409 179.447 164 178.925 164C178.402 164 177.97 164.409 177.97 164.909C177.97 165.409 178.402 165.818 178.925 165.818ZM183.381 170.75C183.381 169.227 184.324 168.364 185.608 168.364C186.852 168.364 187.608 169.176 187.608 170.545V176H188.949V170.455C188.949 168.227 187.761 167.159 185.994 167.159C184.676 167.159 183.858 167.75 183.449 168.636H183.335V167.273H182.04V176H183.381V170.75ZM194.922 179.455C197.013 179.455 198.695 178.5 198.695 176.25V167.273H197.399V168.659H197.263C196.967 168.205 196.422 167.159 194.717 167.159C192.513 167.159 190.99 168.909 190.99 171.591C190.99 174.318 192.581 175.864 194.695 175.864C196.399 175.864 196.945 174.864 197.24 174.386H197.354V176.159C197.354 177.614 196.331 178.273 194.922 178.273C193.337 178.273 192.78 177.438 192.422 176.955L191.354 177.705C191.899 178.619 192.973 179.455 194.922 179.455ZM194.876 174.659C193.195 174.659 192.331 173.386 192.331 171.568C192.331 169.795 193.172 168.364 194.876 168.364C196.513 168.364 197.376 169.682 197.376 171.568C197.376 173.5 196.49 174.659 194.876 174.659ZM207.331 169.227C206.911 167.989 205.967 167.159 204.24 167.159C202.399 167.159 201.036 168.205 201.036 169.682C201.036 170.886 201.751 171.693 203.354 172.068L204.808 172.409C205.689 172.614 206.104 173.034 206.104 173.636C206.104 174.386 205.308 175 204.058 175C202.962 175 202.274 174.528 202.036 173.591L200.763 173.909C201.075 175.392 202.297 176.182 204.081 176.182C206.109 176.182 207.49 175.074 207.49 173.568C207.49 172.352 206.729 171.585 205.172 171.205L203.876 170.886C202.842 170.631 202.376 170.284 202.376 169.614C202.376 168.864 203.172 168.318 204.24 168.318C205.411 168.318 205.893 168.966 206.126 169.568L207.331 169.227ZM214.009 176H215.349V167.273H214.009V176ZM214.69 165.818C215.213 165.818 215.645 165.409 215.645 164.909C215.645 164.409 215.213 164 214.69 164C214.168 164 213.736 164.409 213.736 164.909C213.736 165.409 214.168 165.818 214.69 165.818ZM219.146 170.75C219.146 169.227 220.089 168.364 221.374 168.364C222.618 168.364 223.374 169.176 223.374 170.545V176H224.714V170.455C224.714 168.227 223.527 167.159 221.76 167.159C220.442 167.159 219.624 167.75 219.214 168.636H219.101V167.273H217.805V176H219.146V170.75ZM235.21 176.182C237.142 176.182 238.415 175 238.642 173.455H237.301C237.051 174.409 236.256 174.977 235.21 174.977C233.619 174.977 232.597 173.659 232.597 171.636C232.597 169.659 233.642 168.364 235.21 168.364C236.392 168.364 237.097 169.091 237.301 169.886H238.642C238.415 168.25 237.028 167.159 235.188 167.159C232.824 167.159 231.256 169.023 231.256 171.682C231.256 174.295 232.756 176.182 235.21 176.182ZM244.148 176.182C246.511 176.182 248.102 174.386 248.102 171.682C248.102 168.955 246.511 167.159 244.148 167.159C241.784 167.159 240.193 168.955 240.193 171.682C240.193 174.386 241.784 176.182 244.148 176.182ZM244.148 174.977C242.352 174.977 241.534 173.432 241.534 171.682C241.534 169.932 242.352 168.364 244.148 168.364C245.943 168.364 246.761 169.932 246.761 171.682C246.761 173.432 245.943 174.977 244.148 174.977ZM251.49 170.75C251.49 169.227 252.433 168.364 253.717 168.364C254.962 168.364 255.717 169.176 255.717 170.545V176H257.058V170.455C257.058 168.227 255.871 167.159 254.104 167.159C252.786 167.159 251.967 167.75 251.558 168.636H251.445V167.273H250.149V176H251.49V170.75ZM263.304 167.273H261.44V165.182H260.099V167.273H258.781V168.409H260.099V173.864C260.099 175.386 261.327 176.114 262.463 176.114C262.963 176.114 263.281 176.023 263.463 175.955L263.19 174.75C263.077 174.773 262.895 174.818 262.599 174.818C262.009 174.818 261.44 174.636 261.44 173.5V168.409H263.304V167.273ZM268.886 176.182C270.659 176.182 271.955 175.295 272.364 173.977L271.068 173.614C270.727 174.523 269.938 174.977 268.886 174.977C267.312 174.977 266.227 173.96 266.165 172.091H272.5V171.523C272.5 168.273 270.568 167.159 268.75 167.159C266.386 167.159 264.818 169.023 264.818 171.705C264.818 174.386 266.364 176.182 268.886 176.182ZM266.165 170.932C266.256 169.574 267.216 168.364 268.75 168.364C270.205 168.364 271.136 169.455 271.136 170.932H266.165ZM275.305 167.273H273.76L276.533 171.636L273.76 176H275.305L277.396 172.614L279.487 176H281.033L278.214 171.636L281.033 167.273H279.487L277.396 170.841L275.305 167.273ZM286.741 167.273H284.878V165.182H283.537V167.273H282.219V168.409H283.537V173.864C283.537 175.386 284.764 176.114 285.901 176.114C286.401 176.114 286.719 176.023 286.901 175.955L286.628 174.75C286.514 174.773 286.332 174.818 286.037 174.818C285.446 174.818 284.878 174.636 284.878 173.5V168.409H286.741V167.273ZM295.827 176.205C297.349 176.205 298.145 175.386 298.418 174.818H298.486V176H299.827V170.25C299.827 167.477 297.713 167.159 296.599 167.159C295.281 167.159 293.781 167.614 293.099 169.205L294.372 169.659C294.668 169.023 295.366 168.341 296.645 168.341C297.878 168.341 298.486 168.994 298.486 170.114V170.159C298.486 170.807 297.827 170.75 296.236 170.955C294.616 171.165 292.849 171.523 292.849 173.523C292.849 175.227 294.168 176.205 295.827 176.205ZM296.031 175C294.963 175 294.19 174.523 294.19 173.591C294.19 172.568 295.122 172.25 296.168 172.114C296.736 172.045 298.259 171.886 298.486 171.614V172.841C298.486 173.932 297.622 175 296.031 175ZM303.615 170.75C303.615 169.227 304.558 168.364 305.842 168.364C307.087 168.364 307.842 169.176 307.842 170.545V176H309.183V170.455C309.183 168.227 307.996 167.159 306.229 167.159C304.911 167.159 304.092 167.75 303.683 168.636H303.57V167.273H302.274V176H303.615V170.75ZM314.929 176.182C316.611 176.182 317.179 175.136 317.474 174.659H317.634V176H318.929V164.364H317.588V168.659H317.474C317.179 168.205 316.656 167.159 314.952 167.159C312.747 167.159 311.224 168.909 311.224 171.659C311.224 174.432 312.747 176.182 314.929 176.182ZM315.111 174.977C313.429 174.977 312.565 173.5 312.565 171.636C312.565 169.795 313.406 168.364 315.111 168.364C316.747 168.364 317.611 169.682 317.611 171.636C317.611 173.614 316.724 174.977 315.111 174.977ZM1.22727 203.273H2.56818V198.659H2.68182C2.97727 199.136 3.54545 200.182 5.22727 200.182C7.40909 200.182 8.93182 198.432 8.93182 195.659C8.93182 192.909 7.40909 191.159 5.20455 191.159C3.5 191.159 2.97727 192.205 2.68182 192.659H2.52273V191.273H1.22727V203.273ZM2.54545 195.636C2.54545 193.682 3.40909 192.364 5.04545 192.364C6.75 192.364 7.59091 193.795 7.59091 195.636C7.59091 197.5 6.72727 198.977 5.04545 198.977C3.43182 198.977 2.54545 197.614 2.54545 195.636ZM10.9773 200H12.3182V194.477C12.3182 193.295 13.25 192.432 14.5227 192.432C14.8807 192.432 15.25 192.5 15.3409 192.523V191.159C15.1875 191.148 14.8352 191.136 14.6364 191.136C13.5909 191.136 12.6818 191.727 12.3636 192.591H12.2727V191.273H10.9773V200ZM20.2102 200.182C22.5739 200.182 24.1648 198.386 24.1648 195.682C24.1648 192.955 22.5739 191.159 20.2102 191.159C17.8466 191.159 16.2557 192.955 16.2557 195.682C16.2557 198.386 17.8466 200.182 20.2102 200.182ZM20.2102 198.977C18.4148 198.977 17.5966 197.432 17.5966 195.682C17.5966 193.932 18.4148 192.364 20.2102 192.364C22.0057 192.364 22.8239 193.932 22.8239 195.682C22.8239 197.432 22.0057 198.977 20.2102 198.977ZM33.0355 191.273H31.581L29.1719 198.227H29.081L26.6719 191.273H25.2173L28.4446 200H29.8082L33.0355 191.273ZM34.8054 200H36.1463V191.273H34.8054V200ZM35.4872 189.818C36.0099 189.818 36.4418 189.409 36.4418 188.909C36.4418 188.409 36.0099 188 35.4872 188C34.9645 188 34.5327 188.409 34.5327 188.909C34.5327 189.409 34.9645 189.818 35.4872 189.818ZM41.8977 200.182C43.5795 200.182 44.1477 199.136 44.4432 198.659H44.6023V200H45.8977V188.364H44.5568V192.659H44.4432C44.1477 192.205 43.625 191.159 41.9205 191.159C39.7159 191.159 38.1932 192.909 38.1932 195.659C38.1932 198.432 39.7159 200.182 41.8977 200.182ZM42.0795 198.977C40.3977 198.977 39.5341 197.5 39.5341 195.636C39.5341 193.795 40.375 192.364 42.0795 192.364C43.7159 192.364 44.5795 193.682 44.5795 195.636C44.5795 197.614 43.6932 198.977 42.0795 198.977ZM52.1989 200.182C53.9716 200.182 55.267 199.295 55.6761 197.977L54.3807 197.614C54.0398 198.523 53.25 198.977 52.1989 198.977C50.625 198.977 49.5398 197.96 49.4773 196.091H55.8125V195.523C55.8125 192.273 53.8807 191.159 52.0625 191.159C49.6989 191.159 48.1307 193.023 48.1307 195.705C48.1307 198.386 49.6761 200.182 52.1989 200.182ZM49.4773 194.932C49.5682 193.574 50.5284 192.364 52.0625 192.364C53.517 192.364 54.4489 193.455 54.4489 194.932H49.4773ZM62.3523 200H63.6932V194.545C63.6932 193.267 64.625 192.364 65.6705 192.364C66.6875 192.364 67.3977 193.028 67.3977 194.023V200H68.7614V194.318C68.7614 193.193 69.4659 192.364 70.6932 192.364C71.6477 192.364 72.4659 192.869 72.4659 194.159V200H73.8068V194.159C73.8068 192.108 72.7045 191.159 71.1477 191.159C69.8977 191.159 68.983 191.733 68.5341 192.636H68.4432C68.0114 191.705 67.25 191.159 66.1023 191.159C64.9659 191.159 64.125 191.705 63.7614 192.636H63.6477V191.273H62.3523V200ZM76.2585 200H77.5994V191.273H76.2585V200ZM76.9403 189.818C77.4631 189.818 77.8949 189.409 77.8949 188.909C77.8949 188.409 77.4631 188 76.9403 188C76.4176 188 75.9858 188.409 75.9858 188.909C75.9858 189.409 76.4176 189.818 76.9403 189.818ZM83.8509 191.273H81.9872V189.182H80.6463V191.273H79.3281V192.409H80.6463V197.864C80.6463 199.386 81.8736 200.114 83.0099 200.114C83.5099 200.114 83.8281 200.023 84.0099 199.955L83.7372 198.75C83.6236 198.773 83.4418 198.818 83.1463 198.818C82.5554 198.818 81.9872 198.636 81.9872 197.5V192.409H83.8509V191.273ZM85.8679 200H87.2088V191.273H85.8679V200ZM86.5497 189.818C87.0724 189.818 87.5043 189.409 87.5043 188.909C87.5043 188.409 87.0724 188 86.5497 188C86.027 188 85.5952 188.409 85.5952 188.909C85.5952 189.409 86.027 189.818 86.5497 189.818ZM93.1875 203.455C95.2784 203.455 96.9602 202.5 96.9602 200.25V191.273H95.6648V192.659H95.5284C95.233 192.205 94.6875 191.159 92.983 191.159C90.7784 191.159 89.2557 192.909 89.2557 195.591C89.2557 198.318 90.8466 199.864 92.9602 199.864C94.6648 199.864 95.2102 198.864 95.5057 198.386H95.6193V200.159C95.6193 201.614 94.5966 202.273 93.1875 202.273C91.6023 202.273 91.0455 201.438 90.6875 200.955L89.6193 201.705C90.1648 202.619 91.2386 203.455 93.1875 203.455ZM93.142 198.659C91.4602 198.659 90.5966 197.386 90.5966 195.568C90.5966 193.795 91.4375 192.364 93.142 192.364C94.7784 192.364 95.642 193.682 95.642 195.568C95.642 197.5 94.7557 198.659 93.142 198.659ZM101.983 200.205C103.506 200.205 104.301 199.386 104.574 198.818H104.642V200H105.983V194.25C105.983 191.477 103.869 191.159 102.756 191.159C101.438 191.159 99.9375 191.614 99.2557 193.205L100.528 193.659C100.824 193.023 101.523 192.341 102.801 192.341C104.034 192.341 104.642 192.994 104.642 194.114V194.159C104.642 194.807 103.983 194.75 102.392 194.955C100.773 195.165 99.0057 195.523 99.0057 197.523C99.0057 199.227 100.324 200.205 101.983 200.205ZM102.188 199C101.119 199 100.347 198.523 100.347 197.591C100.347 196.568 101.278 196.25 102.324 196.114C102.892 196.045 104.415 195.886 104.642 195.614V196.841C104.642 197.932 103.778 199 102.188 199ZM112.226 191.273H110.362V189.182H109.021V191.273H107.703V192.409H109.021V197.864C109.021 199.386 110.249 200.114 111.385 200.114C111.885 200.114 112.203 200.023 112.385 199.955L112.112 198.75C111.999 198.773 111.817 198.818 111.521 198.818C110.93 198.818 110.362 198.636 110.362 197.5V192.409H112.226V191.273ZM114.243 200H115.584V191.273H114.243V200ZM114.925 189.818C115.447 189.818 115.879 189.409 115.879 188.909C115.879 188.409 115.447 188 114.925 188C114.402 188 113.97 188.409 113.97 188.909C113.97 189.409 114.402 189.818 114.925 189.818ZM121.585 200.182C123.949 200.182 125.54 198.386 125.54 195.682C125.54 192.955 123.949 191.159 121.585 191.159C119.222 191.159 117.631 192.955 117.631 195.682C117.631 198.386 119.222 200.182 121.585 200.182ZM121.585 198.977C119.79 198.977 118.972 197.432 118.972 195.682C118.972 193.932 119.79 192.364 121.585 192.364C123.381 192.364 124.199 193.932 124.199 195.682C124.199 197.432 123.381 198.977 121.585 198.977ZM128.928 194.75C128.928 193.227 129.871 192.364 131.155 192.364C132.399 192.364 133.155 193.176 133.155 194.545V200H134.496V194.455C134.496 192.227 133.308 191.159 131.541 191.159C130.223 191.159 129.405 191.75 128.996 192.636H128.882V191.273H127.587V200H128.928V194.75ZM144.991 200.182C147.355 200.182 148.946 198.386 148.946 195.682C148.946 192.955 147.355 191.159 144.991 191.159C142.628 191.159 141.037 192.955 141.037 195.682C141.037 198.386 142.628 200.182 144.991 200.182ZM144.991 198.977C143.196 198.977 142.378 197.432 142.378 195.682C142.378 193.932 143.196 192.364 144.991 192.364C146.787 192.364 147.605 193.932 147.605 195.682C147.605 197.432 146.787 198.977 144.991 198.977ZM150.993 203.273H152.334V198.659H152.447C152.743 199.136 153.311 200.182 154.993 200.182C157.175 200.182 158.697 198.432 158.697 195.659C158.697 192.909 157.175 191.159 154.97 191.159C153.266 191.159 152.743 192.205 152.447 192.659H152.288V191.273H150.993V203.273ZM152.311 195.636C152.311 193.682 153.175 192.364 154.811 192.364C156.516 192.364 157.357 193.795 157.357 195.636C157.357 197.5 156.493 198.977 154.811 198.977C153.197 198.977 152.311 197.614 152.311 195.636ZM164.538 191.273H162.675V189.182H161.334V191.273H160.016V192.409H161.334V197.864C161.334 199.386 162.561 200.114 163.697 200.114C164.197 200.114 164.516 200.023 164.697 199.955L164.425 198.75C164.311 198.773 164.129 198.818 163.834 198.818C163.243 198.818 162.675 198.636 162.675 197.5V192.409H164.538V191.273ZM166.555 200H167.896V191.273H166.555V200ZM167.237 189.818C167.76 189.818 168.192 189.409 168.192 188.909C168.192 188.409 167.76 188 167.237 188C166.714 188 166.283 188.409 166.283 188.909C166.283 189.409 166.714 189.818 167.237 189.818ZM173.898 200.182C176.261 200.182 177.852 198.386 177.852 195.682C177.852 192.955 176.261 191.159 173.898 191.159C171.534 191.159 169.943 192.955 169.943 195.682C169.943 198.386 171.534 200.182 173.898 200.182ZM173.898 198.977C172.102 198.977 171.284 197.432 171.284 195.682C171.284 193.932 172.102 192.364 173.898 192.364C175.693 192.364 176.511 193.932 176.511 195.682C176.511 197.432 175.693 198.977 173.898 198.977ZM181.24 194.75C181.24 193.227 182.183 192.364 183.467 192.364C184.712 192.364 185.467 193.176 185.467 194.545V200H186.808V194.455C186.808 192.227 185.621 191.159 183.854 191.159C182.536 191.159 181.717 191.75 181.308 192.636H181.195V191.273H179.899V200H181.24V194.75ZM195.44 193.227C195.02 191.989 194.077 191.159 192.349 191.159C190.509 191.159 189.145 192.205 189.145 193.682C189.145 194.886 189.861 195.693 191.463 196.068L192.918 196.409C193.798 196.614 194.213 197.034 194.213 197.636C194.213 198.386 193.418 199 192.168 199C191.071 199 190.384 198.528 190.145 197.591L188.872 197.909C189.185 199.392 190.406 200.182 192.19 200.182C194.219 200.182 195.599 199.074 195.599 197.568C195.599 196.352 194.838 195.585 193.281 195.205L191.986 194.886C190.952 194.631 190.486 194.284 190.486 193.614C190.486 192.864 191.281 192.318 192.349 192.318C193.52 192.318 194.003 192.966 194.236 193.568L195.44 193.227ZM198.595 200.091C199.158 200.091 199.618 199.631 199.618 199.068C199.618 198.506 199.158 198.045 198.595 198.045C198.033 198.045 197.572 198.506 197.572 199.068C197.572 199.631 198.033 200.091 198.595 200.091Z" fill="#4F4F4F"/>
<g opacity="0.2">
<path d="M26.8662 24.1339H51.0001V1.82143C51.0001 1.33836 50.8082 0.875068 50.4667 0.533484C50.1251 0.1919 49.6618 0 49.1787 0H26.8662V24.1339Z" fill="#5C5CE5"/>
<path d="M24.1339 24.1339V0H1.82143C1.33836 0 0.875068 0.1919 0.533484 0.533484C0.1919 0.875068 0 1.33836 0 1.82143V24.1339H24.1339Z" fill="#5C5CE5"/>
<path d="M26.8652 26.8672V51.0011H49.1777C49.6608 51.0011 50.1241 50.8092 50.4657 50.4676C50.8073 50.126 50.9992 49.6628 50.9992 49.1797V26.8672H26.8652Z" fill="#5C5CE5"/>
<path d="M24.1339 26.8672H0V49.1797C0 49.6628 0.1919 50.126 0.533484 50.4676C0.875068 50.8092 1.33836 51.0011 1.82143 51.0011H24.1339V26.8672Z" fill="#5C5CE5"/>
</g>
<path d="M10.5536 10.0184H7.36607C7.00377 10.0184 6.6563 10.1623 6.40011 10.4185C6.14392 10.6747 6 11.0222 6 11.3845C6 11.7468 6.14392 12.0943 6.40011 12.3504C6.6563 12.6066 7.00377 12.7506 7.36607 12.7506H10.5536V15.9381C10.5536 16.3004 10.6975 16.6478 10.9537 16.904C11.2099 17.1602 11.5573 17.3041 11.9196 17.3041C12.2819 17.3041 12.6294 17.1602 12.8856 16.904C13.1418 16.6478 13.2857 16.3004 13.2857 15.9381V12.7506H16.4732C16.8355 12.7506 17.183 12.6066 17.4392 12.3504C17.6954 12.0943 17.8393 11.7468 17.8393 11.3845C17.8393 11.0222 17.6954 10.6747 17.4392 10.4185C17.183 10.1623 16.8355 10.0184 16.4732 10.0184H13.2857V6.83091C13.2857 6.46861 13.1418 6.12114 12.8856 5.86496C12.6294 5.60877 12.2819 5.46484 11.9196 5.46484C11.5573 5.46484 11.2099 5.60877 10.9537 5.86496C10.6975 6.12114 10.5536 6.46861 10.5536 6.83091V10.0184Z" fill="#5C5CE5"/>
<path d="M15.6177 43.9926C15.98 43.9926 16.3274 43.8487 16.5836 43.5925C16.8394 43.3364 16.9831 42.9892 16.9831 42.6272C16.9831 42.2652 16.8394 41.918 16.5836 41.6618L13.9061 38.9843L16.5836 36.3068C16.8289 36.0486 16.9636 35.7048 16.959 35.3487C16.9545 34.9925 16.8111 34.6523 16.5593 34.4004C16.3075 34.1485 15.9674 34.0049 15.6112 34.0001C15.2551 33.9954 14.9113 34.1299 14.6529 34.375L11.9754 37.0525L9.29788 34.375C9.03892 34.1337 8.69641 34.0023 8.3425 34.0086C7.9886 34.0148 7.65093 34.1582 7.40064 34.4085C7.15036 34.6588 7.00699 34.9964 7.00074 35.3503C6.9945 35.7042 7.12587 36.0468 7.36717 36.3057L10.0447 38.9832L7.36717 41.6607C7.12572 41.9195 6.99416 42.262 7.0002 42.6159C7.00624 42.9698 7.14942 43.3076 7.39957 43.558C7.64971 43.8084 7.9873 43.952 8.3412 43.9584C8.69511 43.9649 9.03769 43.8337 9.29679 43.5925L11.9743 40.915L14.6518 43.5925C14.908 43.8487 15.2554 43.9926 15.6177 43.9926Z" fill="#5C5CE5"/>
<path d="M43.4732 10H34.3661C34.0038 10 33.6563 10.1439 33.4001 10.4001C33.1439 10.6563 33 11.0038 33 11.3661C33 11.7284 33.1439 12.0758 33.4001 12.332C33.6563 12.5882 34.0038 12.7321 34.3661 12.7321H43.4732C43.8355 12.7321 44.183 12.5882 44.4392 12.332C44.6954 12.0758 44.8393 11.7284 44.8393 11.3661C44.8393 11.0038 44.6954 10.6563 44.4392 10.4001C44.183 10.1439 43.8355 10 43.4732 10Z" fill="#5C5CE5"/>
<path d="M34.3661 43.1964H43.4732C43.8355 43.1964 44.183 43.0525 44.4392 42.7963C44.6954 42.5401 44.8393 42.1927 44.8393 41.8304C44.8393 41.4681 44.6954 41.1206 44.4392 40.8644C44.183 40.6082 43.8355 40.4643 43.4732 40.4643H34.3661C34.0038 40.4643 33.6563 40.6082 33.4001 40.8644C33.1439 41.1206 33 41.4681 33 41.8304C33 42.1927 33.1439 42.5401 33.4001 42.7963C33.6563 43.0525 34.0038 43.1964 34.3661 43.1964Z" fill="#5C5CE5"/>
<path d="M34.3661 37.7321H43.4732C43.8355 37.7321 44.183 37.5882 44.4392 37.332C44.6954 37.0758 44.8393 36.7284 44.8393 36.3661C44.8393 36.0038 44.6954 35.6563 44.4392 35.4001C44.183 35.1439 43.8355 35 43.4732 35H34.3661C34.0038 35 33.6563 35.1439 33.4001 35.4001C33.1439 35.6563 33 36.0038 33 36.3661C33 36.7284 33.1439 37.0758 33.4001 37.332C33.6563 37.5882 34.0038 37.7321 34.3661 37.7321Z" fill="#5C5CE5"/>
</svg>
