<svg width="378" height="476" viewBox="0 0 378 476" fill="none" xmlns="http://www.w3.org/2000/svg">
<g opacity="0.2">
<path d="M-273.456 749.038C-265.166 713.316 -288.178 673.308 -271.455 640.587C-261.45 621.155 -238.724 610.296 -216.999 610.581C-195.13 611.01 -174.405 621.155 -157.539 635.158C-136.528 652.59 -119.52 676.452 -93.9349 685.739C-53.7713 700.171 -15.3229 677.881 22.4109 668.307C59.1442 659.02 97.3068 672.165 134.612 678.595C171.917 685.025 216.797 681.739 238.38 650.589C252.959 629.728 252.53 602.008 249.671 576.718C246.67 551.427 241.81 525.279 248.957 500.845C258.533 468.125 287.548 445.263 316.706 427.688C333.286 417.829 350.723 408.541 363.301 393.824C396.033 355.388 361.872 314.094 346.007 277.086C327.854 234.935 330.141 188.211 302.699 148.346C266.108 95.3358 163 19.5 29 2C-30.8881 -9.14509 14.1209 45.4686 -45.9101 55.3278C-83.6439 61.4718 -120.091 73.4742 -156.396 85.4766C-209.137 102.766 -263.308 120.912 -305.187 157.348C-336.203 184.211 -358.5 219.646 -378.939 255.225C-402.094 295.376 -423.534 336.67 -436.826 381.107C-448.261 419.401 -453.121 459.409 -456.98 499.274C-461.125 542.139 -463.84 585.005 -465.413 628.013C-466.842 665.45 -466.842 704.457 -451.263 738.464C-434.826 774.186 -400.236 801.62 -361.788 809.907C-326.341 817.48 -281.603 784.473 -273.456 749.038Z" fill="white" stroke="#6F6FD2" stroke-miterlimit="10"/>
<path d="M309.181 250.809C307.608 212.676 316.9 185.826 285.737 157.405C218.552 96.4212 142.791 38.0081 53.163 23.7262C12.709 17.2993 -28.7455 20.1557 -69.4854 25.0116C-138.1 33.2951 -207.715 48.0055 -266.752 83.8531C-355.665 137.696 -411.414 234.813 -435.715 335.786C-459.873 436.617 -455.871 542.017 -447.58 645.419C-445.435 672.126 -442.862 699.547 -431.141 723.541C-416.131 754.247 -370.103 796.521 -334.08 778.812C-330.077 776.812 -326.075 774.527 -322.215 771.956C-301.774 758.389 -285.192 737.394 -278.331 712.401C-277.902 710.83 -277.473 709.116 -277.187 707.545C-270.326 676.41 -276.186 642.848 -257.746 620.711C-256.746 619.568 -255.888 618.426 -254.744 617.426C-241.45 603.573 -219.722 597.86 -198.852 600.43C-184.272 602.287 -170.12 607.714 -157.255 614.855C-151.537 617.997 -146.105 621.425 -140.816 625.138C-119.231 640.277 -99.9331 658.986 -74.6315 666.556C-44.1838 675.839 -15.0227 661.557 13.5667 654.416C41.4413 647.418 70.0307 654.987 97.7624 657.558C125.494 659.986 158.086 655.559 174.096 631.708C187.676 611.713 187.533 585.292 188.534 562.012C188.819 556.014 189.105 550.158 189.82 544.445C191.964 527.593 196.11 513.025 205.115 499.6C211.834 489.46 220.982 480.891 231.418 472.893C245.569 462.181 262.151 452.184 278.018 442.472C293.742 432.761 309.467 422.478 319.759 407.482C336.055 383.631 331.766 357.78 324.762 333.073C318.043 309.65 312.326 288.37 310.324 266.519C309.752 261.092 309.324 255.95 309.181 250.809Z" fill="white" stroke="#6F6FD2" stroke-miterlimit="10"/>
<path d="M-332.226 703.599C-321.223 679.889 -315.935 654.036 -306.647 629.755C-295.93 601.617 -277.782 572.479 -246.345 566.48C-210.906 559.767 -175.611 576.907 -144.602 591.761C-116.452 605.187 -87.8724 619.613 -56.8638 622.899C-25.8553 626.184 8.86864 615.471 24.8731 588.619C38.8769 565.194 36.5906 533.486 54.4527 512.918C73.0292 491.493 105.181 490.636 133.046 484.923C165.769 478.209 198.921 460.213 211.639 429.361C223.928 399.652 215.354 366.372 210.21 336.091C204.923 304.811 211.21 279.958 223.356 250.963C234.502 224.539 245.934 194.973 236.503 167.835C223.642 130.698 181.345 107.131 148.336 90.2767C109.754 70.5658 67.4563 57.9966 24.3015 54.2829C-49.5761 47.7127 -125.454 66.5665 -187.757 106.845C-212.621 122.985 -235.342 142.268 -259.92 158.836C-283.784 174.833 -309.505 188.26 -336.513 198.544C-345.229 201.829 -354.375 205.114 -361.234 211.399C-371.951 221.397 -375.095 236.823 -377.381 251.392C-401.102 401.366 -403.96 553.911 -406.961 705.741C-407.246 719.453 -406.246 735.593 -394.957 743.306C-371.236 758.732 -340.799 722.024 -332.226 703.599Z" fill="white" stroke="#6F6FD2" stroke-width="2" stroke-miterlimit="10"/>
<path d="M-329.342 563.265C-320.911 542.129 -314.766 520.136 -306.049 499C-300.762 486.289 -294.188 473.436 -286.043 462.297C-278.612 452.157 -269.752 443.303 -258.034 438.447C-255.605 437.447 -253.176 436.591 -250.746 435.876C-236.17 431.735 -220.165 433.306 -205.16 437.733C-192.871 441.446 -181.01 446.873 -169.721 452.586C-167.291 453.871 -164.719 455.013 -162.29 456.299C-140.569 467.295 -118.419 478.72 -94.9827 484.433C-68.6887 491.002 -38.2505 491.145 -20.3877 474.721C-8.66969 464.011 -7.52647 446.302 4.62022 434.734C17.3385 422.738 36.6303 420.31 52.7783 414.597C56.4937 413.312 60.0663 411.741 63.6389 410.027C78.3578 402.601 91.219 391.033 96.6493 375.038C104.938 350.475 99.936 323.055 93.6483 298.776C91.5048 290.35 89.6471 282.496 87.9322 275.07C84.7884 261.217 82.9307 249.078 81.3587 236.796C80.3584 228.941 78.9294 221.229 76.7859 213.375C74.0707 203.663 69.9266 193.666 64.0676 182.241C63.9247 181.956 63.7817 181.527 63.4959 181.242C46.7764 148.68 32.2003 119.404 0.0473328 101.695C-37.3931 81.1301 -76.977 62.5645 -120.134 58.7086C-161.718 55.1382 -203.303 65.5636 -242.887 78.9879C-278.326 90.9842 -313.48 105.837 -341.918 130.258C-398.793 179.1 -419.228 257.218 -434.804 330.481C-448.809 396.603 -461.241 463.725 -457.24 531.132C-455.668 557.838 -450.809 585.83 -434.09 606.68C-388.218 663.805 -347.348 608.251 -329.342 563.265Z" fill="white" stroke="#6F6FD2" stroke-width="2" stroke-miterlimit="10"/>
</g>
</svg>
