<svg width="331" height="182" viewBox="0 0 331 182" fill="none" xmlns="http://www.w3.org/2000/svg">
<path d="M1.29119 95H9.42827V93.0121H3.66264V81.9091H1.29119V95ZM15.6669 95.1918C18.5433 95.1918 20.3714 93.1655 20.3714 90.1293C20.3714 87.0866 18.5433 85.054 15.6669 85.054C12.7905 85.054 10.9624 87.0866 10.9624 90.1293C10.9624 93.1655 12.7905 95.1918 15.6669 95.1918ZM15.6797 93.3381C14.0881 93.3381 13.3082 91.919 13.3082 90.1229C13.3082 88.3267 14.0881 86.8885 15.6797 86.8885C17.2457 86.8885 18.0256 88.3267 18.0256 90.1229C18.0256 91.919 17.2457 93.3381 15.6797 93.3381ZM24.098 95H26.5142L28.3551 88.3651H28.4893L30.3303 95H32.7401L35.5206 85.1818H33.1555L31.4553 92.0469H31.3594L29.5952 85.1818H27.2621L25.4979 92.0852H25.4084L23.6825 85.1818H21.3239L24.098 95ZM45.8837 95.1918C48.351 95.1918 49.9235 93.728 50.0897 91.6442H47.878C47.6799 92.6989 46.9192 93.3061 45.9029 93.3061C44.4583 93.3061 43.525 92.098 43.525 90.0909C43.525 88.1094 44.4775 86.9205 45.9029 86.9205C47.0151 86.9205 47.699 87.6364 47.878 88.5824H50.0897C49.9299 86.4538 48.2679 85.054 45.8709 85.054C42.9945 85.054 41.1792 87.1314 41.1792 90.1293C41.1792 93.1016 42.9498 95.1918 45.8837 95.1918ZM56.2724 95.1918C59.1488 95.1918 60.9769 93.1655 60.9769 90.1293C60.9769 87.0866 59.1488 85.054 56.2724 85.054C53.396 85.054 51.5678 87.0866 51.5678 90.1293C51.5678 93.1655 53.396 95.1918 56.2724 95.1918ZM56.2852 93.3381C54.6935 93.3381 53.9137 91.919 53.9137 90.1229C53.9137 88.3267 54.6935 86.8885 56.2852 86.8885C57.8512 86.8885 58.631 88.3267 58.631 90.1229C58.631 91.919 57.8512 93.3381 56.2852 93.3381ZM70.7008 87.777C70.3812 86.1151 69.0517 85.054 66.7505 85.054C64.3855 85.054 62.7747 86.2173 62.7811 88.0327C62.7747 89.4645 63.6568 90.4105 65.5424 90.8004L67.2172 91.152C68.1184 91.3501 68.5403 91.7145 68.5403 92.2706C68.5403 92.9418 67.8116 93.4467 66.7122 93.4467C65.6511 93.4467 64.9608 92.9865 64.7626 92.1044L62.5062 92.3217C62.7939 94.1243 64.3088 95.1918 66.7186 95.1918C69.1731 95.1918 70.9054 93.9197 70.9118 92.0597C70.9054 90.6598 70.0041 89.8033 68.1504 89.4006L66.4757 89.0426C65.4785 88.8189 65.0822 88.4737 65.0886 87.9048C65.0822 87.2401 65.8173 86.7798 66.7825 86.7798C67.85 86.7798 68.4125 87.3615 68.5914 88.0071L70.7008 87.777ZM77.7225 85.1818H75.7857V82.8295H73.4718V85.1818H72.0783V86.9716H73.4718V92.4304C73.459 94.2777 74.8013 95.1854 76.54 95.1342C77.1983 95.1151 77.6522 94.9872 77.9015 94.9041L77.5115 93.0952C77.3837 93.1271 77.1216 93.1847 76.834 93.1847C76.2523 93.1847 75.7857 92.9801 75.7857 92.0469V86.9716H77.7225V85.1818ZM86.9478 95.1982C88.4883 95.1982 89.4087 94.4759 89.8306 93.6513H89.9073V95H92.1317V88.429C92.1317 85.8338 90.016 85.054 88.1431 85.054C86.0785 85.054 84.4933 85.9744 83.9819 87.7642L86.1424 88.071C86.3725 87.3999 87.0245 86.8246 88.1559 86.8246C89.2298 86.8246 89.8178 87.3743 89.8178 88.3395V88.3778C89.8178 89.0426 89.1211 89.0746 87.3888 89.2599C85.484 89.4645 83.6623 90.0334 83.6623 92.245C83.6623 94.1754 85.0749 95.1982 86.9478 95.1982ZM87.5487 93.4979C86.5835 93.4979 85.8931 93.0568 85.8931 92.2067C85.8931 91.3182 86.6665 90.9474 87.7021 90.8004C88.3093 90.7173 89.5238 90.5639 89.8242 90.321V91.478C89.8242 92.571 88.9421 93.4979 87.5487 93.4979ZM96.7724 89.2472C96.7724 87.8281 97.6289 87.0099 98.8498 87.0099C100.045 87.0099 100.761 87.7962 100.761 89.1065V95H103.075V88.7486C103.081 86.3963 101.739 85.054 99.7127 85.054C98.2425 85.054 97.2326 85.7571 96.7852 86.8501H96.6701V85.1818H94.4585V95H96.7724V89.2472ZM109.071 95.1726C110.758 95.1726 111.519 94.169 111.883 93.4531H112.024V95H114.299V81.9091H111.979V86.8054H111.883C111.532 86.0959 110.809 85.054 109.077 85.054C106.808 85.054 105.025 86.831 105.025 90.1037C105.025 93.3381 106.757 95.1726 109.071 95.1726ZM109.716 93.2741C108.189 93.2741 107.383 91.9318 107.383 90.0909C107.383 88.2628 108.176 86.9524 109.716 86.9524C111.206 86.9524 112.024 88.1861 112.024 90.0909C112.024 91.9957 111.193 93.2741 109.716 93.2741ZM126.203 85.1818H124.164V84.4084C124.164 83.6413 124.483 83.2131 125.346 83.2131C125.711 83.2131 126.018 83.2962 126.209 83.3537L126.676 81.5639C126.376 81.4616 125.717 81.2955 124.918 81.2955C123.211 81.2955 121.85 82.2734 121.85 84.255V85.1818H120.399V86.9716H121.85V95H124.164V86.9716H126.203V85.1818ZM130.506 95.1982C132.047 95.1982 132.967 94.4759 133.389 93.6513H133.466V95H135.69V88.429C135.69 85.8338 133.575 85.054 131.702 85.054C129.637 85.054 128.052 85.9744 127.54 87.7642L129.701 88.071C129.931 87.3999 130.583 86.8246 131.714 86.8246C132.788 86.8246 133.376 87.3743 133.376 88.3395V88.3778C133.376 89.0426 132.68 89.0746 130.947 89.2599C129.043 89.4645 127.221 90.0334 127.221 92.245C127.221 94.1754 128.634 95.1982 130.506 95.1982ZM131.107 93.4979C130.142 93.4979 129.452 93.0568 129.452 92.2067C129.452 91.3182 130.225 90.9474 131.261 90.8004C131.868 90.7173 133.082 90.5639 133.383 90.321V91.478C133.383 92.571 132.501 93.4979 131.107 93.4979ZM145.777 87.777C145.457 86.1151 144.128 85.054 141.827 85.054C139.462 85.054 137.851 86.2173 137.857 88.0327C137.851 89.4645 138.733 90.4105 140.619 90.8004L142.293 91.152C143.195 91.3501 143.616 91.7145 143.616 92.2706C143.616 92.9418 142.888 93.4467 141.788 93.4467C140.727 93.4467 140.037 92.9865 139.839 92.1044L137.582 92.3217C137.87 94.1243 139.385 95.1918 141.795 95.1918C144.249 95.1918 145.982 93.9197 145.988 92.0597C145.982 90.6598 145.08 89.8033 143.227 89.4006L141.552 89.0426C140.555 88.8189 140.158 88.4737 140.165 87.9048C140.158 87.2401 140.893 86.7798 141.859 86.7798C142.926 86.7798 143.489 87.3615 143.668 88.0071L145.777 87.777ZM152.799 85.1818H150.862V82.8295H148.548V85.1818H147.154V86.9716H148.548V92.4304C148.535 94.2777 149.877 95.1854 151.616 95.1342C152.275 95.1151 152.728 94.9872 152.978 94.9041L152.588 93.0952C152.46 93.1271 152.198 93.1847 151.91 93.1847C151.328 93.1847 150.862 92.9801 150.862 92.0469V86.9716H152.799V85.1818Z" fill="#151147"/>
<path d="M10.6364 116.364H9.25V125.523H9.13636L2.77273 116.364H1.40909V128H2.81818V118.864H2.93182L9.27273 128H10.6364V116.364ZM16.8196 128.182C19.1832 128.182 20.7741 126.386 20.7741 123.682C20.7741 120.955 19.1832 119.159 16.8196 119.159C14.456 119.159 12.8651 120.955 12.8651 123.682C12.8651 126.386 14.456 128.182 16.8196 128.182ZM16.8196 126.977C15.0241 126.977 14.206 125.432 14.206 123.682C14.206 121.932 15.0241 120.364 16.8196 120.364C18.6151 120.364 19.4332 121.932 19.4332 123.682C19.4332 125.432 18.6151 126.977 16.8196 126.977ZM28.6619 116.364H27.321V128H28.6619V116.364ZM34.6634 128.182C37.027 128.182 38.6179 126.386 38.6179 123.682C38.6179 120.955 37.027 119.159 34.6634 119.159C32.2997 119.159 30.7088 120.955 30.7088 123.682C30.7088 126.386 32.2997 128.182 34.6634 128.182ZM34.6634 126.977C32.8679 126.977 32.0497 125.432 32.0497 123.682C32.0497 121.932 32.8679 120.364 34.6634 120.364C36.4588 120.364 37.277 121.932 37.277 123.682C37.277 125.432 36.4588 126.977 34.6634 126.977ZM42.0057 122.75C42.0057 121.227 42.9489 120.364 44.233 120.364C45.4773 120.364 46.233 121.176 46.233 122.545V128H47.5739V122.455C47.5739 120.227 46.3864 119.159 44.6193 119.159C43.3011 119.159 42.483 119.75 42.0739 120.636H41.9602V119.273H40.6648V128H42.0057V122.75ZM53.5469 131.455C55.6378 131.455 57.3196 130.5 57.3196 128.25V119.273H56.0241V120.659H55.8878C55.5923 120.205 55.0469 119.159 53.3423 119.159C51.1378 119.159 49.6151 120.909 49.6151 123.591C49.6151 126.318 51.206 127.864 53.3196 127.864C55.0241 127.864 55.5696 126.864 55.8651 126.386H55.9787V128.159C55.9787 129.614 54.956 130.273 53.5469 130.273C51.9616 130.273 51.4048 129.438 51.0469 128.955L49.9787 129.705C50.5241 130.619 51.598 131.455 53.5469 131.455ZM53.5014 126.659C51.8196 126.659 50.956 125.386 50.956 123.568C50.956 121.795 51.7969 120.364 53.5014 120.364C55.1378 120.364 56.0014 121.682 56.0014 123.568C56.0014 125.5 55.1151 126.659 53.5014 126.659ZM66.2514 128H67.5696L69.4787 121.295H69.6151L71.5241 128H72.8423L75.5014 119.273H74.0923L72.206 125.932H72.1151L70.2741 119.273H68.8423L66.9787 125.955H66.8878L65.0014 119.273H63.5923L66.2514 128ZM79.8423 128.205C81.3651 128.205 82.1605 127.386 82.4332 126.818H82.5014V128H83.8423V122.25C83.8423 119.477 81.7287 119.159 80.6151 119.159C79.2969 119.159 77.7969 119.614 77.1151 121.205L78.3878 121.659C78.6832 121.023 79.3821 120.341 80.6605 120.341C81.8935 120.341 82.5014 120.994 82.5014 122.114V122.159C82.5014 122.807 81.8423 122.75 80.2514 122.955C78.6321 123.165 76.8651 123.523 76.8651 125.523C76.8651 127.227 78.1832 128.205 79.8423 128.205ZM80.0469 127C78.9787 127 78.206 126.523 78.206 125.591C78.206 124.568 79.1378 124.25 80.1832 124.114C80.7514 124.045 82.2741 123.886 82.5014 123.614V124.841C82.5014 125.932 81.6378 127 80.0469 127ZM86.2898 128H87.6307V119.273H86.2898V128ZM86.9716 117.818C87.4943 117.818 87.9261 117.409 87.9261 116.909C87.9261 116.409 87.4943 116 86.9716 116C86.4489 116 86.017 116.409 86.017 116.909C86.017 117.409 86.4489 117.818 86.9716 117.818ZM93.8821 119.273H92.0185V117.182H90.6776V119.273H89.3594V120.409H90.6776V125.864C90.6776 127.386 91.9048 128.114 93.0412 128.114C93.5412 128.114 93.8594 128.023 94.0412 127.955L93.7685 126.75C93.6548 126.773 93.473 126.818 93.1776 126.818C92.5866 126.818 92.0185 126.636 92.0185 125.5V120.409H93.8821V119.273ZM104.195 119.273H102.331V117.182H100.99V119.273H99.6719V120.409H100.99V125.864C100.99 127.386 102.217 128.114 103.354 128.114C103.854 128.114 104.172 128.023 104.354 127.955L104.081 126.75C103.967 126.773 103.786 126.818 103.49 126.818C102.899 126.818 102.331 126.636 102.331 125.5V120.409H104.195V119.273ZM106.212 128H107.553V119.273H106.212V128ZM106.893 117.818C107.416 117.818 107.848 117.409 107.848 116.909C107.848 116.409 107.416 116 106.893 116C106.371 116 105.939 116.409 105.939 116.909C105.939 117.409 106.371 117.818 106.893 117.818ZM110.009 128H111.349V122.545C111.349 121.267 112.281 120.364 113.327 120.364C114.344 120.364 115.054 121.028 115.054 122.023V128H116.418V122.318C116.418 121.193 117.122 120.364 118.349 120.364C119.304 120.364 120.122 120.869 120.122 122.159V128H121.463V122.159C121.463 120.108 120.361 119.159 118.804 119.159C117.554 119.159 116.639 119.733 116.19 120.636H116.099C115.668 119.705 114.906 119.159 113.759 119.159C112.622 119.159 111.781 119.705 111.418 120.636H111.304V119.273H110.009V128ZM127.574 128.182C129.347 128.182 130.642 127.295 131.051 125.977L129.756 125.614C129.415 126.523 128.625 126.977 127.574 126.977C126 126.977 124.915 125.96 124.852 124.091H131.188V123.523C131.188 120.273 129.256 119.159 127.438 119.159C125.074 119.159 123.506 121.023 123.506 123.705C123.506 126.386 125.051 128.182 127.574 128.182ZM124.852 122.932C124.943 121.574 125.903 120.364 127.438 120.364C128.892 120.364 129.824 121.455 129.824 122.932H124.852ZM139.409 121.227C138.989 119.989 138.045 119.159 136.318 119.159C134.477 119.159 133.114 120.205 133.114 121.682C133.114 122.886 133.83 123.693 135.432 124.068L136.886 124.409C137.767 124.614 138.182 125.034 138.182 125.636C138.182 126.386 137.386 127 136.136 127C135.04 127 134.352 126.528 134.114 125.591L132.841 125.909C133.153 127.392 134.375 128.182 136.159 128.182C138.188 128.182 139.568 127.074 139.568 125.568C139.568 124.352 138.807 123.585 137.25 123.205L135.955 122.886C134.92 122.631 134.455 122.284 134.455 121.614C134.455 120.864 135.25 120.318 136.318 120.318C137.489 120.318 137.972 120.966 138.205 121.568L139.409 121.227ZM142.564 128.091C143.126 128.091 143.587 127.631 143.587 127.068C143.587 126.506 143.126 126.045 142.564 126.045C142.001 126.045 141.541 126.506 141.541 127.068C141.541 127.631 142.001 128.091 142.564 128.091ZM159.902 116.364H158.516V125.523H158.402L152.038 116.364H150.675V128H152.084V118.864H152.197L158.538 128H159.902V116.364ZM166.085 128.182C168.449 128.182 170.04 126.386 170.04 123.682C170.04 120.955 168.449 119.159 166.085 119.159C163.722 119.159 162.131 120.955 162.131 123.682C162.131 126.386 163.722 128.182 166.085 128.182ZM166.085 126.977C164.29 126.977 163.472 125.432 163.472 123.682C163.472 121.932 164.29 120.364 166.085 120.364C167.881 120.364 168.699 121.932 168.699 123.682C168.699 125.432 167.881 126.977 166.085 126.977ZM176.587 128H177.928V122.545C177.928 121.267 178.859 120.364 179.905 120.364C180.922 120.364 181.632 121.028 181.632 122.023V128H182.996V122.318C182.996 121.193 183.7 120.364 184.928 120.364C185.882 120.364 186.7 120.869 186.7 122.159V128H188.041V122.159C188.041 120.108 186.939 119.159 185.382 119.159C184.132 119.159 183.217 119.733 182.768 120.636H182.678C182.246 119.705 181.484 119.159 180.337 119.159C179.2 119.159 178.359 119.705 177.996 120.636H177.882V119.273H176.587V128ZM193.061 128.205C194.584 128.205 195.379 127.386 195.652 126.818H195.72V128H197.061V122.25C197.061 119.477 194.947 119.159 193.834 119.159C192.516 119.159 191.016 119.614 190.334 121.205L191.607 121.659C191.902 121.023 192.601 120.341 193.879 120.341C195.112 120.341 195.72 120.994 195.72 122.114V122.159C195.72 122.807 195.061 122.75 193.47 122.955C191.851 123.165 190.084 123.523 190.084 125.523C190.084 127.227 191.402 128.205 193.061 128.205ZM193.266 127C192.197 127 191.425 126.523 191.425 125.591C191.425 124.568 192.357 124.25 193.402 124.114C193.97 124.045 195.493 123.886 195.72 123.614V124.841C195.72 125.932 194.857 127 193.266 127ZM205.69 121.227C205.27 119.989 204.327 119.159 202.599 119.159C200.759 119.159 199.395 120.205 199.395 121.682C199.395 122.886 200.111 123.693 201.713 124.068L203.168 124.409C204.048 124.614 204.463 125.034 204.463 125.636C204.463 126.386 203.668 127 202.418 127C201.321 127 200.634 126.528 200.395 125.591L199.122 125.909C199.435 127.392 200.656 128.182 202.44 128.182C204.469 128.182 205.849 127.074 205.849 125.568C205.849 124.352 205.088 123.585 203.531 123.205L202.236 122.886C201.202 122.631 200.736 122.284 200.736 121.614C200.736 120.864 201.531 120.318 202.599 120.318C203.77 120.318 204.253 120.966 204.486 121.568L205.69 121.227ZM214.05 121.227C213.629 119.989 212.686 119.159 210.959 119.159C209.118 119.159 207.754 120.205 207.754 121.682C207.754 122.886 208.47 123.693 210.072 124.068L211.527 124.409C212.408 124.614 212.822 125.034 212.822 125.636C212.822 126.386 212.027 127 210.777 127C209.68 127 208.993 126.528 208.754 125.591L207.482 125.909C207.794 127.392 209.016 128.182 210.8 128.182C212.828 128.182 214.209 127.074 214.209 125.568C214.209 124.352 213.447 123.585 211.891 123.205L210.595 122.886C209.561 122.631 209.095 122.284 209.095 121.614C209.095 120.864 209.891 120.318 210.959 120.318C212.129 120.318 212.612 120.966 212.845 121.568L214.05 121.227ZM216.227 128H217.568V119.273H216.227V128ZM216.909 117.818C217.432 117.818 217.864 117.409 217.864 116.909C217.864 116.409 217.432 116 216.909 116C216.386 116 215.955 116.409 215.955 116.909C215.955 117.409 216.386 117.818 216.909 117.818ZM227.161 119.273H225.706L223.297 126.227H223.206L220.797 119.273H219.342L222.57 128H223.933L227.161 119.273ZM232.277 128.182C234.05 128.182 235.345 127.295 235.754 125.977L234.459 125.614C234.118 126.523 233.328 126.977 232.277 126.977C230.703 126.977 229.618 125.96 229.555 124.091H235.891V123.523C235.891 120.273 233.959 119.159 232.141 119.159C229.777 119.159 228.209 121.023 228.209 123.705C228.209 126.386 229.754 128.182 232.277 128.182ZM229.555 122.932C229.646 121.574 230.607 120.364 232.141 120.364C233.595 120.364 234.527 121.455 234.527 122.932H229.555ZM245.976 128.182C247.908 128.182 249.18 127 249.408 125.455H248.067C247.817 126.409 247.021 126.977 245.976 126.977C244.385 126.977 243.362 125.659 243.362 123.636C243.362 121.659 244.408 120.364 245.976 120.364C247.158 120.364 247.862 121.091 248.067 121.886H249.408C249.18 120.25 247.794 119.159 245.953 119.159C243.589 119.159 242.021 121.023 242.021 123.682C242.021 126.295 243.521 128.182 245.976 128.182ZM254.913 128.182C257.277 128.182 258.868 126.386 258.868 123.682C258.868 120.955 257.277 119.159 254.913 119.159C252.55 119.159 250.959 120.955 250.959 123.682C250.959 126.386 252.55 128.182 254.913 128.182ZM254.913 126.977C253.118 126.977 252.3 125.432 252.3 123.682C252.3 121.932 253.118 120.364 254.913 120.364C256.709 120.364 257.527 121.932 257.527 123.682C257.527 125.432 256.709 126.977 254.913 126.977ZM267.097 121.227C266.676 119.989 265.733 119.159 264.006 119.159C262.165 119.159 260.801 120.205 260.801 121.682C260.801 122.886 261.517 123.693 263.119 124.068L264.574 124.409C265.455 124.614 265.869 125.034 265.869 125.636C265.869 126.386 265.074 127 263.824 127C262.727 127 262.04 126.528 261.801 125.591L260.528 125.909C260.841 127.392 262.062 128.182 263.847 128.182C265.875 128.182 267.256 127.074 267.256 125.568C267.256 124.352 266.494 123.585 264.938 123.205L263.642 122.886C262.608 122.631 262.142 122.284 262.142 121.614C262.142 120.864 262.938 120.318 264.006 120.318C265.176 120.318 265.659 120.966 265.892 121.568L267.097 121.227ZM273.07 119.273H271.206V117.182H269.865V119.273H268.547V120.409H269.865V125.864C269.865 127.386 271.092 128.114 272.229 128.114C272.729 128.114 273.047 128.023 273.229 127.955L272.956 126.75C272.842 126.773 272.661 126.818 272.365 126.818C271.774 126.818 271.206 126.636 271.206 125.5V120.409H273.07V119.273ZM276.064 128.091C276.626 128.091 277.087 127.631 277.087 127.068C277.087 126.506 276.626 126.045 276.064 126.045C275.501 126.045 275.041 126.506 275.041 127.068C275.041 127.631 275.501 128.091 276.064 128.091ZM288.629 116.364V124.682C288.629 126.131 287.936 126.909 286.72 126.909C285.612 126.909 284.811 126.261 284.811 125.273H283.425C283.425 127.062 284.811 128.159 286.72 128.159C288.743 128.159 290.038 126.915 290.038 124.682V116.364H288.629ZM298.18 124.432C298.18 126.068 296.93 126.818 295.93 126.818C294.817 126.818 294.021 126 294.021 124.727V119.273H292.68V124.818C292.68 127.045 293.862 128.114 295.499 128.114C296.817 128.114 297.68 127.409 298.089 126.523H298.18V128H299.521V119.273H298.18V124.432ZM308.159 121.227C307.739 119.989 306.795 119.159 305.068 119.159C303.227 119.159 301.864 120.205 301.864 121.682C301.864 122.886 302.58 123.693 304.182 124.068L305.636 124.409C306.517 124.614 306.932 125.034 306.932 125.636C306.932 126.386 306.136 127 304.886 127C303.79 127 303.102 126.528 302.864 125.591L301.591 125.909C301.903 127.392 303.125 128.182 304.909 128.182C306.938 128.182 308.318 127.074 308.318 125.568C308.318 124.352 307.557 123.585 306 123.205L304.705 122.886C303.67 122.631 303.205 122.284 303.205 121.614C303.205 120.864 304 120.318 305.068 120.318C306.239 120.318 306.722 120.966 306.955 121.568L308.159 121.227ZM314.132 119.273H312.268V117.182H310.928V119.273H309.609V120.409H310.928V125.864C310.928 127.386 312.155 128.114 313.291 128.114C313.791 128.114 314.109 128.023 314.291 127.955L314.018 126.75C313.905 126.773 313.723 126.818 313.428 126.818C312.837 126.818 312.268 126.636 312.268 125.5V120.409H314.132V119.273ZM4.77273 152.182C6.70455 152.182 7.97727 151 8.20455 149.455H6.86364C6.61364 150.409 5.81818 150.977 4.77273 150.977C3.18182 150.977 2.15909 149.659 2.15909 147.636C2.15909 145.659 3.20455 144.364 4.77273 144.364C5.95455 144.364 6.65909 145.091 6.86364 145.886H8.20455C7.97727 144.25 6.59091 143.159 4.75 143.159C2.38636 143.159 0.818182 145.023 0.818182 147.682C0.818182 150.295 2.31818 152.182 4.77273 152.182ZM11.5057 140.364H10.1648V152H11.5057V140.364ZM17.6207 152.182C19.3935 152.182 20.6889 151.295 21.098 149.977L19.8026 149.614C19.4616 150.523 18.6719 150.977 17.6207 150.977C16.0469 150.977 14.9616 149.96 14.8991 148.091H21.2344V147.523C21.2344 144.273 19.3026 143.159 17.4844 143.159C15.1207 143.159 13.5526 145.023 13.5526 147.705C13.5526 150.386 15.098 152.182 17.6207 152.182ZM14.8991 146.932C14.9901 145.574 15.9503 144.364 17.4844 144.364C18.9389 144.364 19.8707 145.455 19.8707 146.932H14.8991ZM25.8423 152.205C27.3651 152.205 28.1605 151.386 28.4332 150.818H28.5014V152H29.8423V146.25C29.8423 143.477 27.7287 143.159 26.6151 143.159C25.2969 143.159 23.7969 143.614 23.1151 145.205L24.3878 145.659C24.6832 145.023 25.3821 144.341 26.6605 144.341C27.8935 144.341 28.5014 144.994 28.5014 146.114V146.159C28.5014 146.807 27.8423 146.75 26.2514 146.955C24.6321 147.165 22.8651 147.523 22.8651 149.523C22.8651 151.227 24.1832 152.205 25.8423 152.205ZM26.0469 151C24.9787 151 24.206 150.523 24.206 149.591C24.206 148.568 25.1378 148.25 26.1832 148.114C26.7514 148.045 28.2741 147.886 28.5014 147.614V148.841C28.5014 149.932 27.6378 151 26.0469 151ZM32.2898 152H33.6307V146.477C33.6307 145.295 34.5625 144.432 35.8352 144.432C36.1932 144.432 36.5625 144.5 36.6534 144.523V143.159C36.5 143.148 36.1477 143.136 35.9489 143.136C34.9034 143.136 33.9943 143.727 33.6761 144.591H33.5852V143.273H32.2898V152ZM46.5384 143.273H44.6747V141.182H43.3338V143.273H42.0156V144.409H43.3338V149.864C43.3338 151.386 44.5611 152.114 45.6974 152.114C46.1974 152.114 46.5156 152.023 46.6974 151.955L46.4247 150.75C46.3111 150.773 46.1293 150.818 45.8338 150.818C45.2429 150.818 44.6747 150.636 44.6747 149.5V144.409H46.5384V143.273ZM48.5554 152H49.8963V146.477C49.8963 145.295 50.8281 144.432 52.1009 144.432C52.4588 144.432 52.8281 144.5 52.919 144.523V143.159C52.7656 143.148 52.4134 143.136 52.2145 143.136C51.169 143.136 50.2599 143.727 49.9418 144.591H49.8509V143.273H48.5554V152ZM57.0767 152.205C58.5994 152.205 59.3949 151.386 59.6676 150.818H59.7358V152H61.0767V146.25C61.0767 143.477 58.9631 143.159 57.8494 143.159C56.5312 143.159 55.0312 143.614 54.3494 145.205L55.6222 145.659C55.9176 145.023 56.6165 144.341 57.8949 144.341C59.1278 144.341 59.7358 144.994 59.7358 146.114V146.159C59.7358 146.807 59.0767 146.75 57.4858 146.955C55.8665 147.165 54.0994 147.523 54.0994 149.523C54.0994 151.227 55.4176 152.205 57.0767 152.205ZM57.2812 151C56.2131 151 55.4403 150.523 55.4403 149.591C55.4403 148.568 56.3722 148.25 57.4176 148.114C57.9858 148.045 59.5085 147.886 59.7358 147.614V148.841C59.7358 149.932 58.8722 151 57.2812 151ZM64.8651 146.75C64.8651 145.227 65.8082 144.364 67.0923 144.364C68.3366 144.364 69.0923 145.176 69.0923 146.545V152H70.4332V146.455C70.4332 144.227 69.2457 143.159 67.4787 143.159C66.1605 143.159 65.3423 143.75 64.9332 144.636H64.8196V143.273H63.5241V152H64.8651V146.75ZM79.0653 145.227C78.6449 143.989 77.7017 143.159 75.9744 143.159C74.1335 143.159 72.7699 144.205 72.7699 145.682C72.7699 146.886 73.4858 147.693 75.0881 148.068L76.5426 148.409C77.4233 148.614 77.8381 149.034 77.8381 149.636C77.8381 150.386 77.0426 151 75.7926 151C74.696 151 74.0085 150.528 73.7699 149.591L72.4972 149.909C72.8097 151.392 74.0312 152.182 75.8153 152.182C77.8438 152.182 79.2244 151.074 79.2244 149.568C79.2244 148.352 78.4631 147.585 76.9062 147.205L75.6108 146.886C74.5767 146.631 74.1108 146.284 74.1108 145.614C74.1108 144.864 74.9062 144.318 75.9744 144.318C77.1449 144.318 77.6278 144.966 77.8608 145.568L79.0653 145.227ZM81.2429 155.273H82.5838V150.659H82.6974C82.9929 151.136 83.5611 152.182 85.2429 152.182C87.4247 152.182 88.9474 150.432 88.9474 147.659C88.9474 144.909 87.4247 143.159 85.2202 143.159C83.5156 143.159 82.9929 144.205 82.6974 144.659H82.5384V143.273H81.2429V155.273ZM82.5611 147.636C82.5611 145.682 83.4247 144.364 85.0611 144.364C86.7656 144.364 87.6065 145.795 87.6065 147.636C87.6065 149.5 86.7429 150.977 85.0611 150.977C83.4474 150.977 82.5611 149.614 82.5611 147.636ZM93.5611 152.205C95.0838 152.205 95.8793 151.386 96.152 150.818H96.2202V152H97.5611V146.25C97.5611 143.477 95.4474 143.159 94.3338 143.159C93.0156 143.159 91.5156 143.614 90.8338 145.205L92.1065 145.659C92.402 145.023 93.1009 144.341 94.3793 144.341C95.6122 144.341 96.2202 144.994 96.2202 146.114V146.159C96.2202 146.807 95.5611 146.75 93.9702 146.955C92.3509 147.165 90.5838 147.523 90.5838 149.523C90.5838 151.227 91.902 152.205 93.5611 152.205ZM93.7656 151C92.6974 151 91.9247 150.523 91.9247 149.591C91.9247 148.568 92.8565 148.25 93.902 148.114C94.4702 148.045 95.9929 147.886 96.2202 147.614V148.841C96.2202 149.932 95.3565 151 93.7656 151ZM100.009 152H101.349V146.477C101.349 145.295 102.281 144.432 103.554 144.432C103.912 144.432 104.281 144.5 104.372 144.523V143.159C104.219 143.148 103.866 143.136 103.668 143.136C102.622 143.136 101.713 143.727 101.395 144.591H101.304V143.273H100.009V152ZM109.355 152.182C111.128 152.182 112.423 151.295 112.832 149.977L111.537 149.614C111.196 150.523 110.406 150.977 109.355 150.977C107.781 150.977 106.696 149.96 106.634 148.091H112.969V147.523C112.969 144.273 111.037 143.159 109.219 143.159C106.855 143.159 105.287 145.023 105.287 147.705C105.287 150.386 106.832 152.182 109.355 152.182ZM106.634 146.932C106.724 145.574 107.685 144.364 109.219 144.364C110.673 144.364 111.605 145.455 111.605 146.932H106.634ZM116.349 146.75C116.349 145.227 117.293 144.364 118.577 144.364C119.821 144.364 120.577 145.176 120.577 146.545V152H121.918V146.455C121.918 144.227 120.73 143.159 118.963 143.159C117.645 143.159 116.827 143.75 116.418 144.636H116.304V143.273H115.009V152H116.349V146.75ZM128.163 143.273H126.3V141.182H124.959V143.273H123.641V144.409H124.959V149.864C124.959 151.386 126.186 152.114 127.322 152.114C127.822 152.114 128.141 152.023 128.322 151.955L128.05 150.75C127.936 150.773 127.754 150.818 127.459 150.818C126.868 150.818 126.3 150.636 126.3 149.5V144.409H128.163V143.273ZM136.021 146.75C136.021 145.227 136.993 144.364 138.317 144.364C139.578 144.364 140.339 145.159 140.339 146.545V152H141.68V146.455C141.68 144.21 140.487 143.159 138.703 143.159C137.328 143.159 136.544 143.733 136.135 144.636H136.021V140.364H134.68V152H136.021V146.75ZM146.702 152.205C148.224 152.205 149.02 151.386 149.293 150.818H149.361V152H150.702V146.25C150.702 143.477 148.588 143.159 147.474 143.159C146.156 143.159 144.656 143.614 143.974 145.205L145.247 145.659C145.543 145.023 146.241 144.341 147.52 144.341C148.753 144.341 149.361 144.994 149.361 146.114V146.159C149.361 146.807 148.702 146.75 147.111 146.955C145.491 147.165 143.724 147.523 143.724 149.523C143.724 151.227 145.043 152.205 146.702 152.205ZM146.906 151C145.838 151 145.065 150.523 145.065 149.591C145.065 148.568 145.997 148.25 147.043 148.114C147.611 148.045 149.134 147.886 149.361 147.614V148.841C149.361 149.932 148.497 151 146.906 151ZM152.899 152H159.74V150.75H154.763V150.659L159.581 144.341V143.273H153.058V144.523H157.854V144.614L152.899 150.977V152ZM164.374 152.205C165.896 152.205 166.692 151.386 166.964 150.818H167.033V152H168.374V146.25C168.374 143.477 166.26 143.159 165.146 143.159C163.828 143.159 162.328 143.614 161.646 145.205L162.919 145.659C163.214 145.023 163.913 144.341 165.192 144.341C166.425 144.341 167.033 144.994 167.033 146.114V146.159C167.033 146.807 166.374 146.75 164.783 146.955C163.163 147.165 161.396 147.523 161.396 149.523C161.396 151.227 162.714 152.205 164.374 152.205ZM164.578 151C163.51 151 162.737 150.523 162.737 149.591C162.737 148.568 163.669 148.25 164.714 148.114C165.283 148.045 166.805 147.886 167.033 147.614V148.841C167.033 149.932 166.169 151 164.578 151ZM170.821 152H172.162V146.477C172.162 145.295 173.094 144.432 174.366 144.432C174.724 144.432 175.094 144.5 175.185 144.523V143.159C175.031 143.148 174.679 143.136 174.48 143.136C173.435 143.136 172.526 143.727 172.207 144.591H172.116V143.273H170.821V152ZM179.804 152.182C181.486 152.182 182.054 151.136 182.349 150.659H182.509V152H183.804V140.364H182.463V144.659H182.349C182.054 144.205 181.531 143.159 179.827 143.159C177.622 143.159 176.099 144.909 176.099 147.659C176.099 150.432 177.622 152.182 179.804 152.182ZM179.986 150.977C178.304 150.977 177.44 149.5 177.44 147.636C177.44 145.795 178.281 144.364 179.986 144.364C181.622 144.364 182.486 145.682 182.486 147.636C182.486 149.614 181.599 150.977 179.986 150.977ZM190.946 152H192.287V143.273H190.946V152ZM191.628 141.818C192.151 141.818 192.582 141.409 192.582 140.909C192.582 140.409 192.151 140 191.628 140C191.105 140 190.673 140.409 190.673 140.909C190.673 141.409 191.105 141.818 191.628 141.818ZM196.084 146.75C196.084 145.227 197.027 144.364 198.311 144.364C199.555 144.364 200.311 145.176 200.311 146.545V152H201.652V146.455C201.652 144.227 200.464 143.159 198.697 143.159C197.379 143.159 196.561 143.75 196.152 144.636H196.038V143.273H194.743V152H196.084V146.75ZM207.989 143.273H206.034V142.386C206.034 141.523 206.398 141.068 207.284 141.068C207.67 141.068 207.898 141.159 208.034 141.205L208.42 140.045C208.216 139.955 207.807 139.818 207.148 139.818C205.898 139.818 204.693 140.568 204.693 142.068V143.273H203.284V144.409H204.693V152H206.034V144.409H207.989V143.273ZM213.054 152.182C215.418 152.182 217.009 150.386 217.009 147.682C217.009 144.955 215.418 143.159 213.054 143.159C210.69 143.159 209.099 144.955 209.099 147.682C209.099 150.386 210.69 152.182 213.054 152.182ZM213.054 150.977C211.259 150.977 210.44 149.432 210.44 147.682C210.44 145.932 211.259 144.364 213.054 144.364C214.849 144.364 215.668 145.932 215.668 147.682C215.668 149.432 214.849 150.977 213.054 150.977ZM219.055 152H220.396V146.477C220.396 145.295 221.328 144.432 222.601 144.432C222.959 144.432 223.328 144.5 223.419 144.523V143.159C223.266 143.148 222.913 143.136 222.714 143.136C221.669 143.136 220.76 143.727 220.442 144.591H220.351V143.273H219.055V152ZM225.009 152H226.349V146.545C226.349 145.267 227.281 144.364 228.327 144.364C229.344 144.364 230.054 145.028 230.054 146.023V152H231.418V146.318C231.418 145.193 232.122 144.364 233.349 144.364C234.304 144.364 235.122 144.869 235.122 146.159V152H236.463V146.159C236.463 144.108 235.361 143.159 233.804 143.159C232.554 143.159 231.639 143.733 231.19 144.636H231.099C230.668 143.705 229.906 143.159 228.759 143.159C227.622 143.159 226.781 143.705 226.418 144.636H226.304V143.273H225.009V152ZM241.483 152.205C243.006 152.205 243.801 151.386 244.074 150.818H244.142V152H245.483V146.25C245.483 143.477 243.369 143.159 242.256 143.159C240.938 143.159 239.438 143.614 238.756 145.205L240.028 145.659C240.324 145.023 241.023 144.341 242.301 144.341C243.534 144.341 244.142 144.994 244.142 146.114V146.159C244.142 146.807 243.483 146.75 241.892 146.955C240.273 147.165 238.506 147.523 238.506 149.523C238.506 151.227 239.824 152.205 241.483 152.205ZM241.688 151C240.619 151 239.847 150.523 239.847 149.591C239.847 148.568 240.778 148.25 241.824 148.114C242.392 148.045 243.915 147.886 244.142 147.614V148.841C244.142 149.932 243.278 151 241.688 151ZM251.726 143.273H249.862V141.182H248.521V143.273H247.203V144.409H248.521V149.864C248.521 151.386 249.749 152.114 250.885 152.114C251.385 152.114 251.703 152.023 251.885 151.955L251.612 150.75C251.499 150.773 251.317 150.818 251.021 150.818C250.43 150.818 249.862 150.636 249.862 149.5V144.409H251.726V143.273ZM253.743 152H255.084V143.273H253.743V152ZM254.425 141.818C254.947 141.818 255.379 141.409 255.379 140.909C255.379 140.409 254.947 140 254.425 140C253.902 140 253.47 140.409 253.47 140.909C253.47 141.409 253.902 141.818 254.425 141.818ZM261.085 152.182C263.449 152.182 265.04 150.386 265.04 147.682C265.04 144.955 263.449 143.159 261.085 143.159C258.722 143.159 257.131 144.955 257.131 147.682C257.131 150.386 258.722 152.182 261.085 152.182ZM261.085 150.977C259.29 150.977 258.472 149.432 258.472 147.682C258.472 145.932 259.29 144.364 261.085 144.364C262.881 144.364 263.699 145.932 263.699 147.682C263.699 149.432 262.881 150.977 261.085 150.977ZM268.428 146.75C268.428 145.227 269.371 144.364 270.655 144.364C271.899 144.364 272.655 145.176 272.655 146.545V152H273.996V146.455C273.996 144.227 272.808 143.159 271.041 143.159C269.723 143.159 268.905 143.75 268.496 144.636H268.382V143.273H267.087V152H268.428V146.75ZM284.741 143.273H282.878V141.182H281.537V143.273H280.219V144.409H281.537V149.864C281.537 151.386 282.764 152.114 283.901 152.114C284.401 152.114 284.719 152.023 284.901 151.955L284.628 150.75C284.514 150.773 284.332 150.818 284.037 150.818C283.446 150.818 282.878 150.636 282.878 149.5V144.409H284.741V143.273ZM290.21 152.182C292.574 152.182 294.165 150.386 294.165 147.682C294.165 144.955 292.574 143.159 290.21 143.159C287.847 143.159 286.256 144.955 286.256 147.682C286.256 150.386 287.847 152.182 290.21 152.182ZM290.21 150.977C288.415 150.977 287.597 149.432 287.597 147.682C287.597 145.932 288.415 144.364 290.21 144.364C292.006 144.364 292.824 145.932 292.824 147.682C292.824 149.432 292.006 150.977 290.21 150.977ZM2.56818 170.75C2.56818 169.227 3.53977 168.364 4.86364 168.364C6.125 168.364 6.88636 169.159 6.88636 170.545V176H8.22727V170.455C8.22727 168.21 7.03409 167.159 5.25 167.159C3.875 167.159 3.09091 167.733 2.68182 168.636H2.56818V164.364H1.22727V176H2.56818V170.75ZM14.3395 176.182C16.1122 176.182 17.4077 175.295 17.8168 173.977L16.5213 173.614C16.1804 174.523 15.3906 174.977 14.3395 174.977C12.7656 174.977 11.6804 173.96 11.6179 172.091H17.9531V171.523C17.9531 168.273 16.0213 167.159 14.2031 167.159C11.8395 167.159 10.2713 169.023 10.2713 171.705C10.2713 174.386 11.8168 176.182 14.3395 176.182ZM11.6179 170.932C11.7088 169.574 12.669 168.364 14.2031 168.364C15.6577 168.364 16.5895 169.455 16.5895 170.932H11.6179ZM21.3338 164.364H19.9929V176H21.3338V164.364ZM23.7898 179.273H25.1307V174.659H25.2443C25.5398 175.136 26.108 176.182 27.7898 176.182C29.9716 176.182 31.4943 174.432 31.4943 171.659C31.4943 168.909 29.9716 167.159 27.767 167.159C26.0625 167.159 25.5398 168.205 25.2443 168.659H25.0852V167.273H23.7898V179.273ZM25.108 171.636C25.108 169.682 25.9716 168.364 27.608 168.364C29.3125 168.364 30.1534 169.795 30.1534 171.636C30.1534 173.5 29.2898 174.977 27.608 174.977C25.9943 174.977 25.108 173.614 25.108 171.636ZM38.9034 179.273C40.1136 179.273 40.9659 178.631 41.4716 177.273L45.1875 167.295L43.7216 167.273L41.3125 174.227H41.2216L38.8125 167.273H37.358L40.5852 176.045L40.3352 176.727C39.8466 178.057 39.2443 178.182 38.267 177.932L37.9261 179.114C38.0625 179.182 38.4489 179.273 38.9034 179.273ZM50.1946 176.182C52.5582 176.182 54.1491 174.386 54.1491 171.682C54.1491 168.955 52.5582 167.159 50.1946 167.159C47.831 167.159 46.2401 168.955 46.2401 171.682C46.2401 174.386 47.831 176.182 50.1946 176.182ZM50.1946 174.977C48.3991 174.977 47.581 173.432 47.581 171.682C47.581 169.932 48.3991 168.364 50.1946 168.364C51.9901 168.364 52.8082 169.932 52.8082 171.682C52.8082 173.432 51.9901 174.977 50.1946 174.977ZM61.696 172.432C61.696 174.068 60.446 174.818 59.446 174.818C58.3324 174.818 57.5369 174 57.5369 172.727V167.273H56.196V172.818C56.196 175.045 57.3778 176.114 59.0142 176.114C60.3324 176.114 61.196 175.409 61.6051 174.523H61.696V176H63.0369V167.273H61.696V172.432ZM73.5156 179.455C75.6065 179.455 77.2884 178.5 77.2884 176.25V167.273H75.9929V168.659H75.8565C75.5611 168.205 75.0156 167.159 73.3111 167.159C71.1065 167.159 69.5838 168.909 69.5838 171.591C69.5838 174.318 71.1747 175.864 73.2884 175.864C74.9929 175.864 75.5384 174.864 75.8338 174.386H75.9474V176.159C75.9474 177.614 74.9247 178.273 73.5156 178.273C71.9304 178.273 71.3736 177.438 71.0156 176.955L69.9474 177.705C70.4929 178.619 71.5668 179.455 73.5156 179.455ZM73.4702 174.659C71.7884 174.659 70.9247 173.386 70.9247 171.568C70.9247 169.795 71.7656 168.364 73.4702 168.364C75.1065 168.364 75.9702 169.682 75.9702 171.568C75.9702 173.5 75.0838 174.659 73.4702 174.659ZM83.402 176.182C85.1747 176.182 86.4702 175.295 86.8793 173.977L85.5838 173.614C85.2429 174.523 84.4531 174.977 83.402 174.977C81.8281 174.977 80.7429 173.96 80.6804 172.091H87.0156V171.523C87.0156 168.273 85.0838 167.159 83.2656 167.159C80.902 167.159 79.3338 169.023 79.3338 171.705C79.3338 174.386 80.8793 176.182 83.402 176.182ZM80.6804 170.932C80.7713 169.574 81.7315 168.364 83.2656 168.364C84.7202 168.364 85.652 169.455 85.652 170.932H80.6804ZM92.8509 167.273H90.9872V165.182H89.6463V167.273H88.3281V168.409H89.6463V173.864C89.6463 175.386 90.8736 176.114 92.0099 176.114C92.5099 176.114 92.8281 176.023 93.0099 175.955L92.7372 174.75C92.6236 174.773 92.4418 174.818 92.1463 174.818C91.5554 174.818 90.9872 174.636 90.9872 173.5V168.409H92.8509V167.273ZM103.163 167.273H101.3V165.182H99.9588V167.273H98.6406V168.409H99.9588V173.864C99.9588 175.386 101.186 176.114 102.322 176.114C102.822 176.114 103.141 176.023 103.322 175.955L103.05 174.75C102.936 174.773 102.754 174.818 102.459 174.818C101.868 174.818 101.3 174.636 101.3 173.5V168.409H103.163V167.273ZM106.709 170.75C106.709 169.227 107.68 168.364 109.004 168.364C110.266 168.364 111.027 169.159 111.027 170.545V176H112.368V170.455C112.368 168.21 111.175 167.159 109.391 167.159C108.016 167.159 107.232 167.733 106.822 168.636H106.709V164.364H105.368V176H106.709V170.75ZM118.48 176.182C120.253 176.182 121.548 175.295 121.957 173.977L120.662 173.614C120.321 174.523 119.531 174.977 118.48 174.977C116.906 174.977 115.821 173.96 115.759 172.091H122.094V171.523C122.094 168.273 120.162 167.159 118.344 167.159C115.98 167.159 114.412 169.023 114.412 171.705C114.412 174.386 115.957 176.182 118.48 176.182ZM115.759 170.932C115.849 169.574 116.81 168.364 118.344 168.364C119.798 168.364 120.73 169.455 120.73 170.932H115.759ZM129.974 170.75C129.974 169.227 130.946 168.364 132.27 168.364C133.531 168.364 134.293 169.159 134.293 170.545V176H135.634V170.455C135.634 168.21 134.44 167.159 132.656 167.159C131.281 167.159 130.497 167.733 130.088 168.636H129.974V164.364H128.634V176H129.974V170.75ZM141.632 176.182C143.996 176.182 145.587 174.386 145.587 171.682C145.587 168.955 143.996 167.159 141.632 167.159C139.268 167.159 137.678 168.955 137.678 171.682C137.678 174.386 139.268 176.182 141.632 176.182ZM141.632 174.977C139.837 174.977 139.018 173.432 139.018 171.682C139.018 169.932 139.837 168.364 141.632 168.364C143.428 168.364 144.246 169.932 144.246 171.682C144.246 173.432 143.428 174.977 141.632 174.977ZM153.134 172.432C153.134 174.068 151.884 174.818 150.884 174.818C149.77 174.818 148.974 174 148.974 172.727V167.273H147.634V172.818C147.634 175.045 148.815 176.114 150.452 176.114C151.77 176.114 152.634 175.409 153.043 174.523H153.134V176H154.474V167.273H153.134V172.432ZM163.112 169.227C162.692 167.989 161.749 167.159 160.021 167.159C158.18 167.159 156.817 168.205 156.817 169.682C156.817 170.886 157.533 171.693 159.135 172.068L160.589 172.409C161.47 172.614 161.885 173.034 161.885 173.636C161.885 174.386 161.089 175 159.839 175C158.743 175 158.055 174.528 157.817 173.591L156.544 173.909C156.857 175.392 158.078 176.182 159.862 176.182C161.891 176.182 163.271 175.074 163.271 173.568C163.271 172.352 162.51 171.585 160.953 171.205L159.658 170.886C158.624 170.631 158.158 170.284 158.158 169.614C158.158 168.864 158.953 168.318 160.021 168.318C161.192 168.318 161.675 168.966 161.908 169.568L163.112 169.227ZM168.949 176.182C170.722 176.182 172.017 175.295 172.426 173.977L171.131 173.614C170.79 174.523 170 174.977 168.949 174.977C167.375 174.977 166.29 173.96 166.227 172.091H172.562V171.523C172.562 168.273 170.631 167.159 168.812 167.159C166.449 167.159 164.881 169.023 164.881 171.705C164.881 174.386 166.426 176.182 168.949 176.182ZM166.227 170.932C166.318 169.574 167.278 168.364 168.812 168.364C170.267 168.364 171.199 169.455 171.199 170.932H166.227ZM179.966 179.273C181.176 179.273 182.028 178.631 182.534 177.273L186.25 167.295L184.784 167.273L182.375 174.227H182.284L179.875 167.273H178.42L181.648 176.045L181.398 176.727C180.909 178.057 180.307 178.182 179.33 177.932L178.989 179.114C179.125 179.182 179.511 179.273 179.966 179.273ZM191.257 176.182C193.621 176.182 195.212 174.386 195.212 171.682C195.212 168.955 193.621 167.159 191.257 167.159C188.893 167.159 187.303 168.955 187.303 171.682C187.303 174.386 188.893 176.182 191.257 176.182ZM191.257 174.977C189.462 174.977 188.643 173.432 188.643 171.682C188.643 169.932 189.462 168.364 191.257 168.364C193.053 168.364 193.871 169.932 193.871 171.682C193.871 173.432 193.053 174.977 191.257 174.977ZM202.759 172.432C202.759 174.068 201.509 174.818 200.509 174.818C199.395 174.818 198.599 174 198.599 172.727V167.273H197.259V172.818C197.259 175.045 198.44 176.114 200.077 176.114C201.395 176.114 202.259 175.409 202.668 174.523H202.759V176H204.099V167.273H202.759V172.432ZM212.396 164.364H211.055V176H212.396V164.364ZM218.398 176.182C220.761 176.182 222.352 174.386 222.352 171.682C222.352 168.955 220.761 167.159 218.398 167.159C216.034 167.159 214.443 168.955 214.443 171.682C214.443 174.386 216.034 176.182 218.398 176.182ZM218.398 174.977C216.602 174.977 215.784 173.432 215.784 171.682C215.784 169.932 216.602 168.364 218.398 168.364C220.193 168.364 221.011 169.932 221.011 171.682C221.011 173.432 220.193 174.977 218.398 174.977ZM231.223 167.273H229.768L227.359 174.227H227.268L224.859 167.273H223.405L226.632 176H227.996L231.223 167.273ZM236.339 176.182C238.112 176.182 239.408 175.295 239.817 173.977L238.521 173.614C238.18 174.523 237.391 174.977 236.339 174.977C234.766 174.977 233.68 173.96 233.618 172.091H239.953V171.523C239.953 168.273 238.021 167.159 236.203 167.159C233.839 167.159 232.271 169.023 232.271 171.705C232.271 174.386 233.817 176.182 236.339 176.182ZM233.618 170.932C233.709 169.574 234.669 168.364 236.203 168.364C237.658 168.364 238.589 169.455 238.589 170.932H233.618ZM242.97 176.091C243.533 176.091 243.993 175.631 243.993 175.068C243.993 174.506 243.533 174.045 242.97 174.045C242.408 174.045 241.947 174.506 241.947 175.068C241.947 175.631 242.408 176.091 242.97 176.091Z" fill="#4F4F4F"/>
<path opacity="0.2" d="M51 25.5C51 39.5833 39.5833 51 25.5 51C11.4167 51 0 39.5833 0 25.5C0 11.4167 11.4167 0 25.5 0C39.5833 0 51 11.4167 51 25.5Z" fill="#5C5CE5"/>
<path d="M22.791 21.7273C23.4237 22.5455 24.6893 22.9091 25.774 22.9091C28.2147 22.9091 30.3842 23.6364 32.0113 25.2727C33.096 26.4545 33.7288 27.9091 33.7288 29.4545C33.7288 32.3636 31.3785 34.9091 27.9435 35.4545V38C27.9435 39.2727 26.9492 40 25.774 40C24.5989 40 23.6949 39 23.6949 38V35.4545C22.2486 35.0909 20.8023 34.4545 19.8983 33.4545C18.7232 32.2727 18 30.8182 18 29.2727C18 28.0909 18.9943 27.2727 20.1695 27.2727C21.3446 27.2727 22.4294 28.2727 22.4294 29.4545C22.4294 29.9091 22.6102 30.3636 22.9718 30.6364C23.6949 31.2727 24.6893 31.5455 25.8644 31.5455C28.0339 31.5455 29.4802 30.4545 29.4802 29.4545C29.4802 28.8182 29.2994 28.5455 29.0282 28.3636C28.3051 27.6364 27.3107 27.1818 25.9548 27.1818C23.6045 27.1818 21.435 26.3636 19.9887 24.7273C18.904 23.5455 18.1808 22.0909 18.1808 20.6364C18.1808 17.7273 20.6215 15.1818 23.9661 14.5455V12C23.9661 11 24.9605 10 26.1356 10C27.4915 10 28.3955 11 28.3955 12.0909V14.4545C29.8418 14.8182 31.2881 15.6364 32.2825 16.5455C33.4576 17.7273 34 19.0909 34 20.6364C34 21.9091 33.0056 22.8182 31.8305 22.8182C30.7458 22.8182 29.8418 21.9091 29.8418 20.6364C29.8418 20.0909 29.4802 19.8182 29.2994 19.5455C28.6667 18.9091 27.5819 18.4545 26.226 18.4545C24.1469 18.4545 22.791 19.5455 22.7006 20.4545C22.339 21.0909 22.6102 21.5455 22.791 21.7273Z" fill="#5C5CE5"/>
</svg>
