<svg width="496" height="653" viewBox="0 0 496 653" fill="none" xmlns="http://www.w3.org/2000/svg">
<g opacity="0.2">
<path d="M651.456 590.037C643.166 554.316 666.178 514.308 649.455 481.587C639.45 462.155 616.724 451.295 594.999 451.581C573.13 452.01 552.405 462.155 535.539 476.157C514.528 493.59 497.52 517.451 471.935 526.739C431.771 541.17 393.323 518.88 355.589 509.307C318.856 500.019 280.693 513.165 243.388 519.595C206.083 526.025 161.203 522.738 139.62 491.589C125.041 470.728 125.47 443.008 128.329 417.717C131.33 392.426 136.19 366.278 129.043 341.845C119.467 309.124 90.4521 286.262 61.2941 268.687C44.7141 258.828 27.2766 249.541 14.6986 234.824C-18.0326 196.387 16.1279 155.093 31.9933 118.086C50.1455 75.9346 47.8586 29.211 75.3014 -10.6542C111.892 -63.6648 179.069 -85.6692 242.388 -97.5287C302.276 -108.674 363.879 -113.532 423.91 -103.673C461.644 -97.5287 498.091 -85.5263 534.396 -73.5239C587.137 -56.2347 641.308 -38.0882 683.187 -1.65236C714.203 25.2102 736.5 60.6458 756.939 96.2244C780.094 136.375 801.534 177.669 814.826 222.107C826.261 260.4 831.121 300.408 834.98 340.273C839.125 383.139 841.84 426.005 843.413 469.013C844.842 506.449 844.842 545.457 829.263 579.464C812.826 615.185 778.236 642.619 739.788 650.907C704.341 658.48 659.603 625.473 651.456 590.037Z" fill="white" stroke="#6F6FD2" stroke-miterlimit="10"/>
<path d="M68.8193 91.8083C70.3917 53.6756 61.1002 26.8256 92.2626 -1.59546C159.448 -62.5793 235.209 -120.992 324.837 -135.274C365.291 -141.701 406.746 -138.845 447.485 -133.989C516.1 -125.705 585.715 -110.995 644.752 -75.1474C733.665 -21.3045 789.414 75.8126 813.715 176.786C837.873 277.616 833.871 383.017 825.58 486.418C823.435 513.125 820.862 540.547 809.141 564.54C794.131 595.246 748.103 637.521 712.08 619.811C708.077 617.812 704.075 615.527 700.215 612.956C679.774 599.388 663.192 578.394 656.331 553.4C655.902 551.829 655.473 550.115 655.187 548.544C648.326 517.41 654.186 483.847 635.746 461.71C634.746 460.568 633.888 459.425 632.744 458.425C619.45 444.572 597.722 438.859 576.852 441.43C562.272 443.287 548.12 448.714 535.255 455.855C529.537 458.997 524.105 462.424 518.816 466.138C497.231 481.277 477.933 499.986 452.632 507.555C422.184 516.839 393.023 502.557 364.433 495.416C336.559 488.418 307.969 495.987 280.238 498.558C252.506 500.986 219.914 496.558 203.904 472.707C190.324 452.713 190.467 426.291 189.466 403.012C189.181 397.013 188.895 391.158 188.18 385.445C186.036 368.592 181.89 354.025 172.885 340.6C166.166 330.459 157.018 321.89 146.582 313.892C132.431 303.181 115.849 293.184 99.9817 283.472C84.2576 273.76 68.5334 263.477 58.2413 248.481C41.9453 224.63 46.2337 198.78 53.2381 174.072C59.9566 150.65 65.6745 129.37 67.6757 107.518C68.2475 102.091 68.6764 96.9498 68.8193 91.8083Z" fill="white" stroke="#6F6FD2" stroke-miterlimit="10"/>
<path d="M665.963 514.308C665.534 512.738 664.962 511.167 664.533 509.597C655.667 480.044 649.518 448.777 624.636 434.643C623.349 433.929 622.062 433.215 620.775 432.644C604.186 424.364 583.308 423.793 563.431 428.647C549.56 432.073 535.975 437.784 523.534 444.351C517.956 447.207 512.379 450.348 507.088 453.489C484.78 466.481 463.33 480.044 438.305 485.755C417.712 490.466 397.692 483.47 378.101 478.902C359.082 474.333 339.919 476.332 321.758 474.904C303.597 473.476 283.577 467.623 272.995 451.204C260.553 431.93 260.267 406.803 255.405 385.53C254.118 379.962 252.545 374.68 250.257 369.683C243.822 354.978 233.955 345.127 221.371 336.561C212.076 330.279 201.208 325.139 190.197 319.999C175.038 312.861 158.45 304.866 143.578 295.443C128.706 286.02 114.978 274.741 106.684 259.465C92.2405 232.767 98.8186 203.214 104.968 175.659C110.974 148.391 110.545 125.405 105.54 99.849C104.396 94.281 103.395 88.4274 102.251 82.7166C96.8166 52.8779 92.2405 13.4735 119.697 -7.51358C133.568 -18.0785 150.871 -22.6471 167.745 -26.9302C247.54 -47.3462 327.907 -66.9056 410.133 -72.4736C492.359 -78.0416 576.873 -69.0472 651.52 -34.3542C677.26 -22.3616 701.714 -7.37082 721.877 12.3314C764.348 53.8772 785.084 112.841 796.238 171.091C809.394 239.192 811.539 308.72 813.541 377.964C814.542 411.229 815.543 444.494 816.544 477.759C817.545 511.167 818.26 546.146 803.102 575.985C793.95 593.974 778.076 609.821 758.056 613.39C712.153 621.385 676.831 548.716 665.963 514.308Z" fill="white" stroke="#6F6FD2" stroke-miterlimit="10"/>
<path d="M710.226 544.598C699.223 520.888 693.935 495.035 684.647 470.754C673.93 442.616 655.782 413.478 624.345 407.479C588.906 400.766 553.611 417.906 522.602 432.76C494.452 446.187 465.872 460.613 434.864 463.898C403.855 467.183 369.131 456.471 353.127 429.618C339.123 406.194 341.409 374.485 323.547 353.917C304.971 332.492 272.819 331.635 244.954 325.922C212.231 319.209 179.079 301.212 166.361 270.36C154.072 240.651 162.646 207.371 167.79 177.09C173.077 145.81 166.79 120.957 154.644 91.9624C143.498 65.5384 132.066 35.9721 141.497 8.83395C154.358 -28.3025 196.655 -51.8698 229.664 -68.724C268.246 -88.4349 310.544 -101.004 353.699 -104.718C427.576 -111.288 503.454 -92.4342 565.757 -52.1555C590.621 -36.0154 613.342 -16.733 637.92 -0.164482C661.784 15.8327 687.505 29.259 714.513 39.5429C723.229 42.828 732.375 46.1132 739.234 52.3978C749.951 62.3961 753.095 77.822 755.381 92.3909C779.102 242.365 781.96 394.91 784.961 546.741C785.246 560.453 784.246 576.593 772.957 584.306C749.236 599.731 718.799 563.023 710.226 544.598Z" fill="white" stroke="#6F6FD2" stroke-width="2" stroke-miterlimit="10"/>
<path d="M707.342 404.265C698.911 383.128 692.766 361.135 684.049 339.999C678.762 327.289 672.188 314.435 664.043 303.296C656.612 293.156 647.752 284.302 636.034 279.446C633.605 278.447 631.176 277.59 628.746 276.876C614.17 272.734 598.165 274.305 583.16 278.732C570.871 282.445 559.01 287.872 547.721 293.585C545.291 294.87 542.719 296.013 540.29 297.298C518.569 308.294 496.419 319.719 472.983 325.432C446.689 332.001 416.25 332.144 398.388 315.721C386.67 305.01 385.526 287.301 373.38 275.733C360.661 263.737 341.37 261.309 325.222 255.597C321.506 254.311 317.934 252.74 314.361 251.027C299.642 243.6 286.781 232.033 281.351 216.038C273.062 191.474 278.064 164.054 284.352 139.776C286.495 131.35 288.353 123.495 290.068 116.069C293.212 102.216 295.069 90.0769 296.641 77.795C297.642 69.9404 299.071 62.2285 301.214 54.3738C303.929 44.6626 308.073 34.6657 313.932 23.2407C314.075 22.955 314.218 22.5266 314.504 22.241C331.224 -10.3203 345.8 -39.5968 377.953 -57.3056C415.393 -77.8706 454.977 -96.4362 498.134 -100.292C539.718 -103.862 581.303 -93.4372 620.887 -80.0128C656.326 -68.0165 691.48 -53.164 719.918 -28.7431C776.793 20.0988 797.228 98.2173 812.804 171.48C826.809 237.602 839.241 304.724 835.24 372.132C833.668 398.838 828.809 426.829 812.09 447.68C766.218 504.805 725.348 449.25 707.342 404.265Z" fill="white" stroke="#6F6FD2" stroke-width="2" stroke-miterlimit="10"/>
<path d="M681.246 180.783C674.958 169.19 667.67 157.598 656.381 150.728C644.948 143.859 630.658 142.857 617.511 145.719C604.363 148.438 592.359 154.592 580.641 161.033C541.771 182.214 501.758 208.261 457.458 205.542C441.595 204.54 424.59 198.672 416.444 185.076C412.872 179.208 411.3 172.339 410.013 165.612C405.441 139.422 408.013 110.37 424.447 89.6178C437.022 73.875 456.029 64.7156 474.749 56.9873C484.324 53.1232 494.47 48.9728 500.758 40.8152C509.189 29.9384 508.617 14.9112 510.761 1.17207C513.047 -13.4258 517.62 -28.5961 527.052 -40.0453C555.776 -74.5363 602.648 -87.703 647.378 -92.1396C654.951 -92.8552 662.525 -93.4276 669.956 -92.5689C691.392 -90.136 710.255 -75.9675 722.974 -58.3642C735.692 -40.7609 742.838 -20.0091 748.84 0.742737C768.846 69.4384 777.706 141.998 768.132 212.984C765.988 229.442 762.701 245.9 754.556 260.355C750.269 268.083 743.124 275.669 734.406 274.953C720.688 273.951 714.686 252.77 709.684 242.323C699.823 221.857 692.25 200.676 681.246 180.783Z" fill="white" stroke="#6F6FD2" stroke-width="2" stroke-miterlimit="10"/>
<path d="M534.233 10.0649C538.519 -10.069 554.236 -32.4875 572.525 -42.483C583.812 -48.6231 598.1 -51.0506 609.959 -56.334C621.676 -61.6173 633.106 -67.4719 645.108 -72.184C670.398 -82.1796 701.403 -86.3206 723.264 -70.1849C739.981 -57.9047 747.411 -36.7713 753.126 -16.6375C773.558 54.9019 784.274 129.297 784.988 203.692C785.131 221.399 784.131 240.962 771.843 253.813C765.842 260.096 756.841 264.237 748.268 262.666C732.408 259.953 726.836 244.817 721.406 232.251C713.691 214.402 702.118 197.41 691.83 180.988C685.686 171.278 679.114 161.14 669.684 154.714C662.254 149.574 653.538 147.146 645.108 146.432C642.679 146.29 640.393 146.147 637.964 146.29C627.534 146.718 617.961 149.574 608.531 152.715C598.672 156 588.384 159.712 577.668 163.139C554.665 170.707 529.518 177.847 503.085 175.991C500.799 175.848 498.512 175.562 496.369 175.277C484.51 173.42 472.937 168.994 466.079 159.998C462.507 155.428 460.363 150.002 458.792 144.29C453.505 123.871 455.362 100.596 467.507 83.6034C476.795 70.6092 491.083 62.7556 505.371 55.7587C512.658 52.1889 520.516 48.619 525.374 42.0505C532.089 32.769 531.947 20.7744 534.233 10.0649Z" fill="white" stroke="#6F6FD2" stroke-width="2" stroke-miterlimit="10"/>
</g>
</svg>
