<svg width="494" height="275" viewBox="0 0 494 275" fill="none" xmlns="http://www.w3.org/2000/svg">
<circle opacity="0.5" cx="331.5" cy="136.5" r="73" stroke="#343473"/>
<circle opacity="0.8" cx="331.5" cy="136.5" r="43" stroke="#343473"/>
<circle opacity="0.3" cx="327.5" cy="136.5" r="107" stroke="#343473"/>
<circle opacity="0.1" cx="327.5" cy="137.5" r="137" stroke="#343473"/>
<g filter="url(#filter0_d)">
<rect x="24" y="60" width="308" height="95" rx="6.88691" fill="white"/>
<path opacity="0.3" d="M42.6152 112.47H47.9107V116H42.6152V112.47ZM47.7502 112.47H53.0457V116H47.7502V112.47ZM52.8852 112.47H58.1806V116H52.8852V112.47ZM58.0202 112.47H63.3156V116H58.0202V112.47ZM63.1551 112.47H68.4506V116H63.1551V112.47ZM68.2901 112.47H73.5856V116H68.2901V112.47ZM73.4251 112.47H78.7205V116H73.4251V112.47ZM78.5601 112.47H83.8555V116H78.5601V112.47ZM93.9971 112.47H99.2925V116H93.9971V112.47ZM99.1321 112.47H104.428V116H99.1321V112.47ZM104.267 112.47H109.562V116H104.267V112.47ZM119.704 112.47H125V116H119.704V112.47ZM124.839 112.47H130.134V116H124.839V112.47ZM129.974 112.47H135.269V116H129.974V112.47ZM135.109 112.47H140.404V116H135.109V112.47ZM150.546 112.47H155.841V116H150.546V112.47ZM155.681 112.47H160.976V116H155.681V112.47ZM160.816 112.47H166.111V116H160.816V112.47ZM165.951 112.47H171.246V116H165.951V112.47ZM171.086 112.47H176.381V116H171.086V112.47ZM176.221 112.47H181.516V116H176.221V112.47ZM42.6152 122.47H47.9107V126H42.6152V122.47ZM47.7502 122.47H53.0457V126H47.7502V122.47ZM63.1872 122.47H68.4827V126H63.1872V122.47ZM68.3222 122.47H73.6177V126H68.3222V122.47ZM73.4572 122.47H78.7526V126H73.4572V122.47ZM88.8942 122.47H94.1897V126H88.8942V122.47ZM94.0292 122.47H99.3246V126H94.0292V122.47ZM109.466 122.47H114.762V126H109.466V122.47ZM114.601 122.47H119.897V126H114.601V122.47ZM119.736 122.47H125.032V126H119.736V122.47ZM124.871 122.47H130.167V126H124.871V122.47ZM140.308 122.47H145.604V126H140.308V122.47ZM145.443 122.47H150.739V126H145.443V122.47ZM160.88 122.47H166.176V126H160.88V122.47ZM166.015 122.47H171.311V126H166.015V122.47ZM171.15 122.47H176.446V126H171.15V122.47Z" fill="#343473"/>
<path d="M217 78C217 74.6863 219.686 72 223 72H315C318.314 72 321 74.6863 321 78V102C321 105.314 318.314 108 315 108H223C219.686 108 217 105.314 217 102V78Z" fill="#FAFAFA"/>
<path d="M227.209 83.9091V97H229.485V87.9872H229.606L233.224 96.9616H234.924L238.542 88.0064H238.664V97H240.939V83.9091H238.037L234.151 93.3949H233.998L230.111 83.9091H227.209ZM247.766 97.1918C250.054 97.1918 251.627 96.0732 252.036 94.3665L249.875 94.1236C249.562 94.9545 248.795 95.3892 247.798 95.3892C246.302 95.3892 245.311 94.4048 245.292 92.7237H252.132V92.0142C252.132 88.5689 250.061 87.054 247.645 87.054C244.832 87.054 242.998 89.1186 242.998 92.1484C242.998 95.2294 244.806 97.1918 247.766 97.1918ZM245.299 91.1641C245.369 89.9112 246.296 88.8565 247.676 88.8565C249.006 88.8565 249.901 89.8281 249.914 91.1641H245.299ZM257.733 97.1726C259.42 97.1726 260.181 96.169 260.545 95.4531H260.686V97H262.961V83.9091H260.641V88.8054H260.545C260.194 88.0959 259.471 87.054 257.739 87.054C255.47 87.054 253.687 88.831 253.687 92.1037C253.687 95.3381 255.419 97.1726 257.733 97.1726ZM258.378 95.2741C256.851 95.2741 256.045 93.9318 256.045 92.0909C256.045 90.2628 256.838 88.9524 258.378 88.9524C259.868 88.9524 260.686 90.1861 260.686 92.0909C260.686 93.9957 259.855 95.2741 258.378 95.2741ZM271.378 90.5952H265.485V92.5H271.378V90.5952ZM273.914 97H276.286V91.4389H282.352V97H284.73V83.9091H282.352V89.451H276.286V83.9091H273.914V97ZM287.206 97H289.52V87.1818H287.206V97ZM288.37 85.7884C289.105 85.7884 289.706 85.2259 289.706 84.5355C289.706 83.8388 289.105 83.2763 288.37 83.2763C287.628 83.2763 287.028 83.8388 287.028 84.5355C287.028 85.2259 287.628 85.7884 288.37 85.7884ZM296.17 100.886C298.822 100.886 300.778 99.6719 300.778 97.1598V87.1818H298.496V88.8054H298.369C298.017 88.0959 297.282 87.054 295.55 87.054C293.281 87.054 291.497 88.831 291.497 92.0589C291.497 95.2614 293.281 96.8594 295.543 96.8594C297.224 96.8594 298.011 95.9581 298.369 95.2358H298.484V97.0959C298.484 98.5405 297.525 99.1349 296.208 99.1349C294.815 99.1349 294.201 98.4766 293.92 97.9013L291.836 98.4062C292.258 99.7805 293.67 100.886 296.17 100.886ZM296.189 95.044C294.661 95.044 293.856 93.8551 293.856 92.0462C293.856 90.2628 294.648 88.9524 296.189 88.9524C297.678 88.9524 298.496 90.1861 298.496 92.0462C298.496 93.919 297.665 95.044 296.189 95.044ZM305.464 91.2472C305.464 89.8281 306.346 89.0099 307.586 89.0099C308.8 89.0099 309.516 89.7834 309.516 91.1065V97H311.83V90.7486C311.83 88.3771 310.488 87.054 308.449 87.054C306.94 87.054 305.982 87.7379 305.528 88.8501H305.413V83.9091H303.15V97H305.464V91.2472Z" fill="#B4523B"/>
<path d="M43.3647 98.5586H45.5734V94.0936H47.8238L50.217 98.5586H52.6817L50.0444 93.7245C51.4791 93.147 52.2352 91.9206 52.2352 90.2655C52.2352 87.9378 50.735 86.3661 47.9369 86.3661H43.3647V98.5586ZM45.5734 92.2599V88.2116H47.5975C49.2466 88.2116 49.9848 88.9677 49.9848 90.2655C49.9848 91.5634 49.2466 92.2599 47.6094 92.2599H45.5734ZM54.173 98.5586H56.3282V89.4142H54.173V98.5586ZM55.2566 88.1164C55.9412 88.1164 56.5008 87.5925 56.5008 86.9495C56.5008 86.3006 55.9412 85.7767 55.2566 85.7767C54.566 85.7767 54.0064 86.3006 54.0064 86.9495C54.0064 87.5925 54.566 88.1164 55.2566 88.1164ZM65.7717 91.8313C65.474 90.2834 64.2357 89.2951 62.0925 89.2951C59.8898 89.2951 58.3895 90.3787 58.3955 92.0694C58.3895 93.403 59.2111 94.2841 60.9673 94.6472L62.5271 94.9747C63.3665 95.1592 63.7595 95.4986 63.7595 96.0165C63.7595 96.6416 63.0808 97.1119 62.0568 97.1119C61.0685 97.1119 60.4256 96.6833 60.241 95.8617L58.1395 96.0641C58.4074 97.743 59.8183 98.7372 62.0628 98.7372C64.3489 98.7372 65.9622 97.5525 65.9682 95.82C65.9622 94.5163 65.1228 93.7185 63.3963 93.3434L61.8365 93.01C60.9078 92.8017 60.5387 92.4802 60.5446 91.9503C60.5387 91.3312 61.2233 90.9026 62.1223 90.9026C63.1165 90.9026 63.6404 91.4443 63.8071 92.0456L65.7717 91.8313ZM67.7453 98.5586H69.9004V95.4867L70.6862 94.6472L73.4843 98.5586H76.0621L72.3115 93.3613L75.8538 89.4142H73.3355L70.0492 93.0874H69.9004V86.3661H67.7453V98.5586ZM83.6036 86.3661H81.4484V98.5586H83.6036V86.3661ZM89.868 98.7372C91.9993 98.7372 93.4638 97.6954 93.8448 96.1058L91.8326 95.8796C91.5409 96.6535 90.8265 97.0583 89.8978 97.0583C88.5047 97.0583 87.5819 96.1415 87.564 94.5758H93.9342V93.915C93.9342 90.7061 92.0053 89.2951 89.7549 89.2951C87.1354 89.2951 85.4268 91.2181 85.4268 94.04C85.4268 96.9095 87.1116 98.7372 89.868 98.7372ZM87.57 93.1232C87.6355 91.9563 88.4987 90.974 89.7846 90.974C91.023 90.974 91.8564 91.8789 91.8683 93.1232H87.57ZM103.663 89.4142H101.371L99.2639 96.207H99.1687L97.0671 89.4142H94.7691L98.0256 98.5586H100.407L103.663 89.4142ZM108.892 98.7372C111.023 98.7372 112.488 97.6954 112.869 96.1058L110.857 95.8796C110.565 96.6535 109.851 97.0583 108.922 97.0583C107.529 97.0583 106.606 96.1415 106.588 94.5758H112.958V93.915C112.958 90.7061 111.029 89.2951 108.779 89.2951C106.159 89.2951 104.451 91.2181 104.451 94.04C104.451 96.9095 106.136 98.7372 108.892 98.7372ZM106.594 93.1232C106.659 91.9563 107.523 90.974 108.809 90.974C110.047 90.974 110.88 91.8789 110.892 93.1232H106.594ZM116.937 86.3661H114.781V98.5586H116.937V86.3661Z" fill="#343473"/>
</g>
<g filter="url(#filter1_d)">
<rect x="24" y="163" width="308" height="95" rx="6.88691" fill="white"/>
<path opacity="0.3" d="M42.6152 215.47H47.9107V219H42.6152V215.47ZM47.7502 215.47H53.0457V219H47.7502V215.47ZM52.8852 215.47H58.1806V219H52.8852V215.47ZM58.0202 215.47H63.3156V219H58.0202V215.47ZM63.1551 215.47H68.4506V219H63.1551V215.47ZM68.2901 215.47H73.5856V219H68.2901V215.47ZM73.4251 215.47H78.7205V219H73.4251V215.47ZM78.5601 215.47H83.8555V219H78.5601V215.47ZM93.9971 215.47H99.2925V219H93.9971V215.47ZM99.1321 215.47H104.428V219H99.1321V215.47ZM104.267 215.47H109.562V219H104.267V215.47ZM119.704 215.47H125V219H119.704V215.47ZM124.839 215.47H130.134V219H124.839V215.47ZM129.974 215.47H135.269V219H129.974V215.47ZM135.109 215.47H140.404V219H135.109V215.47ZM150.546 215.47H155.841V219H150.546V215.47ZM155.681 215.47H160.976V219H155.681V215.47ZM160.816 215.47H166.111V219H160.816V215.47ZM165.951 215.47H171.246V219H165.951V215.47ZM171.086 215.47H176.381V219H171.086V215.47ZM176.221 215.47H181.516V219H176.221V215.47ZM42.6152 225.47H47.9107V229H42.6152V225.47ZM47.7502 225.47H53.0457V229H47.7502V225.47ZM63.1872 225.47H68.4827V229H63.1872V225.47ZM68.3222 225.47H73.6177V229H68.3222V225.47ZM73.4572 225.47H78.7526V229H73.4572V225.47ZM88.8942 225.47H94.1897V229H88.8942V225.47ZM94.0292 225.47H99.3246V229H94.0292V225.47ZM109.466 225.47H114.762V229H109.466V225.47ZM114.601 225.47H119.897V229H114.601V225.47ZM119.736 225.47H125.032V229H119.736V225.47ZM124.871 225.47H130.167V229H124.871V225.47ZM140.308 225.47H145.604V229H140.308V225.47ZM145.443 225.47H150.739V229H145.443V225.47ZM160.88 225.47H166.176V229H160.88V225.47ZM166.015 225.47H171.311V229H166.015V225.47ZM171.15 225.47H176.446V229H171.15V225.47Z" fill="#343473"/>
<path d="M271 181C271 177.686 273.686 175 277 175H318C321.314 175 324 177.686 324 181V205C324 208.314 321.314 211 318 211H277C273.686 211 271 208.314 271 205V181Z" fill="#FAFAFA"/>
<path d="M281.106 200H290.124V198.11H283.5V187.148H281.106V200ZM300.784 195.428C300.784 192.476 298.858 190.64 296.158 190.64C293.458 190.64 291.532 192.476 291.532 195.428C291.532 198.398 293.458 200.216 296.158 200.216C298.858 200.216 300.784 198.398 300.784 195.428ZM293.836 195.428C293.836 193.52 294.664 192.35 296.158 192.35C297.634 192.35 298.48 193.52 298.48 195.428C298.48 197.354 297.634 198.506 296.158 198.506C294.664 198.506 293.836 197.354 293.836 195.428ZM309.781 190.856H307.639L305.893 197.642H305.857L304.003 190.856H301.717L304.507 200H306.865L308.647 193.394H308.701L310.501 200H312.841L315.631 190.856H313.417L311.563 197.642H311.527L309.781 190.856Z" fill="#21AD2D"/>
<path d="M43.3647 201.559H45.5734V197.094H47.8238L50.217 201.559H52.6817L50.0444 196.724C51.4791 196.147 52.2352 194.921 52.2352 193.266C52.2352 190.938 50.735 189.366 47.9369 189.366H43.3647V201.559ZM45.5734 195.26V191.212H47.5975C49.2466 191.212 49.9848 191.968 49.9848 193.266C49.9848 194.563 49.2466 195.26 47.6094 195.26H45.5734ZM54.173 201.559H56.3282V192.414H54.173V201.559ZM55.2566 191.116C55.9412 191.116 56.5008 190.592 56.5008 189.95C56.5008 189.301 55.9412 188.777 55.2566 188.777C54.566 188.777 54.0064 189.301 54.0064 189.95C54.0064 190.592 54.566 191.116 55.2566 191.116ZM65.7717 194.831C65.474 193.283 64.2357 192.295 62.0925 192.295C59.8898 192.295 58.3895 193.379 58.3955 195.069C58.3895 196.403 59.2111 197.284 60.9673 197.647L62.5271 197.975C63.3665 198.159 63.7595 198.499 63.7595 199.017C63.7595 199.642 63.0808 200.112 62.0568 200.112C61.0685 200.112 60.4256 199.683 60.241 198.862L58.1395 199.064C58.4074 200.743 59.8183 201.737 62.0628 201.737C64.3489 201.737 65.9622 200.552 65.9682 198.82C65.9622 197.516 65.1228 196.718 63.3963 196.343L61.8365 196.01C60.9078 195.802 60.5387 195.48 60.5446 194.95C60.5387 194.331 61.2233 193.903 62.1223 193.903C63.1165 193.903 63.6404 194.444 63.8071 195.046L65.7717 194.831ZM67.7453 201.559H69.9004V198.487L70.6862 197.647L73.4843 201.559H76.0621L72.3115 196.361L75.8538 192.414H73.3355L70.0492 196.087H69.9004V189.366H67.7453V201.559ZM83.6036 189.366H81.4484V201.559H83.6036V189.366ZM89.868 201.737C91.9993 201.737 93.4638 200.695 93.8448 199.106L91.8326 198.88C91.5409 199.654 90.8265 200.058 89.8978 200.058C88.5047 200.058 87.5819 199.142 87.564 197.576H93.9342V196.915C93.9342 193.706 92.0053 192.295 89.7549 192.295C87.1354 192.295 85.4268 194.218 85.4268 197.04C85.4268 199.91 87.1116 201.737 89.868 201.737ZM87.57 196.123C87.6355 194.956 88.4987 193.974 89.7846 193.974C91.023 193.974 91.8564 194.879 91.8683 196.123H87.57ZM103.663 192.414H101.371L99.2639 199.207H99.1687L97.0671 192.414H94.7691L98.0256 201.559H100.407L103.663 192.414ZM108.892 201.737C111.023 201.737 112.488 200.695 112.869 199.106L110.857 198.88C110.565 199.654 109.851 200.058 108.922 200.058C107.529 200.058 106.606 199.142 106.588 197.576H112.958V196.915C112.958 193.706 111.029 192.295 108.779 192.295C106.159 192.295 104.451 194.218 104.451 197.04C104.451 199.91 106.136 201.737 108.892 201.737ZM106.594 196.123C106.659 194.956 107.523 193.974 108.809 193.974C110.047 193.974 110.88 194.879 110.892 196.123H106.594ZM116.937 189.366H114.781V201.559H116.937V189.366Z" fill="#343473"/>
</g>
<path d="M357 122L349.5 119L334.5 113L316.25 120.3L312 122V145.3C312 149.875 315.525 154.275 319.5 157.8C320.8 158.95 322.175 160 323.475 160.95C324.375 161.625 325.3 162.25 326.175 162.8C328.85 164.553 331.63 166.14 334.5 167.55C337.397 166.161 340.196 164.574 342.875 162.8C345.187 161.287 347.392 159.616 349.475 157.8C353.7 154.05 357 149.7 357 145.3V122Z" fill="#343473"/>
<path fill-rule="evenodd" clip-rule="evenodd" d="M346.998 132.931L329.378 150.551L321.475 142.648L323.644 140.478L329.378 146.212L344.828 130.762L346.998 132.931Z" fill="white" stroke="white" stroke-width="2"/>
<defs>
<filter id="filter0_d" x="8" y="48" width="340" height="127" filterUnits="userSpaceOnUse" color-interpolation-filters="sRGB">
<feFlood flood-opacity="0" result="BackgroundImageFix"/>
<feColorMatrix in="SourceAlpha" type="matrix" values="0 0 0 0 0 0 0 0 0 0 0 0 0 0 0 0 0 0 127 0" result="hardAlpha"/>
<feOffset dy="4"/>
<feGaussianBlur stdDeviation="8"/>
<feColorMatrix type="matrix" values="0 0 0 0 0.133333 0 0 0 0 0.133333 0 0 0 0 0.133333 0 0 0 0.15 0"/>
<feBlend mode="normal" in2="BackgroundImageFix" result="effect1_dropShadow"/>
<feBlend mode="normal" in="SourceGraphic" in2="effect1_dropShadow" result="shape"/>
</filter>
<filter id="filter1_d" x="18" y="157" width="320" height="107" filterUnits="userSpaceOnUse" color-interpolation-filters="sRGB">
<feFlood flood-opacity="0" result="BackgroundImageFix"/>
<feColorMatrix in="SourceAlpha" type="matrix" values="0 0 0 0 0 0 0 0 0 0 0 0 0 0 0 0 0 0 127 0" result="hardAlpha"/>
<feOffset/>
<feGaussianBlur stdDeviation="3"/>
<feColorMatrix type="matrix" values="0 0 0 0 0.133333 0 0 0 0 0.133333 0 0 0 0 0.133333 0 0 0 0.15 0"/>
<feBlend mode="normal" in2="BackgroundImageFix" result="effect1_dropShadow"/>
<feBlend mode="normal" in="SourceGraphic" in2="effect1_dropShadow" result="shape"/>
</filter>
</defs>
</svg>
