<svg width="471" height="324" viewBox="0 0 471 324" fill="none" xmlns="http://www.w3.org/2000/svg">
<path opacity="0.1" d="M0 112.551L471 89V240.449L0 264V112.551Z" fill="#5C5CE5"/>
<g filter="url(#filter0_d)">
<rect x="44" y="15" width="382" height="295" rx="6" fill="white"/>
</g>
<rect opacity="0.1" x="44" y="157" width="382" height="64" fill="#C4C4C4"/>
<rect x="44" y="15" width="382" height="60" rx="6" fill="white"/>
<path d="M69.1792 39.3636H67.1735L64.2814 41.2216V43.1534L67.003 41.4148H67.0712V51H69.1792V39.3636ZM76.3098 51.1591C78.7985 51.1591 80.611 49.733 80.6053 47.767C80.611 46.3125 79.7019 45.267 78.0712 45.0341V44.9432C79.3326 44.6705 80.1792 43.733 80.1735 42.4261C80.1792 40.6534 78.6678 39.2045 76.3439 39.2045C74.0826 39.2045 72.3326 40.5511 72.2871 42.5H74.3155C74.3496 41.5227 75.2587 40.9148 76.3326 40.9148C77.4178 40.9148 78.1394 41.5739 78.1337 42.5511C78.1394 43.5682 77.2985 44.2443 76.0939 44.2443H75.0655V45.8693H76.0939C77.5655 45.8693 78.4405 46.608 78.4348 47.6591C78.4405 48.6875 77.5485 49.392 76.3042 49.392C75.1337 49.392 74.2303 48.7841 74.1792 47.8352H72.0428C72.0996 49.8011 73.8553 51.1591 76.3098 51.1591ZM86.5471 51H88.6039V48.0682L89.3539 47.267L92.0243 51H94.4846L90.905 46.0398L94.2857 42.2727H91.8823L88.7459 45.7784H88.6039V39.3636H86.5471V51ZM95.6564 51H97.7132V42.2727H95.6564V51ZM96.6905 41.0341C97.3439 41.0341 97.878 40.5341 97.878 39.9205C97.878 39.3011 97.3439 38.8011 96.6905 38.8011C96.0314 38.8011 95.4973 39.3011 95.4973 39.9205C95.4973 40.5341 96.0314 41.0341 96.6905 41.0341ZM101.885 45.8864C101.885 44.625 102.646 43.8977 103.732 43.8977C104.794 43.8977 105.431 44.5966 105.431 45.7614V51H107.487V45.4432C107.493 43.3523 106.3 42.1591 104.499 42.1591C103.192 42.1591 102.294 42.7841 101.896 43.7557H101.794V42.2727H99.8283V51H101.885V45.8864ZM113.374 54.4545C115.732 54.4545 117.47 53.375 117.47 51.142V42.2727H115.442V43.7159H115.328C115.016 43.0852 114.362 42.1591 112.823 42.1591C110.806 42.1591 109.22 43.7386 109.22 46.608C109.22 49.4545 110.806 50.875 112.817 50.875C114.311 50.875 115.01 50.0739 115.328 49.4318H115.431V51.0852C115.431 52.3693 114.578 52.8977 113.408 52.8977C112.169 52.8977 111.624 52.3125 111.374 51.8011L109.521 52.25C109.896 53.4716 111.152 54.4545 113.374 54.4545ZM113.391 49.2614C112.033 49.2614 111.317 48.2045 111.317 46.5966C111.317 45.0114 112.021 43.8466 113.391 43.8466C114.715 43.8466 115.442 44.9432 115.442 46.5966C115.442 48.2614 114.703 49.2614 113.391 49.2614Z" fill="#151147"/>
<path d="M66.2955 99.3636H64.8864L61.9773 101.295V102.727L64.8182 100.841H64.8864V111H66.2955V99.3636ZM73.5739 111.159C75.8295 111.159 77.5057 109.744 77.5057 107.841C77.5057 106.364 76.6307 105.29 75.1648 105.045V104.955C76.3409 104.597 77.0739 103.631 77.0739 102.318C77.0739 100.67 75.7727 99.2045 73.6193 99.2045C71.608 99.2045 69.9375 100.443 69.8693 102.273H71.233C71.2841 101.114 72.3864 100.432 73.5966 100.432C74.8807 100.432 75.7102 101.21 75.7102 102.386C75.7102 103.614 74.75 104.409 73.3693 104.409H72.4375V105.659H73.3693C75.1364 105.659 76.1193 106.557 76.1193 107.841C76.1193 109.074 75.0455 109.909 73.5511 109.909C72.2045 109.909 71.1364 109.216 71.0511 108.091H69.6193C69.7045 109.92 71.3182 111.159 73.5739 111.159ZM84.5341 111H85.9432V107.227L87.3977 105.591L91.4432 111H93.1477L88.2614 104.614L93.1477 99.3636H91.3068L86.0795 105.136H85.9432V99.3636H84.5341V111ZM95.3366 111H96.6776V102.273H95.3366V111ZM96.0185 100.818C96.5412 100.818 96.973 100.409 96.973 99.9091C96.973 99.4091 96.5412 99 96.0185 99C95.4957 99 95.0639 99.4091 95.0639 99.9091C95.0639 100.409 95.4957 100.818 96.0185 100.818ZM100.474 105.75C100.474 104.227 101.418 103.364 102.702 103.364C103.946 103.364 104.702 104.176 104.702 105.545V111H106.043V105.455C106.043 103.227 104.855 102.159 103.088 102.159C101.77 102.159 100.952 102.75 100.543 103.636H100.429V102.273H99.1335V111H100.474V105.75ZM112.016 114.455C114.107 114.455 115.788 113.5 115.788 111.25V102.273H114.493V103.659H114.357C114.061 103.205 113.516 102.159 111.811 102.159C109.607 102.159 108.084 103.909 108.084 106.591C108.084 109.318 109.675 110.864 111.788 110.864C113.493 110.864 114.038 109.864 114.334 109.386H114.447V111.159C114.447 112.614 113.425 113.273 112.016 113.273C110.43 113.273 109.874 112.438 109.516 111.955L108.447 112.705C108.993 113.619 110.067 114.455 112.016 114.455ZM111.97 109.659C110.288 109.659 109.425 108.386 109.425 106.568C109.425 104.795 110.266 103.364 111.97 103.364C113.607 103.364 114.47 104.682 114.47 106.568C114.47 108.5 113.584 109.659 111.97 109.659ZM122.925 111H130.038V109.75H124.334V105.795H129.584V104.545H124.334V100.614H129.947V99.3636H122.925V111ZM135.601 111.182C137.283 111.182 137.851 110.136 138.146 109.659H138.305V111H139.601V99.3636H138.26V103.659H138.146C137.851 103.205 137.328 102.159 135.624 102.159C133.419 102.159 131.896 103.909 131.896 106.659C131.896 109.432 133.419 111.182 135.601 111.182ZM135.783 109.977C134.101 109.977 133.237 108.5 133.237 106.636C133.237 104.795 134.078 103.364 135.783 103.364C137.419 103.364 138.283 104.682 138.283 106.636C138.283 108.614 137.396 109.977 135.783 109.977ZM144.22 111H145.538L147.447 104.295H147.584L149.493 111H150.811L153.47 102.273H152.061L150.175 108.932H150.084L148.243 102.273H146.811L144.947 108.955H144.857L142.97 102.273H141.561L144.22 111ZM157.811 111.205C159.334 111.205 160.129 110.386 160.402 109.818H160.47V111H161.811V105.25C161.811 102.477 159.697 102.159 158.584 102.159C157.266 102.159 155.766 102.614 155.084 104.205L156.357 104.659C156.652 104.023 157.351 103.341 158.629 103.341C159.862 103.341 160.47 103.994 160.47 105.114V105.159C160.47 105.807 159.811 105.75 158.22 105.955C156.601 106.165 154.834 106.523 154.834 108.523C154.834 110.227 156.152 111.205 157.811 111.205ZM158.016 110C156.947 110 156.175 109.523 156.175 108.591C156.175 107.568 157.107 107.25 158.152 107.114C158.72 107.045 160.243 106.886 160.47 106.614V107.841C160.47 108.932 159.607 110 158.016 110ZM164.259 111H165.599V105.477C165.599 104.295 166.531 103.432 167.804 103.432C168.162 103.432 168.531 103.5 168.622 103.523V102.159C168.469 102.148 168.116 102.136 167.918 102.136C166.872 102.136 165.963 102.727 165.645 103.591H165.554V102.273H164.259V111ZM173.241 111.182C174.923 111.182 175.491 110.136 175.787 109.659H175.946V111H177.241V99.3636H175.901V103.659H175.787C175.491 103.205 174.969 102.159 173.264 102.159C171.06 102.159 169.537 103.909 169.537 106.659C169.537 109.432 171.06 111.182 173.241 111.182ZM173.423 109.977C171.741 109.977 170.878 108.5 170.878 106.636C170.878 104.795 171.719 103.364 173.423 103.364C175.06 103.364 175.923 104.682 175.923 106.636C175.923 108.614 175.037 109.977 173.423 109.977ZM190.929 102.273H192.293C192.23 100.517 190.611 99.2045 188.361 99.2045C186.134 99.2045 184.384 100.5 184.384 102.455C184.384 104.023 185.52 104.955 187.338 105.477L188.77 105.886C189.997 106.227 191.088 106.659 191.088 107.818C191.088 109.091 189.861 109.932 188.247 109.932C186.861 109.932 185.634 109.318 185.52 108H184.065C184.202 109.909 185.747 111.205 188.247 111.205C190.929 111.205 192.452 109.727 192.452 107.841C192.452 105.659 190.384 104.955 189.179 104.636L187.997 104.318C187.134 104.091 185.747 103.636 185.747 102.386C185.747 101.273 186.77 100.455 188.315 100.455C189.724 100.455 190.793 101.125 190.929 102.273ZM198.382 102.273H196.518V100.182H195.178V102.273H193.859V103.409H195.178V108.864C195.178 110.386 196.405 111.114 197.541 111.114C198.041 111.114 198.359 111.023 198.541 110.955L198.268 109.75C198.155 109.773 197.973 109.818 197.678 109.818C197.087 109.818 196.518 109.636 196.518 108.5V103.409H198.382V102.273Z" fill="#151147"/>
<path d="M68.7727 126.273H70.1364C70.0739 124.517 68.4545 123.205 66.2045 123.205C63.9773 123.205 62.2273 124.5 62.2273 126.455C62.2273 128.023 63.3636 128.955 65.1818 129.477L66.6136 129.886C67.8409 130.227 68.9318 130.659 68.9318 131.818C68.9318 133.091 67.7045 133.932 66.0909 133.932C64.7045 133.932 63.4773 133.318 63.3636 132H61.9091C62.0455 133.909 63.5909 135.205 66.0909 135.205C68.7727 135.205 70.2955 133.727 70.2955 131.841C70.2955 129.659 68.2273 128.955 67.0227 128.636L65.8409 128.318C64.9773 128.091 63.5909 127.636 63.5909 126.386C63.5909 125.273 64.6136 124.455 66.1591 124.455C67.5682 124.455 68.6364 125.125 68.7727 126.273ZM76.2259 126.273H74.3622V124.182H73.0213V126.273H71.7031V127.409H73.0213V132.864C73.0213 134.386 74.2486 135.114 75.3849 135.114C75.8849 135.114 76.2031 135.023 76.3849 134.955L76.1122 133.75C75.9986 133.773 75.8168 133.818 75.5213 133.818C74.9304 133.818 74.3622 133.636 74.3622 132.5V127.409H76.2259V126.273ZM82.9247 135H89.7429V133.75H84.3338V123.364H82.9247V135ZM97.2429 131.432C97.2429 133.068 95.9929 133.818 94.9929 133.818C93.8793 133.818 93.0838 133 93.0838 131.727V126.273H91.7429V131.818C91.7429 134.045 92.9247 135.114 94.5611 135.114C95.8793 135.114 96.7429 134.409 97.152 133.523H97.2429V135H98.5838V126.273H97.2429V131.432ZM101.04 135H102.381V131.733L103.318 130.864L106.585 135H108.29L104.33 130L108.017 126.273H106.358L102.54 130.159H102.381V123.364H101.04V135ZM113.043 135.182C114.815 135.182 116.111 134.295 116.52 132.977L115.224 132.614C114.884 133.523 114.094 133.977 113.043 133.977C111.469 133.977 110.384 132.96 110.321 131.091H116.656V130.523C116.656 127.273 114.724 126.159 112.906 126.159C110.543 126.159 108.974 128.023 108.974 130.705C108.974 133.386 110.52 135.182 113.043 135.182ZM110.321 129.932C110.412 128.574 111.372 127.364 112.906 127.364C114.361 127.364 115.293 128.455 115.293 129.932H110.321ZM124.878 128.227C124.457 126.989 123.514 126.159 121.787 126.159C119.946 126.159 118.582 127.205 118.582 128.682C118.582 129.886 119.298 130.693 120.901 131.068L122.355 131.409C123.236 131.614 123.651 132.034 123.651 132.636C123.651 133.386 122.855 134 121.605 134C120.509 134 119.821 133.528 119.582 132.591L118.31 132.909C118.622 134.392 119.844 135.182 121.628 135.182C123.656 135.182 125.037 134.074 125.037 132.568C125.037 131.352 124.276 130.585 122.719 130.205L121.423 129.886C120.389 129.631 119.923 129.284 119.923 128.614C119.923 127.864 120.719 127.318 121.787 127.318C122.957 127.318 123.44 127.966 123.673 128.568L124.878 128.227ZM129.055 133.409H127.601L127.533 134.045C127.368 135.585 127.044 137.119 126.896 137.841H127.919C128.192 137.068 128.771 135.318 128.964 134.023L129.055 133.409ZM136.699 135L137.869 131.705H142.574L143.744 135H145.222L140.949 123.364H139.494L135.222 135H136.699ZM138.312 130.455L140.176 125.205H140.267L142.131 130.455H138.312ZM152.352 131.432C152.352 133.068 151.102 133.818 150.102 133.818C148.989 133.818 148.193 133 148.193 131.727V126.273H146.852V131.818C146.852 134.045 148.034 135.114 149.67 135.114C150.989 135.114 151.852 134.409 152.261 133.523H152.352V135H153.693V126.273H152.352V131.432ZM159.695 135.182C161.626 135.182 162.899 134 163.126 132.455H161.786C161.536 133.409 160.74 133.977 159.695 133.977C158.104 133.977 157.081 132.659 157.081 130.636C157.081 128.659 158.126 127.364 159.695 127.364C160.876 127.364 161.581 128.091 161.786 128.886H163.126C162.899 127.25 161.513 126.159 159.672 126.159C157.308 126.159 155.74 128.023 155.74 130.682C155.74 133.295 157.24 135.182 159.695 135.182ZM165.087 135H166.428V131.733L167.365 130.864L170.632 135H172.337L168.376 130L172.064 126.273H170.405L166.587 130.159H166.428V123.364H165.087V135ZM175.131 123.364H173.79V135H175.131V123.364ZM180.155 135.205C181.678 135.205 182.473 134.386 182.746 133.818H182.814V135H184.155V129.25C184.155 126.477 182.041 126.159 180.928 126.159C179.609 126.159 178.109 126.614 177.428 128.205L178.7 128.659C178.996 128.023 179.695 127.341 180.973 127.341C182.206 127.341 182.814 127.994 182.814 129.114V129.159C182.814 129.807 182.155 129.75 180.564 129.955C178.945 130.165 177.178 130.523 177.178 132.523C177.178 134.227 178.496 135.205 180.155 135.205ZM180.359 134C179.291 134 178.518 133.523 178.518 132.591C178.518 131.568 179.45 131.25 180.496 131.114C181.064 131.045 182.587 130.886 182.814 130.614V131.841C182.814 132.932 181.95 134 180.359 134ZM187.943 129.75C187.943 128.227 188.886 127.364 190.17 127.364C191.415 127.364 192.17 128.176 192.17 129.545V135H193.511V129.455C193.511 127.227 192.324 126.159 190.557 126.159C189.239 126.159 188.42 126.75 188.011 127.636H187.898V126.273H186.602V135H187.943V129.75ZM199.257 135.182C200.939 135.182 201.507 134.136 201.803 133.659H201.962V135H203.257V123.364H201.916V127.659H201.803C201.507 127.205 200.984 126.159 199.28 126.159C197.075 126.159 195.553 127.909 195.553 130.659C195.553 133.432 197.075 135.182 199.257 135.182ZM199.439 133.977C197.757 133.977 196.893 132.5 196.893 130.636C196.893 128.795 197.734 127.364 199.439 127.364C201.075 127.364 201.939 128.682 201.939 130.636C201.939 132.614 201.053 133.977 199.439 133.977Z" fill="#828282"/>
<path d="M66.2955 171.364H64.8864L61.9773 173.295V174.727L64.8182 172.841H64.8864V183H66.2955V171.364ZM73.5739 183.159C75.8295 183.159 77.5057 181.744 77.5057 179.841C77.5057 178.364 76.6307 177.29 75.1648 177.045V176.955C76.3409 176.597 77.0739 175.631 77.0739 174.318C77.0739 172.67 75.7727 171.205 73.6193 171.205C71.608 171.205 69.9375 172.443 69.8693 174.273H71.233C71.2841 173.114 72.3864 172.432 73.5966 172.432C74.8807 172.432 75.7102 173.21 75.7102 174.386C75.7102 175.614 74.75 176.409 73.3693 176.409H72.4375V177.659H73.3693C75.1364 177.659 76.1193 178.557 76.1193 179.841C76.1193 181.074 75.0455 181.909 73.5511 181.909C72.2045 181.909 71.1364 181.216 71.0511 180.091H69.6193C69.7045 181.92 71.3182 183.159 73.5739 183.159ZM84.5341 183H85.9432V179.227L87.3977 177.591L91.4432 183H93.1477L88.2614 176.614L93.1477 171.364H91.3068L86.0795 177.136H85.9432V171.364H84.5341V183ZM95.3366 183H96.6776V174.273H95.3366V183ZM96.0185 172.818C96.5412 172.818 96.973 172.409 96.973 171.909C96.973 171.409 96.5412 171 96.0185 171C95.4957 171 95.0639 171.409 95.0639 171.909C95.0639 172.409 95.4957 172.818 96.0185 172.818ZM100.474 177.75C100.474 176.227 101.418 175.364 102.702 175.364C103.946 175.364 104.702 176.176 104.702 177.545V183H106.043V177.455C106.043 175.227 104.855 174.159 103.088 174.159C101.77 174.159 100.952 174.75 100.543 175.636H100.429V174.273H99.1335V183H100.474V177.75ZM112.016 186.455C114.107 186.455 115.788 185.5 115.788 183.25V174.273H114.493V175.659H114.357C114.061 175.205 113.516 174.159 111.811 174.159C109.607 174.159 108.084 175.909 108.084 178.591C108.084 181.318 109.675 182.864 111.788 182.864C113.493 182.864 114.038 181.864 114.334 181.386H114.447V183.159C114.447 184.614 113.425 185.273 112.016 185.273C110.43 185.273 109.874 184.438 109.516 183.955L108.447 184.705C108.993 185.619 110.067 186.455 112.016 186.455ZM111.97 181.659C110.288 181.659 109.425 180.386 109.425 178.568C109.425 176.795 110.266 175.364 111.97 175.364C113.607 175.364 114.47 176.682 114.47 178.568C114.47 180.5 113.584 181.659 111.97 181.659ZM124.425 176.227C124.004 174.989 123.061 174.159 121.334 174.159C119.493 174.159 118.129 175.205 118.129 176.682C118.129 177.886 118.845 178.693 120.447 179.068L121.902 179.409C122.783 179.614 123.197 180.034 123.197 180.636C123.197 181.386 122.402 182 121.152 182C120.055 182 119.368 181.528 119.129 180.591L117.857 180.909C118.169 182.392 119.391 183.182 121.175 183.182C123.203 183.182 124.584 182.074 124.584 180.568C124.584 179.352 123.822 178.585 122.266 178.205L120.97 177.886C119.936 177.631 119.47 177.284 119.47 176.614C119.47 175.864 120.266 175.318 121.334 175.318C122.504 175.318 122.987 175.966 123.22 176.568L124.425 176.227ZM127.943 171.364H126.602V183H127.943V171.364ZM132.967 183.205C134.49 183.205 135.286 182.386 135.558 181.818H135.626V183H136.967V177.25C136.967 174.477 134.854 174.159 133.74 174.159C132.422 174.159 130.922 174.614 130.24 176.205L131.513 176.659C131.808 176.023 132.507 175.341 133.786 175.341C135.018 175.341 135.626 175.994 135.626 177.114V177.159C135.626 177.807 134.967 177.75 133.376 177.955C131.757 178.165 129.99 178.523 129.99 180.523C129.99 182.227 131.308 183.205 132.967 183.205ZM133.172 182C132.104 182 131.331 181.523 131.331 180.591C131.331 179.568 132.263 179.25 133.308 179.114C133.876 179.045 135.399 178.886 135.626 178.614V179.841C135.626 180.932 134.763 182 133.172 182ZM140.756 177.75C140.756 176.227 141.699 175.364 142.983 175.364C144.227 175.364 144.983 176.176 144.983 177.545V183H146.324V177.455C146.324 175.227 145.136 174.159 143.369 174.159C142.051 174.159 141.233 174.75 140.824 175.636H140.71V174.273H139.415V183H140.756V177.75ZM152.07 183.182C153.751 183.182 154.32 182.136 154.615 181.659H154.774V183H156.07V171.364H154.729V175.659H154.615C154.32 175.205 153.797 174.159 152.092 174.159C149.888 174.159 148.365 175.909 148.365 178.659C148.365 181.432 149.888 183.182 152.07 183.182ZM152.251 181.977C150.57 181.977 149.706 180.5 149.706 178.636C149.706 176.795 150.547 175.364 152.251 175.364C153.888 175.364 154.751 176.682 154.751 178.636C154.751 180.614 153.865 181.977 152.251 181.977ZM163.393 183H164.803V178.455H167.348C167.45 178.455 167.547 178.455 167.643 178.449L170.098 183H171.734L169.104 178.193C170.587 177.688 171.28 176.477 171.28 174.932C171.28 172.875 170.053 171.364 167.325 171.364H163.393V183ZM164.803 177.182V172.614H167.28C169.166 172.614 169.893 173.534 169.893 174.932C169.893 176.33 169.166 177.182 167.303 177.182H164.803ZM176.648 183.182C178.33 183.182 178.898 182.136 179.193 181.659H179.352V183H180.648V171.364H179.307V175.659H179.193C178.898 175.205 178.375 174.159 176.67 174.159C174.466 174.159 172.943 175.909 172.943 178.659C172.943 181.432 174.466 183.182 176.648 183.182ZM176.83 181.977C175.148 181.977 174.284 180.5 174.284 178.636C174.284 176.795 175.125 175.364 176.83 175.364C178.466 175.364 179.33 176.682 179.33 178.636C179.33 180.614 178.443 181.977 176.83 181.977Z" fill="#151147"/>
<path d="M62.4091 207H63.8182V203.227L65.2727 201.591L69.3182 207H71.0227L66.1364 200.614L71.0227 195.364H69.1818L63.9545 201.136H63.8182V195.364H62.4091V207ZM73.2116 207H74.5526V198.273H73.2116V207ZM73.8935 196.818C74.4162 196.818 74.848 196.409 74.848 195.909C74.848 195.409 74.4162 195 73.8935 195C73.3707 195 72.9389 195.409 72.9389 195.909C72.9389 196.409 73.3707 196.818 73.8935 196.818ZM78.3494 201.75C78.3494 200.227 79.2926 199.364 80.5767 199.364C81.821 199.364 82.5767 200.176 82.5767 201.545V207H83.9176V201.455C83.9176 199.227 82.7301 198.159 80.9631 198.159C79.6449 198.159 78.8267 198.75 78.4176 199.636H78.304V198.273H77.0085V207H78.3494V201.75ZM89.8906 210.455C91.9815 210.455 93.6634 209.5 93.6634 207.25V198.273H92.3679V199.659H92.2315C91.9361 199.205 91.3906 198.159 89.6861 198.159C87.4815 198.159 85.9588 199.909 85.9588 202.591C85.9588 205.318 87.5497 206.864 89.6634 206.864C91.3679 206.864 91.9134 205.864 92.2088 205.386H92.3224V207.159C92.3224 208.614 91.2997 209.273 89.8906 209.273C88.3054 209.273 87.7486 208.438 87.3906 207.955L86.3224 208.705C86.8679 209.619 87.9418 210.455 89.8906 210.455ZM89.8452 205.659C88.1634 205.659 87.2997 204.386 87.2997 202.568C87.2997 200.795 88.1406 199.364 89.8452 199.364C91.4815 199.364 92.3452 200.682 92.3452 202.568C92.3452 204.5 91.4588 205.659 89.8452 205.659ZM102.3 200.227C101.879 198.989 100.936 198.159 99.2088 198.159C97.3679 198.159 96.0043 199.205 96.0043 200.682C96.0043 201.886 96.7202 202.693 98.3224 203.068L99.777 203.409C100.658 203.614 101.072 204.034 101.072 204.636C101.072 205.386 100.277 206 99.027 206C97.9304 206 97.2429 205.528 97.0043 204.591L95.7315 204.909C96.044 206.392 97.2656 207.182 99.0497 207.182C101.078 207.182 102.459 206.074 102.459 204.568C102.459 203.352 101.697 202.585 100.141 202.205L98.8452 201.886C97.8111 201.631 97.3452 201.284 97.3452 200.614C97.3452 199.864 98.1406 199.318 99.2088 199.318C100.379 199.318 100.862 199.966 101.095 200.568L102.3 200.227ZM105.818 195.364H104.477V207H105.818V195.364ZM110.842 207.205C112.365 207.205 113.161 206.386 113.433 205.818H113.501V207H114.842V201.25C114.842 198.477 112.729 198.159 111.615 198.159C110.297 198.159 108.797 198.614 108.115 200.205L109.388 200.659C109.683 200.023 110.382 199.341 111.661 199.341C112.893 199.341 113.501 199.994 113.501 201.114V201.159C113.501 201.807 112.842 201.75 111.251 201.955C109.632 202.165 107.865 202.523 107.865 204.523C107.865 206.227 109.183 207.205 110.842 207.205ZM111.047 206C109.979 206 109.206 205.523 109.206 204.591C109.206 203.568 110.138 203.25 111.183 203.114C111.751 203.045 113.274 202.886 113.501 202.614V203.841C113.501 204.932 112.638 206 111.047 206ZM118.631 201.75C118.631 200.227 119.574 199.364 120.858 199.364C122.102 199.364 122.858 200.176 122.858 201.545V207H124.199V201.455C124.199 199.227 123.011 198.159 121.244 198.159C119.926 198.159 119.108 198.75 118.699 199.636H118.585V198.273H117.29V207H118.631V201.75ZM129.945 207.182C131.626 207.182 132.195 206.136 132.49 205.659H132.649V207H133.945V195.364H132.604V199.659H132.49C132.195 199.205 131.672 198.159 129.967 198.159C127.763 198.159 126.24 199.909 126.24 202.659C126.24 205.432 127.763 207.182 129.945 207.182ZM130.126 205.977C128.445 205.977 127.581 204.5 127.581 202.636C127.581 200.795 128.422 199.364 130.126 199.364C131.763 199.364 132.626 200.682 132.626 202.636C132.626 204.614 131.74 205.977 130.126 205.977ZM138.587 205.409H137.132L137.064 206.045C136.899 207.585 136.575 209.119 136.428 209.841H137.45C137.723 209.068 138.303 207.318 138.496 206.023L138.587 205.409ZM146.23 207L147.401 203.705H152.105L153.276 207H154.753L150.48 195.364H149.026L144.753 207H146.23ZM147.844 202.455L149.707 197.205H149.798L151.662 202.455H147.844ZM161.884 203.432C161.884 205.068 160.634 205.818 159.634 205.818C158.52 205.818 157.724 205 157.724 203.727V198.273H156.384V203.818C156.384 206.045 157.565 207.114 159.202 207.114C160.52 207.114 161.384 206.409 161.793 205.523H161.884V207H163.224V198.273H161.884V203.432ZM169.226 207.182C171.158 207.182 172.43 206 172.658 204.455H171.317C171.067 205.409 170.271 205.977 169.226 205.977C167.635 205.977 166.612 204.659 166.612 202.636C166.612 200.659 167.658 199.364 169.226 199.364C170.408 199.364 171.112 200.091 171.317 200.886H172.658C172.43 199.25 171.044 198.159 169.203 198.159C166.839 198.159 165.271 200.023 165.271 202.682C165.271 205.295 166.771 207.182 169.226 207.182ZM174.618 207H175.959V203.733L176.896 202.864L180.163 207H181.868L177.908 202L181.595 198.273H179.936L176.118 202.159H175.959V195.364H174.618V207ZM184.662 195.364H183.321V207H184.662V195.364ZM189.686 207.205C191.209 207.205 192.004 206.386 192.277 205.818H192.345V207H193.686V201.25C193.686 198.477 191.572 198.159 190.459 198.159C189.141 198.159 187.641 198.614 186.959 200.205L188.232 200.659C188.527 200.023 189.226 199.341 190.504 199.341C191.737 199.341 192.345 199.994 192.345 201.114V201.159C192.345 201.807 191.686 201.75 190.095 201.955C188.476 202.165 186.709 202.523 186.709 204.523C186.709 206.227 188.027 207.205 189.686 207.205ZM189.891 206C188.822 206 188.05 205.523 188.05 204.591C188.05 203.568 188.982 203.25 190.027 203.114C190.595 203.045 192.118 202.886 192.345 202.614V203.841C192.345 204.932 191.482 206 189.891 206ZM197.474 201.75C197.474 200.227 198.418 199.364 199.702 199.364C200.946 199.364 201.702 200.176 201.702 201.545V207H203.043V201.455C203.043 199.227 201.855 198.159 200.088 198.159C198.77 198.159 197.952 198.75 197.543 199.636H197.429V198.273H196.134V207H197.474V201.75ZM208.788 207.182C210.47 207.182 211.038 206.136 211.334 205.659H211.493V207H212.788V195.364H211.447V199.659H211.334C211.038 199.205 210.516 198.159 208.811 198.159C206.607 198.159 205.084 199.909 205.084 202.659C205.084 205.432 206.607 207.182 208.788 207.182ZM208.97 205.977C207.288 205.977 206.425 204.5 206.425 202.636C206.425 200.795 207.266 199.364 208.97 199.364C210.607 199.364 211.47 200.682 211.47 202.636C211.47 204.614 210.584 205.977 208.97 205.977Z" fill="#828282"/>
<path d="M66.2955 243.364H64.8864L61.9773 245.295V246.727L64.8182 244.841H64.8864V255H66.2955V243.364ZM73.5739 255.159C75.8295 255.159 77.5057 253.744 77.5057 251.841C77.5057 250.364 76.6307 249.29 75.1648 249.045V248.955C76.3409 248.597 77.0739 247.631 77.0739 246.318C77.0739 244.67 75.7727 243.205 73.6193 243.205C71.608 243.205 69.9375 244.443 69.8693 246.273H71.233C71.2841 245.114 72.3864 244.432 73.5966 244.432C74.8807 244.432 75.7102 245.21 75.7102 246.386C75.7102 247.614 74.75 248.409 73.3693 248.409H72.4375V249.659H73.3693C75.1364 249.659 76.1193 250.557 76.1193 251.841C76.1193 253.074 75.0455 253.909 73.5511 253.909C72.2045 253.909 71.1364 253.216 71.0511 252.091H69.6193C69.7045 253.92 71.3182 255.159 73.5739 255.159ZM84.5341 255H85.9432V251.227L87.3977 249.591L91.4432 255H93.1477L88.2614 248.614L93.1477 243.364H91.3068L86.0795 249.136H85.9432V243.364H84.5341V255ZM95.3366 255H96.6776V246.273H95.3366V255ZM96.0185 244.818C96.5412 244.818 96.973 244.409 96.973 243.909C96.973 243.409 96.5412 243 96.0185 243C95.4957 243 95.0639 243.409 95.0639 243.909C95.0639 244.409 95.4957 244.818 96.0185 244.818ZM100.474 249.75C100.474 248.227 101.418 247.364 102.702 247.364C103.946 247.364 104.702 248.176 104.702 249.545V255H106.043V249.455C106.043 247.227 104.855 246.159 103.088 246.159C101.77 246.159 100.952 246.75 100.543 247.636H100.429V246.273H99.1335V255H100.474V249.75ZM112.016 258.455C114.107 258.455 115.788 257.5 115.788 255.25V246.273H114.493V247.659H114.357C114.061 247.205 113.516 246.159 111.811 246.159C109.607 246.159 108.084 247.909 108.084 250.591C108.084 253.318 109.675 254.864 111.788 254.864C113.493 254.864 114.038 253.864 114.334 253.386H114.447V255.159C114.447 256.614 113.425 257.273 112.016 257.273C110.43 257.273 109.874 256.438 109.516 255.955L108.447 256.705C108.993 257.619 110.067 258.455 112.016 258.455ZM111.97 253.659C110.288 253.659 109.425 252.386 109.425 250.568C109.425 248.795 110.266 247.364 111.97 247.364C113.607 247.364 114.47 248.682 114.47 250.568C114.47 252.5 113.584 253.659 111.97 253.659ZM122.925 255H130.038V253.75H124.334V249.795H129.584V248.545H124.334V244.614H129.947V243.364H122.925V255ZM135.601 255.182C137.283 255.182 137.851 254.136 138.146 253.659H138.305V255H139.601V243.364H138.26V247.659H138.146C137.851 247.205 137.328 246.159 135.624 246.159C133.419 246.159 131.896 247.909 131.896 250.659C131.896 253.432 133.419 255.182 135.601 255.182ZM135.783 253.977C134.101 253.977 133.237 252.5 133.237 250.636C133.237 248.795 134.078 247.364 135.783 247.364C137.419 247.364 138.283 248.682 138.283 250.636C138.283 252.614 137.396 253.977 135.783 253.977ZM146.129 246.273H144.175V245.386C144.175 244.523 144.538 244.068 145.425 244.068C145.811 244.068 146.038 244.159 146.175 244.205L146.561 243.045C146.357 242.955 145.947 242.818 145.288 242.818C144.038 242.818 142.834 243.568 142.834 245.068V246.273H141.425V247.409H142.834V255H144.175V247.409H146.129V246.273ZM151.195 255.182C153.558 255.182 155.149 253.386 155.149 250.682C155.149 247.955 153.558 246.159 151.195 246.159C148.831 246.159 147.24 247.955 147.24 250.682C147.24 253.386 148.831 255.182 151.195 255.182ZM151.195 253.977C149.399 253.977 148.581 252.432 148.581 250.682C148.581 248.932 149.399 247.364 151.195 247.364C152.99 247.364 153.808 248.932 153.808 250.682C153.808 252.432 152.99 253.977 151.195 253.977ZM157.196 255H158.537V249.477C158.537 248.295 159.469 247.432 160.741 247.432C161.099 247.432 161.469 247.5 161.56 247.523V246.159C161.406 246.148 161.054 246.136 160.855 246.136C159.81 246.136 158.901 246.727 158.582 247.591H158.491V246.273H157.196V255ZM167.491 246.273H165.628V244.182H164.287V246.273H162.969V247.409H164.287V252.864C164.287 254.386 165.514 255.114 166.651 255.114C167.151 255.114 167.469 255.023 167.651 254.955L167.378 253.75C167.264 253.773 167.082 253.818 166.787 253.818C166.196 253.818 165.628 253.636 165.628 252.5V247.409H167.491V246.273ZM171.037 249.75C171.037 248.227 172.009 247.364 173.332 247.364C174.594 247.364 175.355 248.159 175.355 249.545V255H176.696V249.455C176.696 247.21 175.503 246.159 173.719 246.159C172.344 246.159 171.56 246.733 171.151 247.636H171.037V243.364H169.696V255H171.037V249.75ZM184.308 255L185.479 251.705H190.183L191.354 255H192.831L188.558 243.364H187.104L182.831 255H184.308ZM185.922 250.455L187.786 245.205H187.876L189.74 250.455H185.922ZM200.504 246.273H199.05L196.641 253.227H196.55L194.141 246.273H192.686L195.913 255H197.277L200.504 246.273ZM205.621 255.182C207.393 255.182 208.689 254.295 209.098 252.977L207.803 252.614C207.462 253.523 206.672 253.977 205.621 253.977C204.047 253.977 202.962 252.96 202.899 251.091H209.234V250.523C209.234 247.273 207.303 246.159 205.484 246.159C203.121 246.159 201.553 248.023 201.553 250.705C201.553 253.386 203.098 255.182 205.621 255.182ZM202.899 249.932C202.99 248.574 203.95 247.364 205.484 247.364C206.939 247.364 207.871 248.455 207.871 249.932H202.899Z" fill="#151147"/>
<path d="M63.8182 267.364H62.4091V279H63.8182V267.364ZM67.8026 273.75C67.8026 272.227 68.7457 271.364 70.0298 271.364C71.2741 271.364 72.0298 272.176 72.0298 273.545V279H73.3707V273.455C73.3707 271.227 72.1832 270.159 70.4162 270.159C69.098 270.159 68.2798 270.75 67.8707 271.636H67.7571V270.273H66.4616V279H67.8026V273.75ZM82.6449 270.273H81.1903L78.7812 277.227H78.6903L76.2812 270.273H74.8267L78.054 279H79.4176L82.6449 270.273ZM87.7614 279.182C89.5341 279.182 90.8295 278.295 91.2386 276.977L89.9432 276.614C89.6023 277.523 88.8125 277.977 87.7614 277.977C86.1875 277.977 85.1023 276.96 85.0398 275.091H91.375V274.523C91.375 271.273 89.4432 270.159 87.625 270.159C85.2614 270.159 83.6932 272.023 83.6932 274.705C83.6932 277.386 85.2386 279.182 87.7614 279.182ZM85.0398 273.932C85.1307 272.574 86.0909 271.364 87.625 271.364C89.0795 271.364 90.0114 272.455 90.0114 273.932H85.0398ZM93.4148 279H94.7557V273.477C94.7557 272.295 95.6875 271.432 96.9602 271.432C97.3182 271.432 97.6875 271.5 97.7784 271.523V270.159C97.625 270.148 97.2727 270.136 97.0739 270.136C96.0284 270.136 95.1193 270.727 94.8011 271.591H94.7102V270.273H93.4148V279ZM102.648 279.182C104.58 279.182 105.852 278 106.08 276.455H104.739C104.489 277.409 103.693 277.977 102.648 277.977C101.057 277.977 100.034 276.659 100.034 274.636C100.034 272.659 101.08 271.364 102.648 271.364C103.83 271.364 104.534 272.091 104.739 272.886H106.08C105.852 271.25 104.466 270.159 102.625 270.159C100.261 270.159 98.6932 272.023 98.6932 274.682C98.6932 277.295 100.193 279.182 102.648 279.182ZM110.608 279.205C112.131 279.205 112.926 278.386 113.199 277.818H113.267V279H114.608V273.25C114.608 270.477 112.494 270.159 111.381 270.159C110.062 270.159 108.562 270.614 107.881 272.205L109.153 272.659C109.449 272.023 110.148 271.341 111.426 271.341C112.659 271.341 113.267 271.994 113.267 273.114V273.159C113.267 273.807 112.608 273.75 111.017 273.955C109.398 274.165 107.631 274.523 107.631 276.523C107.631 278.227 108.949 279.205 110.608 279.205ZM110.812 278C109.744 278 108.972 277.523 108.972 276.591C108.972 275.568 109.903 275.25 110.949 275.114C111.517 275.045 113.04 274.886 113.267 274.614V275.841C113.267 276.932 112.403 278 110.812 278ZM117.055 279H118.396V273.477C118.396 272.295 119.328 271.432 120.601 271.432C120.959 271.432 121.328 271.5 121.419 271.523V270.159C121.266 270.148 120.913 270.136 120.714 270.136C119.669 270.136 118.76 270.727 118.442 271.591H118.351V270.273H117.055V279ZM126.266 282.455C128.357 282.455 130.038 281.5 130.038 279.25V270.273H128.743V271.659H128.607C128.311 271.205 127.766 270.159 126.061 270.159C123.857 270.159 122.334 271.909 122.334 274.591C122.334 277.318 123.925 278.864 126.038 278.864C127.743 278.864 128.288 277.864 128.584 277.386H128.697V279.159C128.697 280.614 127.675 281.273 126.266 281.273C124.68 281.273 124.124 280.438 123.766 279.955L122.697 280.705C123.243 281.619 124.317 282.455 126.266 282.455ZM126.22 277.659C124.538 277.659 123.675 276.386 123.675 274.568C123.675 272.795 124.516 271.364 126.22 271.364C127.857 271.364 128.72 272.682 128.72 274.568C128.72 276.5 127.834 277.659 126.22 277.659ZM132.493 279H133.834V270.273H132.493V279ZM133.175 268.818C133.697 268.818 134.129 268.409 134.129 267.909C134.129 267.409 133.697 267 133.175 267C132.652 267 132.22 267.409 132.22 267.909C132.22 268.409 132.652 268.818 133.175 268.818ZM137.631 267.364H136.29V279H137.631V267.364ZM142.087 277.409H140.632L140.564 278.045C140.399 279.585 140.075 281.119 139.928 281.841H140.95C141.223 281.068 141.803 279.318 141.996 278.023L142.087 277.409ZM155.616 270.273H156.98C156.918 268.517 155.298 267.205 153.048 267.205C150.821 267.205 149.071 268.5 149.071 270.455C149.071 272.023 150.207 272.955 152.026 273.477L153.457 273.886C154.685 274.227 155.776 274.659 155.776 275.818C155.776 277.091 154.548 277.932 152.935 277.932C151.548 277.932 150.321 277.318 150.207 276H148.753C148.889 277.909 150.435 279.205 152.935 279.205C155.616 279.205 157.139 277.727 157.139 275.841C157.139 273.659 155.071 272.955 153.866 272.636L152.685 272.318C151.821 272.091 150.435 271.636 150.435 270.386C150.435 269.273 151.457 268.455 153.003 268.455C154.412 268.455 155.48 269.125 155.616 270.273ZM162.82 279.182C165.183 279.182 166.774 277.386 166.774 274.682C166.774 271.955 165.183 270.159 162.82 270.159C160.456 270.159 158.865 271.955 158.865 274.682C158.865 277.386 160.456 279.182 162.82 279.182ZM162.82 277.977C161.024 277.977 160.206 276.432 160.206 274.682C160.206 272.932 161.024 271.364 162.82 271.364C164.615 271.364 165.433 272.932 165.433 274.682C165.433 276.432 164.615 277.977 162.82 277.977ZM174.321 275.432C174.321 277.068 173.071 277.818 172.071 277.818C170.957 277.818 170.162 277 170.162 275.727V270.273H168.821V275.818C168.821 278.045 170.003 279.114 171.639 279.114C172.957 279.114 173.821 278.409 174.23 277.523H174.321V279H175.662V270.273H174.321V275.432ZM181.913 270.273H180.05V268.182H178.709V270.273H177.391V271.409H178.709V276.864C178.709 278.386 179.936 279.114 181.072 279.114C181.572 279.114 181.891 279.023 182.072 278.955L181.8 277.75C181.686 277.773 181.504 277.818 181.209 277.818C180.618 277.818 180.05 277.636 180.05 276.5V271.409H181.913V270.273ZM185.459 273.75C185.459 272.227 186.43 271.364 187.754 271.364C189.016 271.364 189.777 272.159 189.777 273.545V279H191.118V273.455C191.118 271.21 189.925 270.159 188.141 270.159C186.766 270.159 185.982 270.733 185.572 271.636H185.459V267.364H184.118V279H185.459V273.75ZM194.912 267.364H193.571V279H194.912V267.364ZM199.936 279.205C201.459 279.205 202.254 278.386 202.527 277.818H202.595V279H203.936V273.25C203.936 270.477 201.822 270.159 200.709 270.159C199.391 270.159 197.891 270.614 197.209 272.205L198.482 272.659C198.777 272.023 199.476 271.341 200.754 271.341C201.987 271.341 202.595 271.994 202.595 273.114V273.159C202.595 273.807 201.936 273.75 200.345 273.955C198.726 274.165 196.959 274.523 196.959 276.523C196.959 278.227 198.277 279.205 199.936 279.205ZM200.141 278C199.072 278 198.3 277.523 198.3 276.591C198.3 275.568 199.232 275.25 200.277 275.114C200.845 275.045 202.368 274.886 202.595 274.614V275.841C202.595 276.932 201.732 278 200.141 278ZM207.724 273.75C207.724 272.227 208.668 271.364 209.952 271.364C211.196 271.364 211.952 272.176 211.952 273.545V279H213.293V273.455C213.293 271.227 212.105 270.159 210.338 270.159C209.02 270.159 208.202 270.75 207.793 271.636H207.679V270.273H206.384V279H207.724V273.75ZM219.038 279.182C220.72 279.182 221.288 278.136 221.584 277.659H221.743V279H223.038V267.364H221.697V271.659H221.584C221.288 271.205 220.766 270.159 219.061 270.159C216.857 270.159 215.334 271.909 215.334 274.659C215.334 277.432 216.857 279.182 219.038 279.182ZM219.22 277.977C217.538 277.977 216.675 276.5 216.675 274.636C216.675 272.795 217.516 271.364 219.22 271.364C220.857 271.364 221.72 272.682 221.72 274.636C221.72 276.614 220.834 277.977 219.22 277.977Z" fill="#828282"/>
<line opacity="0.3" x1="44" y1="74.5" x2="426" y2="74.5" stroke="#D3D3D3"/>
<defs>
<filter id="filter0_d" x="34" y="7" width="402" height="315" filterUnits="userSpaceOnUse" color-interpolation-filters="sRGB">
<feFlood flood-opacity="0" result="BackgroundImageFix"/>
<feColorMatrix in="SourceAlpha" type="matrix" values="0 0 0 0 0 0 0 0 0 0 0 0 0 0 0 0 0 0 127 0" result="hardAlpha"/>
<feOffset dy="2"/>
<feGaussianBlur stdDeviation="5"/>
<feColorMatrix type="matrix" values="0 0 0 0 0.133333 0 0 0 0 0.133333 0 0 0 0 0.133333 0 0 0 0.15 0"/>
<feBlend mode="normal" in2="BackgroundImageFix" result="effect1_dropShadow"/>
<feBlend mode="normal" in="SourceGraphic" in2="effect1_dropShadow" result="shape"/>
</filter>
</defs>
</svg>
