<svg width="1440" height="510" viewBox="0 0 1440 510" fill="none" xmlns="http://www.w3.org/2000/svg">
<g clip-path="url(#clip0)">
<rect width="1440" height="510" fill="#343473"/>
<g opacity="0.2">
<path d="M1567.46 636.037C1559.17 600.316 1582.18 560.308 1565.46 527.587C1555.45 508.155 1532.72 497.295 1511 497.581C1489.13 498.01 1468.41 508.155 1451.54 522.157C1430.53 539.59 1413.52 563.451 1387.93 572.739C1347.77 587.17 1309.32 564.88 1271.59 555.307C1234.86 546.019 1196.69 559.165 1159.39 565.595C1122.08 572.025 1077.2 568.738 1055.62 537.589C1041.04 516.728 1041.47 489.008 1044.33 463.717C1047.33 438.426 1052.19 412.278 1045.04 387.845C1035.47 355.124 1006.45 332.262 977.294 314.687C960.714 304.828 943.277 295.541 930.699 280.824C897.967 242.387 932.128 201.093 947.993 164.086C966.146 121.935 963.859 75.211 991.301 35.3458C1027.89 -17.6648 1095.07 -39.6692 1158.39 -51.5287C1218.28 -62.6738 1279.88 -67.5319 1339.91 -57.6728C1377.64 -51.5287 1414.09 -39.5263 1450.4 -27.5239C1503.14 -10.2347 1557.31 7.91178 1599.19 44.3476C1630.2 71.2102 1652.5 106.646 1672.94 142.224C1696.09 182.375 1717.53 223.669 1730.83 268.107C1742.26 306.4 1747.12 346.408 1750.98 386.273C1755.12 429.139 1757.84 472.005 1759.41 515.013C1760.84 552.449 1760.84 591.457 1745.26 625.464C1728.83 661.185 1694.24 688.619 1655.79 696.907C1620.34 704.48 1575.6 671.473 1567.46 636.037Z" fill="#343473" stroke="#6F6FD2" stroke-miterlimit="10"/>
<path d="M984.819 137.808C986.392 99.6756 977.1 72.8256 1008.26 44.4045C1075.45 -16.5793 1151.21 -74.9924 1240.84 -89.2743C1281.29 -95.7012 1322.75 -92.8448 1363.49 -87.9889C1432.1 -79.7054 1501.71 -64.995 1560.75 -29.1474C1649.66 24.6955 1705.41 121.813 1729.72 222.786C1753.87 323.616 1749.87 429.017 1741.58 532.418C1739.44 559.125 1736.86 586.547 1725.14 610.54C1710.13 641.246 1664.1 683.521 1628.08 665.811C1624.08 663.812 1620.07 661.527 1616.22 658.956C1595.77 645.388 1579.19 624.394 1572.33 599.4C1571.9 597.829 1571.47 596.115 1571.19 594.544C1564.33 563.41 1570.19 529.847 1551.75 507.71C1550.75 506.568 1549.89 505.425 1548.74 504.425C1535.45 490.572 1513.72 484.859 1492.85 487.43C1478.27 489.287 1464.12 494.714 1451.25 501.855C1445.54 504.997 1440.1 508.424 1434.82 512.138C1413.23 527.277 1393.93 545.986 1368.63 553.555C1338.18 562.839 1309.02 548.557 1280.43 541.416C1252.56 534.418 1223.97 541.987 1196.24 544.558C1168.51 546.986 1135.91 542.558 1119.9 518.707C1106.32 498.713 1106.47 472.291 1105.47 449.012C1105.18 443.013 1104.89 437.158 1104.18 431.445C1102.04 414.592 1097.89 400.025 1088.88 386.6C1082.17 376.459 1073.02 367.89 1062.58 359.892C1048.43 349.181 1031.85 339.184 1015.98 329.472C1000.26 319.76 984.533 309.477 974.241 294.481C957.945 270.63 962.234 244.78 969.238 220.072C975.957 196.65 981.674 175.37 983.676 153.518C984.248 148.091 984.676 142.95 984.819 137.808Z" fill="#343473" stroke="#6F6FD2" stroke-miterlimit="10"/>
<path d="M1581.96 560.308C1581.53 558.738 1580.96 557.167 1580.53 555.597C1571.67 526.044 1565.52 494.777 1540.64 480.643C1539.35 479.929 1538.06 479.215 1536.77 478.644C1520.19 470.364 1499.31 469.793 1479.43 474.647C1465.56 478.073 1451.97 483.784 1439.53 490.351C1433.96 493.207 1428.38 496.348 1423.09 499.489C1400.78 512.481 1379.33 526.044 1354.3 531.755C1333.71 536.466 1313.69 529.47 1294.1 524.902C1275.08 520.333 1255.92 522.332 1237.76 520.904C1219.6 519.476 1199.58 513.623 1188.99 497.204C1176.55 477.93 1176.27 452.803 1171.41 431.53C1170.12 425.962 1168.55 420.68 1166.26 415.683C1159.82 400.978 1149.96 391.127 1137.37 382.561C1128.08 376.279 1117.21 371.139 1106.2 365.999C1091.04 358.861 1074.45 350.866 1059.58 341.443C1044.71 332.02 1030.98 320.741 1022.68 305.465C1008.24 278.767 1014.82 249.214 1020.97 221.659C1026.97 194.391 1026.54 171.405 1021.54 145.849C1020.4 140.281 1019.39 134.427 1018.25 128.717C1012.82 98.8779 1008.24 59.4735 1035.7 38.4864C1049.57 27.9215 1089.32 -2.71692 1106.2 -7C1185.99 -27.416 1243.91 -20.9056 1326.13 -26.4736C1408.36 -32.0416 1492.87 -23.0472 1567.52 11.6458C1593.26 23.6384 1617.71 38.6292 1637.88 58.3314C1680.35 99.8772 1701.08 158.841 1712.24 217.091C1725.39 285.192 1727.54 354.72 1729.54 423.964C1730.54 457.229 1731.54 490.494 1732.54 523.759C1733.54 557.167 1734.26 592.146 1719.1 621.985C1709.95 639.974 1694.08 655.821 1674.06 659.39C1628.15 667.385 1592.83 594.716 1581.96 560.308Z" fill="#343473" stroke="#6F6FD2" stroke-miterlimit="10"/>
<path d="M1626.23 590.598C1615.22 566.888 1609.94 541.035 1600.65 516.754C1589.93 488.616 1571.78 459.478 1540.34 453.479C1504.91 446.766 1469.61 463.906 1438.6 478.76C1410.45 492.187 1381.87 506.613 1350.86 509.898C1319.86 513.183 1285.13 502.471 1269.13 475.618C1255.12 452.194 1257.41 420.485 1239.55 399.917C1220.97 378.492 1188.82 377.635 1160.95 371.922C1128.23 365.209 1095.08 347.212 1082.36 316.36C1070.07 286.651 1078.65 253.371 1083.79 223.09C1089.08 191.81 1082.79 166.957 1070.64 137.962C1059.5 111.538 1048.07 81.9721 1057.5 54.834C1070.36 17.6975 1112.66 -5.8698 1145.66 -22.724C1184.25 -42.4349 1226.54 -55.0041 1269.7 -58.7178C1343.58 -65.2881 1419.45 -46.4342 1481.76 -6.15547C1506.62 9.98459 1529.34 29.267 1553.92 45.8355C1577.78 61.8327 1603.51 75.259 1630.51 85.5429C1639.23 88.828 1648.37 92.1132 1655.23 98.3978C1665.95 108.396 1669.09 123.822 1671.38 138.391C1695.1 288.365 1697.96 440.91 1700.96 592.741C1701.25 606.453 1700.25 622.593 1688.96 630.306C1665.24 645.731 1634.8 609.023 1626.23 590.598Z" fill="#343473" stroke="#6F6FD2" stroke-width="2" stroke-miterlimit="10"/>
<path d="M1623.34 450.265C1614.91 429.128 1608.77 407.135 1600.05 385.999C1594.76 373.289 1588.19 360.435 1580.04 349.296C1572.61 339.156 1563.75 330.302 1552.03 325.446C1549.6 324.447 1547.18 323.59 1544.75 322.876C1530.17 318.734 1514.17 320.305 1499.16 324.732C1486.87 328.445 1475.01 333.872 1463.72 339.585C1461.29 340.87 1458.72 342.013 1456.29 343.298C1434.57 354.294 1412.42 365.719 1388.98 371.432C1362.69 378.001 1332.25 378.144 1314.39 361.721C1302.67 351.01 1301.53 333.301 1289.38 321.733C1276.66 309.737 1257.37 307.309 1241.22 301.597C1237.51 300.311 1233.93 298.74 1230.36 297.027C1215.64 289.6 1202.78 278.033 1197.35 262.038C1189.06 237.474 1194.06 210.054 1200.35 185.776C1202.5 177.35 1204.35 169.495 1206.07 162.069C1209.21 148.216 1211.07 136.077 1212.64 123.795C1213.64 115.94 1215.07 108.228 1217.21 100.374C1219.93 90.6626 1224.07 80.6657 1229.93 69.2407C1230.08 68.955 1230.22 68.5266 1230.5 68.241C1247.22 35.6797 1261.8 6.40315 1293.95 -11.3056C1331.39 -31.8706 1370.98 -50.4362 1414.13 -54.2922C1455.72 -57.8625 1497.3 -47.4372 1536.89 -34.0128C1572.33 -22.0165 1607.48 -7.16404 1635.92 17.2569C1692.79 66.0988 1713.23 144.217 1728.8 217.48C1742.81 283.602 1755.24 350.724 1751.24 418.132C1749.67 444.838 1744.81 472.829 1728.09 493.68C1682.22 550.805 1641.35 495.25 1623.34 450.265Z" fill="#343473" stroke="#6F6FD2" stroke-width="2" stroke-miterlimit="10"/>
<path d="M1597.25 226.783C1590.96 215.19 1583.67 203.598 1572.38 196.728C1560.95 189.859 1546.66 188.857 1533.51 191.719C1520.36 194.438 1508.36 200.592 1496.64 207.033C1457.77 228.214 1417.76 254.261 1373.46 251.542C1357.6 250.54 1340.59 244.672 1332.44 231.076C1328.87 225.208 1327.3 218.339 1326.01 211.612C1321.44 185.422 1324.01 156.37 1340.45 135.618C1353.02 119.875 1372.03 110.716 1390.75 102.987C1400.32 99.1232 1410.47 94.9728 1416.76 86.8152C1425.19 75.9384 1424.62 60.9112 1426.76 47.1721C1429.05 32.5742 1433.62 17.4039 1443.05 5.95466C1471.78 -28.5363 1518.65 -41.703 1563.38 -46.1396C1570.95 -46.8552 1578.53 -47.4276 1585.96 -46.5689C1607.39 -44.136 1626.26 -29.9675 1638.97 -12.3642C1651.69 5.23907 1658.84 25.9909 1664.84 46.7427C1684.85 115.438 1693.71 187.998 1684.13 258.984C1681.99 275.442 1678.7 291.9 1670.56 306.355C1666.27 314.083 1659.12 321.669 1650.41 320.953C1636.69 319.951 1630.69 298.77 1625.68 288.323C1615.82 267.857 1608.25 246.676 1597.25 226.783Z" fill="#343473" stroke="#6F6FD2" stroke-width="2" stroke-miterlimit="10"/>
<path d="M1450.23 56.0649C1454.52 35.931 1470.24 13.5125 1488.52 3.51696C1499.81 -2.62315 1514.1 -5.05063 1525.96 -10.334C1537.68 -15.6173 1549.11 -21.4719 1561.11 -26.184C1586.4 -36.1796 1617.4 -40.3206 1639.26 -24.1849C1655.98 -11.9047 1663.41 9.22869 1669.13 29.3625C1689.56 100.902 1700.27 175.297 1700.99 249.692C1701.13 267.399 1700.13 286.962 1687.84 299.813C1681.84 306.096 1672.84 310.237 1664.27 308.666C1648.41 305.953 1642.84 290.817 1637.41 278.251C1629.69 260.402 1618.12 243.41 1607.83 226.988C1601.69 217.278 1595.11 207.14 1585.68 200.714C1578.25 195.574 1569.54 193.146 1561.11 192.432C1558.68 192.29 1556.39 192.147 1553.96 192.29C1543.53 192.718 1533.96 195.574 1524.53 198.715C1514.67 202 1504.38 205.712 1493.67 209.139C1470.66 216.707 1445.52 223.847 1419.08 221.991C1416.8 221.848 1414.51 221.562 1412.37 221.277C1400.51 219.42 1388.94 214.994 1382.08 205.998C1378.51 201.428 1376.36 196.002 1374.79 190.29C1369.51 169.871 1371.36 146.596 1383.51 129.603C1392.79 116.609 1407.08 108.756 1421.37 101.759C1428.66 98.1889 1436.52 94.619 1441.37 88.0505C1448.09 78.769 1447.95 66.7744 1450.23 56.0649Z" fill="#343473" stroke="#6F6FD2" stroke-width="2" stroke-miterlimit="10"/>
<path d="M1474.08 64.6339C1474.08 29.4827 1534.46 12.7645 1558.16 2.76209C1565.72 -0.381517 1573.43 -3.66801 1581.43 -5.09692C1609.4 -10.241 1638.24 7.19171 1652.51 31.9119C1658.94 42.9145 1662.79 55.2031 1666.79 67.206C1686.77 129.221 1707.04 193.093 1703.62 258.108C1703.05 267.825 1701.76 278.256 1695.34 285.686C1689.49 292.402 1679.64 295.546 1671.07 293.26C1656.8 289.544 1655.37 275.97 1648.52 265.682C1639.67 252.25 1628.68 239.961 1619.11 226.815C1613.26 218.813 1607.26 210.383 1599.55 204.239C1593.56 199.38 1586.85 196.094 1580.57 193.95C1578.71 193.379 1577 192.807 1575.29 192.379C1567.44 190.521 1560.44 190.092 1553.45 189.949C1546.02 189.807 1538.17 189.807 1529.32 190.235C1510.62 191.093 1488.64 194.093 1465.66 192.093C1463.66 191.95 1461.8 191.664 1459.8 191.378C1449.67 189.949 1439.39 186.949 1432.68 180.233C1429.11 176.803 1426.4 172.802 1424.69 168.23C1419.12 153.512 1419.69 135.937 1427.54 122.648C1433.39 112.502 1443.1 105.644 1452.95 99.4994C1457.95 96.3558 1463.37 93.2122 1467.08 88.0681C1471.51 81.4951 1471.79 72.493 1474.08 64.6339Z" fill="#343473" stroke="#6F6FD2" stroke-width="3" stroke-miterlimit="10"/>
</g>
<circle opacity="0.2" cx="1447.5" cy="525.5" r="26.5" fill="#FFC47E"/>
<circle opacity="0.2" cx="1447.5" cy="525.5" r="17.5" fill="#FFC47E"/>
<circle opacity="0.2" cx="1306.5" cy="347.5" r="49.5" fill="#FFC47E"/>
<circle opacity="0.2" cx="1306.5" cy="347.5" r="32.5" fill="#FFC47E"/>
<circle cx="1307" cy="348" r="6" fill="#FFC47E"/>
<circle cx="1170" cy="285" r="6" fill="#FFC47E"/>
<circle opacity="0.2" cx="1076.5" cy="152.5" r="28.5" fill="#F7BF7D"/>
<circle opacity="0.2" cx="1076.5" cy="152.5" r="18.6481" fill="#F7BF7D"/>
<circle cx="1076.85" cy="152.851" r="3.51852" fill="#F7BF7D"/>
<path d="M1305 346.5L1258.1 289.385C1255.82 286.609 1252.42 285 1248.83 285H1176" stroke="#FFC47E"/>
<path fill-rule="evenodd" clip-rule="evenodd" d="M969 250C965.686 250 963 252.686 963 256V410C963 413.314 965.686 416 969 416H1162C1165.31 416 1168 413.314 1168 410V302.699L1156.66 291.356C1153.53 288.232 1153.53 283.167 1156.66 280.042L1168 268.699V256C1168 252.686 1165.31 250 1162 250H969Z" fill="#6767E5"/>
<path opacity="0.3" d="M981 298.844H988.734V304H981V298.844ZM988.5 298.844H996.234V304H988.5V298.844ZM996 298.844H1003.73V304H996V298.844ZM1003.5 298.844H1011.23V304H1003.5V298.844ZM1011 298.844H1018.73V304H1011V298.844ZM1018.5 298.844H1026.23V304H1018.5V298.844ZM1026 298.844H1033.73V304H1026V298.844ZM1033.5 298.844H1041.23V304H1033.5V298.844ZM1056.05 298.844H1063.78V304H1056.05V298.844ZM1063.55 298.844H1071.28V304H1063.55V298.844ZM1071.05 298.844H1078.78V304H1071.05V298.844ZM1093.59 298.844H1101.33V304H1093.59V298.844ZM1101.09 298.844H1108.83V304H1101.09V298.844ZM1108.59 298.844H1116.33V304H1108.59V298.844ZM1116.09 298.844H1123.83V304H1116.09V298.844ZM981 316.844H988.734V322H981V316.844ZM988.5 316.844H996.234V322H988.5V316.844ZM996 316.844H1003.73V322H996V316.844ZM1003.5 316.844H1011.23V322H1003.5V316.844ZM1011 316.844H1018.73V322H1011V316.844ZM1018.5 316.844H1026.23V322H1018.5V316.844ZM1041.05 316.844H1048.78V322H1041.05V316.844ZM1048.55 316.844H1056.28V322H1048.55V316.844ZM1071.09 316.844H1078.83V322H1071.09V316.844ZM1078.59 316.844H1086.33V322H1078.59V316.844ZM1086.09 316.844H1093.83V322H1086.09V316.844ZM1108.64 316.844H1116.38V322H1108.64V316.844ZM1116.14 316.844H1123.88V322H1116.14V316.844ZM981 334.844H988.734V340H981V334.844ZM988.5 334.844H996.234V340H988.5V334.844ZM996 334.844H1003.73V340H996V334.844ZM1003.5 334.844H1011.23V340H1003.5V334.844ZM1026.05 334.844H1033.78V340H1026.05V334.844ZM1033.55 334.844H1041.28V340H1033.55V334.844ZM1056.09 334.844H1063.83V340H1056.09V334.844ZM1063.59 334.844H1071.33V340H1063.59V334.844ZM1071.09 334.844H1078.83V340H1071.09V334.844Z" fill="#FAFAFA"/>
<path opacity="0.67" d="M981 273.266H992.602V281H981V273.266ZM992.25 273.266H1003.85V281H992.25V273.266ZM1003.5 273.266H1015.1V281H1003.5V273.266ZM1014.75 273.266H1026.35V281H1014.75V273.266ZM1026 273.266H1037.6V281H1026V273.266ZM1037.25 273.266H1048.85V281H1037.25V273.266ZM1071.07 273.266H1082.67V281H1071.07V273.266ZM1082.32 273.266H1093.92V281H1082.32V273.266Z" fill="#FAFAFA"/>
<line opacity="0.5" x1="980" y1="357.5" x2="1154" y2="357.5" stroke="white"/>
<rect opacity="0.5" x="1096" y="382" width="58" height="9" fill="white"/>
<rect opacity="0.2" x="1039" y="382" width="57" height="9" fill="white"/>
<rect opacity="0.5" x="981" y="382" width="58" height="9" fill="white"/>
<circle cx="998.5" cy="376.5" r="2.5" fill="white"/>
<line x1="998.5" y1="378" x2="998.5" y2="391" stroke="white"/>
</g>
<defs>
<clipPath id="clip0">
<rect width="1440" height="510" fill="white"/>
</clipPath>
</defs>
</svg>
