<svg width="15" height="20" viewBox="0 0 15 20" fill="none" xmlns="http://www.w3.org/2000/svg">
<path fill-rule="evenodd" clip-rule="evenodd" d="M7.5 0C9.08856 0 10.5324 0.653437 11.5782 1.70594C12.624 2.75844 13.2736 4.21125 13.2736 5.81063V7.55C13.2736 7.67094 13.2223 7.77531 13.127 7.84875C13.0317 7.9225 12.9187 7.94531 12.8025 7.91437C12.3973 7.80625 11.998 7.70937 11.6043 7.62469C11.4298 7.58719 11.3081 7.43594 11.3081 7.25625V5.81063C11.3081 4.7575 10.8793 3.79937 10.1884 3.10469C9.49812 2.40969 8.5461 1.97781 7.5 1.97781C6.4539 1.97781 5.50188 2.40969 4.81163 3.10469C4.12075 3.79937 3.69193 4.7575 3.69193 5.81063V7.25625C3.69193 7.43594 3.57022 7.58719 3.39571 7.62469C3.00168 7.70937 2.60267 7.80625 2.19746 7.91437C2.08133 7.94531 1.96831 7.9225 1.87298 7.84875C1.77766 7.77531 1.72673 7.67125 1.72673 7.55V5.81063C1.72673 4.21125 2.376 2.75844 3.42179 1.70594C4.46758 0.653437 5.91113 0 7.5 0ZM0.508301 9.28969C5.55933 7.62187 9.44036 7.62156 14.4917 9.28969C14.7895 9.38781 15 9.72781 15 10.0434L13.3728 18.8509C13.2009 19.5434 12.8589 20 12.231 20H7.5H2.76896C2.14111 20 1.77978 19.4922 1.62722 18.8509L0 10.0434C0 9.72781 0.210835 9.38781 0.508301 9.28969Z" fill="#343473"/>
<path d="M8.92467 13.1756C8.92467 12.4631 8.28347 11.7344 7.49261 11.7344C6.70175 11.7344 6.06055 12.4631 6.06055 13.1756C6.06055 13.8266 6.39465 14.2597 6.87842 14.4797V16.1458C6.87842 16.2811 6.98834 16.3917 7.12279 16.3917H7.86242C7.99687 16.3917 8.10679 16.2811 8.10679 16.1458V14.4797C8.59056 14.2597 8.92467 13.8266 8.92467 13.1756Z" fill="#FAFAFA"/>
</svg>
