<svg width="30" height="40" viewBox="0 0 30 40" fill="none" xmlns="http://www.w3.org/2000/svg">
<path fill-rule="evenodd" clip-rule="evenodd" d="M15 0C18.1771 0 21.0648 1.30687 23.1564 3.41188C25.248 5.51687 26.5472 8.4225 26.5472 11.6213V15.1C26.5472 15.3419 26.4447 15.5506 26.254 15.6975C26.0634 15.845 25.8373 15.8906 25.6051 15.8287C24.7946 15.6125 23.996 15.4187 23.2086 15.2494C22.8596 15.1744 22.6161 14.8719 22.6161 14.5125V11.6213C22.6161 9.515 21.7585 7.59875 20.3767 6.20937C18.9962 4.81938 17.0922 3.95562 15 3.95562C12.9078 3.95562 11.0038 4.81938 9.62325 6.20937C8.24149 7.59875 7.38387 9.515 7.38387 11.6213V14.5125C7.38387 14.8719 7.14043 15.1744 6.79142 15.2494C6.00335 15.4187 5.20535 15.6125 4.39492 15.8287C4.16266 15.8906 3.93661 15.845 3.74596 15.6975C3.55531 15.5506 3.45346 15.3425 3.45346 15.1V11.6213C3.45346 8.4225 4.75201 5.51687 6.84359 3.41188C8.93517 1.30687 11.8223 0 15 0ZM1.0166 18.5794C11.1187 15.2437 18.8807 15.2431 28.9834 18.5794C29.5789 18.7756 30 19.4556 30 20.0869L26.7455 37.7019C26.4017 39.0868 25.7178 40 24.4621 40H15H5.53792C4.28223 40 3.55955 38.9844 3.25445 37.7019L0 20.0869C0 19.4556 0.421669 18.7756 1.0166 18.5794Z" fill="#343473"/>
<path d="M17.8503 26.3473C17.8503 24.9223 16.5679 23.4648 14.9862 23.4648C13.4045 23.4648 12.1221 24.9223 12.1221 26.3473C12.1221 27.6492 12.7903 28.5155 13.7578 28.9555V32.2876C13.7578 32.5583 13.9777 32.7795 14.2466 32.7795H15.7258C15.9947 32.7795 16.2146 32.5583 16.2146 32.2876V28.9555C17.1821 28.5155 17.8503 27.6492 17.8503 26.3473Z" fill="#FAFAFA"/>
</svg>
